<svg id="Layer_1" data-name="Layer 1" xmlns="http://www.w3.org/2000/svg" viewBox="0 0 121 64"><defs><style>.cls-1{fill:#3c3c3b;}</style></defs><g id="A"><path class="cls-1" d="M96.36,1A5.27,5.27,0,0,1,99.5,3.72c1.47,2.44,3,4.87,4.4,7.31a.81.81,0,0,0,1.06.43c3.76-1,7.52-2,11.27-3a4.38,4.38,0,0,1,2.56.08,2.12,2.12,0,0,1,1.36,2.93,8.23,8.23,0,0,1-1.34,2.24c-2.49,3-5,5.95-7.58,8.91a.9.9,0,0,0-.13,1.16q2.3,4.29,4.55,8.6a4.22,4.22,0,0,1,.53,3.25,3.68,3.68,0,0,1-4.45,2.53c-2-.46-3.9-1.1-5.84-1.66-.83-.25-1.66-.49-2.48-.77-.2-.07-.46-.28-.49-.46-.3-1.6-.56-3.21-.83-4.81,0-.05,0-.1,0-.19l8,2.2c-.14-.3-.22-.52-.33-.73q-2.11-4-4.25-8a1,1,0,0,1,.15-1.24c2.27-2.64,4.52-5.29,6.78-7.94a1.37,1.37,0,0,0,.28-.58l-1,.25c-3.13.83-6.27,1.65-9.39,2.49a.72.72,0,0,1-1-.38q-2.3-3.87-4.63-7.7A1.77,1.77,0,0,0,96.21,8c-.12.61-.24,1.22-.35,1.83q-.78,4.37-1.53,8.73c-.07.44-.35.56-.7.67l-9.55,3c-.27.09-.53.21-.8.32v.13L91.55,26c-.13.11-.2.19-.29.25-1.64,1.06-3.27,2.11-4.9,3.18a.9.9,0,0,1-1,.07c-2-.9-4-1.77-6-2.66a6.32,6.32,0,0,1-2.7-2.07,3.11,3.11,0,0,1,.81-4.68,13.66,13.66,0,0,1,3.86-1.58c2.72-.87,5.45-1.74,8.18-2.58a1.07,1.07,0,0,0,.82-1q.85-4.95,1.79-9.89a6.24,6.24,0,0,1,1.26-2.63A4,4,0,0,1,95.65,1Z"/><path class="cls-1" d="M.33,50.77l5.39-2.89c.31.63.58,1.25.91,1.84a3.84,3.84,0,0,0,3,2.12A4.42,4.42,0,0,0,14,49a2.61,2.61,0,0,0-.5-2.35c-.67-.88-1.4-1.73-2.14-2.56-1.27-1.42-2.59-2.79-3.83-4.22C4.67,36.64,4.62,33,7.33,29.67A9.93,9.93,0,0,1,17,25.91a7,7,0,0,1,4.45,2.65c.53.62,1,1.28,1.55,2l-5,3.71c-.26-.41-.51-.8-.77-1.17a3.91,3.91,0,0,0-2.72-1.86,3.21,3.21,0,0,0-3,1.17,1.78,1.78,0,0,0,0,2.42c1.3,1.52,2.65,3,4,4.47.74.82,1.52,1.6,2.24,2.42a7.88,7.88,0,0,1,1.22,9.1,11.2,11.2,0,0,1-13.34,6,7.07,7.07,0,0,1-4.44-4c-.28-.61-.54-1.23-.82-1.85Z"/><path class="cls-1" d="M24.35,63.23H19.42c.1-.75.18-1.48.28-2.2.42-3.19.82-6.39,1.26-9.59.34-2.5.59-5,1.12-7.49A13.6,13.6,0,0,1,32.63,34a10.66,10.66,0,0,1,8.7,1.91,9.52,9.52,0,0,1,3.72,6.89c.77,6.77-5,13.09-11.09,14.06a10.78,10.78,0,0,1-8.1-1.65c-.11-.08-.23-.14-.42-.25ZM33.45,52a7.08,7.08,0,0,0,3.89-1.89,6.83,6.83,0,0,0,2.6-6.3,5.53,5.53,0,0,0-6.39-4.94,7.72,7.72,0,0,0-6.81,7.51C26.75,49.54,29.28,52,33.45,52Z"/><path class="cls-1" d="M68.9,56.41H64c.14-1.07.27-2.11.4-3.14.31-2.49.65-5,.91-7.48a7.59,7.59,0,0,0-.84-4.3,4.72,4.72,0,0,0-3.83-2.61,7.69,7.69,0,0,0-8.49,6.51,5.76,5.76,0,0,0,7.49,6.34,8.09,8.09,0,0,0,3.72-2.24c-.06.57-.1,1-.15,1.42-.19,1.45-.37,2.9-.59,4.35a1,1,0,0,1-.4.66c-3.54,1.48-7.08,1.65-10.45-.38A9.56,9.56,0,0,1,47,46.71a13.6,13.6,0,0,1,11.4-12.8,10.14,10.14,0,0,1,10.69,4.72,9.46,9.46,0,0,1,1.27,6.23C70,48.48,69.48,52.09,69,55.7,69,55.93,69,56.15,68.9,56.41Z"/><path class="cls-1" d="M91.54,39.77l9-10,.62,3.57a9.14,9.14,0,0,0,.23,1.27,1,1,0,0,1-.34,1.07c-1.81,1.88-3.61,3.78-5.41,5.67l-.46.51,10.36,14.52-.45,0c-1.87,0-3.74,0-5.6,0a1,1,0,0,1-1-.53Q94.91,50.46,91.3,45l-.49-.71L89.22,56.41h-5.5c.09-.82.18-1.62.28-2.42q.48-3.66,1-7.32c.31-2.39.63-4.78.94-7.16.35-2.67.72-5.34,1-8A1.8,1.8,0,0,1,87.87,30c1.59-1,3.14-2,4.7-3l.56-.34-1.71,13.1Z"/><path class="cls-1" d="M84.14,34.38c-.23,1.7-.45,3.36-.67,5.07-.83,0-1.63,0-2.42,0-1.81-.1-2.49.64-2.7,2.37-.52,4.19-1.08,8.37-1.63,12.56-.08.67-.19,1.35-.29,2.05H71.34c.12-1,.23-1.94.36-2.89.32-2.42.63-4.84,1-7.26.29-2.16.55-4.32.91-6.47a7,7,0,0,1,6.31-5.43c1.24,0,2.49,0,3.74,0Z"/><path class="cls-1" d="M63.75,29.45H62.48L62.9,27c-.86,0-1.67,0-2.48,0-.1,0-.24.2-.27.33a16.53,16.53,0,0,0-.3,1.71c0,.34-.15.47-.5.44a8,8,0,0,0-.85,0l1.08-6.14h1.27l-.42,2.37h2.69l.44-2.38h1.27Z"/><path class="cls-1" d="M27.05,29.44c.88-1.63,1.71-3.19,2.55-4.76a2.49,2.49,0,0,0,.26-.48c.23-.88.85-1,1.63-.89a.46.46,0,0,1,.32.25c.37,1.94.72,3.88,1.08,5.87H31.53l-.22-1.27c-.65,0-1.29,0-1.94,0a.49.49,0,0,0-.33.3,1.3,1.3,0,0,1-1.72,1A1.17,1.17,0,0,0,27.05,29.44Zm4.07-2.56-.28-1.76h-.11l-.87,1.75Z"/><path class="cls-1" d="M48.23,29.44H46.88l-.24-1.28c-.64,0-1.26,0-1.87,0a.56.56,0,0,0-.39.29c-.25,1-1,1.13-1.82,1l-.13-.06.26-.52c.92-1.71,1.85-3.42,2.75-5.15a.67.67,0,0,1,.76-.44,9,9,0,0,0,.91,0ZM46.15,25l-.95,1.88h1.26Z"/><path class="cls-1" d="M72.14,23.3l-.24,1.24H69.78l-.21,1.2h1.94L71.32,27h-2l-.23,1.26h2.13L71,29.45H67.65c.11-.68.22-1.35.33-2,.22-1.26.44-2.52.69-3.77,0-.15.21-.36.32-.37C70,23.29,71.05,23.3,72.14,23.3Z"/><path class="cls-1" d="M37.67,27.18l-.42,2.26H36l1.08-6.13c.76,0,1.51,0,2.25,0a1.44,1.44,0,0,1,1.39,1.11A2,2,0,0,1,40,26.67a3.27,3.27,0,0,1-1.27.49A4.88,4.88,0,0,1,37.67,27.18ZM37.88,26A6.27,6.27,0,0,0,39,25.87a.73.73,0,0,0,.45-.89c0-.38-.35-.41-.66-.45-.53-.06-.77.12-.77.66A5.82,5.82,0,0,1,37.88,26Z"/><path class="cls-1" d="M55.69,24.9c-1.62-.88-3.32,0-3.37,1.68a1.5,1.5,0,0,0,2,1.61c.25-.07.49-.19.79-.3,0,.43-.06.82-.14,1.21,0,.11-.22.22-.36.27a2.68,2.68,0,0,1-2.77-.43A2.73,2.73,0,0,1,51,26.18a3.61,3.61,0,0,1,4.29-2.89c.42.11.59.31.49.74A7,7,0,0,0,55.69,24.9Z"/><path class="cls-1" d="M110.62,55.82c.22-.56.42-1,.57-1.48s.38-.59.83-.42V56.4c-.28.11-.42.05-.41-.27a10.55,10.55,0,0,0-.08-1.67l-.83,2h-.18l-.82-2h-.08V56.1c0,.31,0,.31-.41.31V53.92c.45-.17.7,0,.84.44S110.4,55.27,110.62,55.82Z"/><path class="cls-1" d="M108.69,53.87c-.16.5-.55.19-.79.37-.05.71-.11,1.45-.17,2.19h-.29V54.18c-.25,0-.45,0-.64,0s-.12-.11-.17-.17.11-.13.17-.13Z"/></g></svg>