<svg id="Layer_1" data-name="Layer 1" xmlns="http://www.w3.org/2000/svg" viewBox="0 0 121.05 72.36"><defs><style>.cls-1,.cls-2{fill:#3c3c3b;}.cls-2{fill-rule:evenodd;}</style></defs><g id="g1865"><path id="path1857" class="cls-1" d="M34.08,26.48A12.08,12.08,0,0,0,34.52,30a20.64,20.64,0,0,0,1.27,2.87,1.74,1.74,0,0,1,.28.92,1.58,1.58,0,0,1-.76,1.2L32.8,36.69a1.92,1.92,0,0,1-1,.36,1.8,1.8,0,0,1-1.19-.56,11.83,11.83,0,0,1-1.44-1.87c-.4-.68-.8-1.44-1.24-2.36a14.71,14.71,0,0,1-11.73,5.51,10.93,10.93,0,0,1-8-2.87,10.24,10.24,0,0,1-3-7.66A10.3,10.3,0,0,1,8.85,19c2.44-2.07,5.67-3.11,9.78-3.11a31.4,31.4,0,0,1,4.23.32c1.48.2,3,.52,4.59.88V14.18c0-3-.64-5.14-1.87-6.38S22.14,6,19.07,6a18.12,18.12,0,0,0-4.31.52,31.74,31.74,0,0,0-4.31,1.36,11.48,11.48,0,0,1-1.4.52,2.45,2.45,0,0,1-.64.12c-.55,0-.83-.4-.83-1.24v-2a2.51,2.51,0,0,1,.28-1.39A2.94,2.94,0,0,1,9,3.05a23.12,23.12,0,0,1,5-1.8A24.18,24.18,0,0,1,20.23.5C25,.5,28.45,1.57,30.68,3.73S34,9.16,34,13.55V26.48ZM17.87,32.54A13.12,13.12,0,0,0,22,31.83a8.91,8.91,0,0,0,3.8-2.56,6.48,6.48,0,0,0,1.35-2.55,14.36,14.36,0,0,0,.4-3.48V21.57a33.22,33.22,0,0,0-3.67-.68,30,30,0,0,0-3.75-.24c-2.68,0-4.63.52-5.95,1.6a5.54,5.54,0,0,0-1.95,4.59,5.61,5.61,0,0,0,1.47,4.23,5.57,5.57,0,0,0,4.19,1.47Zm32.05,4.31a2.19,2.19,0,0,1-1.51-.4,3.17,3.17,0,0,1-.84-1.55L38.19,4.05a7,7,0,0,1-.36-1.6.88.88,0,0,1,1-1H42.7a2.17,2.17,0,0,1,1.55.4,3.27,3.27,0,0,1,.8,1.56l6.71,26.42L58,3.41a2.81,2.81,0,0,1,.76-1.56,2.75,2.75,0,0,1,1.6-.4h3.19a2.41,2.41,0,0,1,1.6.4,2.7,2.7,0,0,1,.76,1.56l6.3,26.74L79.1,3.41a3.54,3.54,0,0,1,.79-1.56,2.61,2.61,0,0,1,1.56-.4h3.71a.89.89,0,0,1,1,1,4,4,0,0,1-.08.64,5.69,5.69,0,0,1-.28,1L76.18,34.94a3,3,0,0,1-.84,1.55,2.5,2.5,0,0,1-1.51.4H70.4a2.41,2.41,0,0,1-1.6-.4A2.77,2.77,0,0,1,68,34.9L61.86,9.16l-6.15,25.7A3,3,0,0,1,55,36.45a2.48,2.48,0,0,1-1.6.4Zm51.29,1.08a26.39,26.39,0,0,1-6.15-.72,18.29,18.29,0,0,1-4.59-1.59,2.88,2.88,0,0,1-1.24-1.12A2.82,2.82,0,0,1,89,33.38v-2c0-.84.32-1.24.92-1.24a2.27,2.27,0,0,1,.72.12c.24.08.6.24,1,.4A21,21,0,0,0,96,32a23.92,23.92,0,0,0,4.75.48,10.87,10.87,0,0,0,5.83-1.31,4.31,4.31,0,0,0,2.07-3.79,3.9,3.9,0,0,0-1.08-2.8,9.87,9.87,0,0,0-4-2.07l-5.79-1.8a12.17,12.17,0,0,1-6.38-4.07,9.5,9.5,0,0,1-2-5.79,8.89,8.89,0,0,1,1.08-4.43,10.34,10.34,0,0,1,2.87-3.27A12.7,12.7,0,0,1,97.5,1.09a17.64,17.64,0,0,1,5-.67,20.08,20.08,0,0,1,2.68.16c.92.11,1.75.27,2.59.43s1.56.4,2.28.64a8.6,8.6,0,0,1,1.67.72,3.46,3.46,0,0,1,1.2,1,2.16,2.16,0,0,1,.36,1.32V6.56c0,.84-.32,1.28-.92,1.28a4.07,4.07,0,0,1-1.51-.48A18.25,18.25,0,0,0,103.2,5.8a10.31,10.31,0,0,0-5.31,1.12A3.87,3.87,0,0,0,96,10.47a3.78,3.78,0,0,0,1.2,2.84,11.82,11.82,0,0,0,4.39,2.19l5.66,1.8a12.12,12.12,0,0,1,6.19,3.83,9,9,0,0,1,1.84,5.59,10.27,10.27,0,0,1-1,4.63,10.83,10.83,0,0,1-2.92,3.51,12.74,12.74,0,0,1-4.43,2.23,18.89,18.89,0,0,1-5.7.84Z"/><g id="g1863"><path id="path1859" class="cls-2" d="M108.75,57.33C95.62,67,76.54,72.18,60.14,72.18A88,88,0,0,1,.79,49.55c-1.24-1.12-.12-2.64,1.36-1.76A119.64,119.64,0,0,0,61.54,63.55a118.57,118.57,0,0,0,45.29-9.25C109,53.3,110.91,55.73,108.75,57.33Z"/><path id="path1861" class="cls-2" d="M114.22,51.1c-1.68-2.15-11.1-1-15.37-.52-1.27.16-1.47-.95-.32-1.79,7.51-5.27,19.84-3.75,21.28-2s-.4,14.13-7.43,20c-1.08.91-2.11.44-1.63-.76C112.34,62.12,115.89,53.22,114.22,51.1Z"/></g></g></svg>