<svg id="Layer_1" data-name="Layer 1" xmlns="http://www.w3.org/2000/svg" viewBox="0 0 115.55 111.53"><defs><style>.cls-1,.cls-2{fill:#3c3c3b;}.cls-2{font-size:17.21px;font-family:Roboto-Bold, Roboto;font-weight:700;}.cls-3{letter-spacing:0.01em;}.cls-4{letter-spacing:0em;}.cls-5{letter-spacing:-0.01em;}.cls-6{letter-spacing:-0.02em;}.cls-7{letter-spacing:0em;}</style></defs><g id="A"><path class="cls-1" d="M57.89.2,28.58,17V50.43L57.89,67.38l29.3-16.75V17ZM81.78,47.12,57.89,60.93,34,47.27v-27L57.89,6.44,81.78,20.3Z"/><path class="cls-1" d="M69.43,33.79a7.85,7.85,0,0,0-1.37.13A21.7,21.7,0,0,0,54,25.73l24.16-14L72.5,8.53,50.41,21.3a6.91,6.91,0,1,0,1.38,9.82,16.17,16.17,0,0,1,11.69,6,6.76,6.76,0,0,0-1,3.51,6.13,6.13,0,0,0,0,.74L37.77,55.74,43.37,59l22-12.72a6.89,6.89,0,1,0,4.07-12.45Z"/><text class="cls-2" transform="translate(0 87.11)"><tspan class="cls-3">A</tspan><tspan class="cls-4" x="11.68" y="0">zu</tspan><tspan class="cls-5" x="30.07" y="0">r</tspan><tspan x="36.19" y="0">e Synapse </tspan><tspan class="cls-6"><tspan x="0" y="20.66">A</tspan><tspan class="cls-7" x="11.18" y="20.66">nalytics</tspan></tspan></text></g></svg>