<svg id="Layer_1" data-name="Layer 1" xmlns="http://www.w3.org/2000/svg" viewBox="0 0 121 108"><defs><style>.cls-1{fill:#3c3c3b;}</style></defs><g id="A"><path id="path21" class="cls-1" d="M56.62,56l17.74-3.14.17,0L65.4,42c-5-6-9.12-10.88-9.12-10.91S65.7,5.08,65.76,5,72.19,16,81.3,31.82l15.63,27.1.12.21h-58ZM64,107.34c-4.42-.29-7-2.8-7.67-7.51-.18-1.25-.18-1.28-.2-9.41V82.56H60l0,7.61c0,6.85,0,7.66.09,8.14a7.13,7.13,0,0,0,1.7,4.22A4.85,4.85,0,0,0,64.57,104a10.52,10.52,0,0,0,2.63,0,5.86,5.86,0,0,0,3-1.61,7.9,7.9,0,0,0,2-3.85l.12-.51V82.64h4v24.12H72.36v-1.91a13.72,13.72,0,0,0,0-1.9,1.64,1.64,0,0,0-.22.35A8.1,8.1,0,0,1,69,106.36a8.58,8.58,0,0,1-5,1Zm44.81,0a10.38,10.38,0,0,1-4.54-1.49c-2.83-1.74-4.5-4.63-5-8.59a20.92,20.92,0,0,1-.05-4.39,12.42,12.42,0,0,1,4.49-8.68A10.57,10.57,0,0,1,108,82.11a14.07,14.07,0,0,1,3.5-.2,9.22,9.22,0,0,1,6.2,3.19,12.06,12.06,0,0,1,2.5,7.57c0,.49,0,1.36,0,1.93l0,1h-17.1V96a9.4,9.4,0,0,0,.77,3.61,7.78,7.78,0,0,0,1.74,2.54A7.58,7.58,0,0,0,110,104a18.36,18.36,0,0,0,2.84-.11,12,12,0,0,0,5.34-2.2c.17-.14.34-.26.37-.28s.06.32.06,1.78V105l-.41.25a14.13,14.13,0,0,1-5.73,2,33.11,33.11,0,0,1-3.62.06ZM116.26,92a7.8,7.8,0,0,0-2-5.22,5.44,5.44,0,0,0-3-1.46,8.78,8.78,0,0,0-2.34.07,6,6,0,0,0-3.2,1.7,8.74,8.74,0,0,0-2.12,3.38,11.26,11.26,0,0,0-.41,1.67l0,.2h13.09ZM.26,106.71s2.91-7.66,6.45-16.95l6.44-16.9h4.13l.18.44c.52,1.34,12.88,33.43,12.88,33.44s-1,0-2.2,0h-2.2L24.16,102l-1.78-4.74H8L8,97.44l-1.69,4.74-1.63,4.58H2.45a12.75,12.75,0,0,1-2.19-.05Zm20.81-13s-1.2-3.26-2.67-7.22c-2.74-7.42-2.89-7.86-3.11-9-.1-.56-.15-.58-.21-.07A11.66,11.66,0,0,1,14.71,79c-.08.23-1.31,3.61-2.75,7.53s-2.61,7.14-2.61,7.16,2.64,0,5.86,0S21.07,93.67,21.07,93.66Zm10.6,12.49v-.62l7.14-9.82L46,85.88l-6.47,0-6.47,0V82.56H51.71v1.11l-7.14,9.87c-3.94,5.43-7.15,9.89-7.15,9.9s3.18,0,7.06,0h7.06v3.3H31.67Zm52.43.59s0-5.47,0-12.11V82.56H88v2.49c0,1.37,0,2.49,0,2.49a1.92,1.92,0,0,0,.22-.5,8.57,8.57,0,0,1,2.18-3.36,5.69,5.69,0,0,1,3.08-1.54,6.69,6.69,0,0,1,1.29,0,5.55,5.55,0,0,1,1.79.25l.16.05v4l-.46-.23a5,5,0,0,0-2.58-.52,4.85,4.85,0,0,0-1.55.31,4.91,4.91,0,0,0-2.46,2,11.63,11.63,0,0,0-1.63,4.69C88,93,88,95.34,88,100v6.81H86.05C85,106.76,84.12,106.75,84.1,106.74Zm-62.29-54s4.31-7.48,9.56-16.59l9.56-16.56,11.13-9.35L63.24.85a1.84,1.84,0,0,1-.18.46L51,27.24,39.09,52.71l-8.64,0C25.7,52.73,21.81,52.72,21.81,52.71Z"/></g></svg>