<svg id="Layer_1" data-name="Layer 1" xmlns="http://www.w3.org/2000/svg" viewBox="0 0 120 121"><defs><style>.cls-1{fill:#3c3c3b;}.cls-1,.cls-2{fill-rule:evenodd;}.cls-2{fill:#fff;}.cls-3{font-size:22.59px;fill:#1d1d1b;font-family:SegoeUI-Semibold, Segoe UI;font-weight:600;}.cls-4{letter-spacing:-0.01em;}.cls-5{font-family:MyriadPro-Regular, Myriad Pro;font-weight:400;}.cls-6{letter-spacing:0em;}.cls-7{letter-spacing:-0.04em;}.cls-8{letter-spacing:0em;}.cls-9{letter-spacing:0.01em;}.cls-10{letter-spacing:-0.01em;}.cls-11{letter-spacing:0.01em;}.cls-12{letter-spacing:0em;}</style></defs><g id="A"><path class="cls-1" d="M68.08,66.8H1.34v-61C1.34,2.87,8.15.19,16.42.19S31,3,31,5.81v33.3h0L49.26,23.2V39.11h.4L68,23.2V39.38h0ZM27.24,5.41c0-1.74-4.81-3.08-10.82-3.08S5.61,3.8,5.61,5.41s4.81,3.07,10.81,3.07S27.1,7,27.24,5.41Zm20.69,43.2H40.59V56h7.34Zm-13,0H27.64V56H35ZM61,56V48.61H53.67V56Z"/><path class="cls-1" d="M1.34,66.8H16.16V5.41H1.34Z"/><path class="cls-2" d="M30.84,5.41C30.84,2.33,24.3.06,16.16.06S1.34,2.46,1.34,5.41,7.88,10.76,16,10.76,30.84,8.35,30.84,5.41"/><path class="cls-1" d="M27.9,5c0-1.88-5.2-3.48-11.74-3.48S4.41,3,4.41,5,9.62,8.48,16.16,8.48,27.9,7,27.9,5"/><path class="cls-1" d="M25.37,7.15a27.83,27.83,0,0,0-9.21-1.34A28.14,28.14,0,0,0,6.81,7.15C5.34,6.61,4.41,5.81,4.28,5c0-1.88,5.2-3.48,11.74-3.48S27.77,3,27.77,5c0,.8-.8,1.6-2.4,2.14"/><text class="cls-3" transform="translate(1.15 93.95)">Azu<tspan class="cls-4" x="38.84" y="0">r</tspan><tspan x="47.01" y="0">e</tspan><tspan class="cls-5"><tspan x="0" y="22">D</tspan><tspan class="cls-6" x="15.05" y="22">a</tspan><tspan x="25.85" y="22">ta </tspan><tspan class="cls-7" x="49" y="22">F</tspan><tspan class="cls-8" x="58.99" y="22">a</tspan><tspan class="cls-9" x="69.88" y="22">c</tspan><tspan class="cls-10" x="80.3" y="22">t</tspan><tspan x="87.64" y="22">o</tspan><tspan class="cls-11" x="100.04" y="22">t</tspan><tspan class="cls-12" x="107.73" y="22">y</tspan></tspan></text></g></svg>