<svg id="Layer_1" data-name="Layer 1" xmlns="http://www.w3.org/2000/svg" viewBox="0 0 121 68.55"><defs><style>.cls-1{fill:#3c3c3b;}</style></defs><g id="A"><polygon class="cls-1" points="41.68 10.43 41.68 11.56 59.13 21.39 74.78 12.62 74.78 16.19 59.13 25.05 42.57 15.63 41.68 16.11 41.68 22.94 59.13 32.75 74.78 23.99 74.78 27.48 59.13 36.32 42.57 26.91 41.68 27.4 41.68 28.62 59.13 38.43 76.56 28.62 76.56 21.8 75.75 21.31 59.13 30.73 43.54 21.8 43.54 18.31 59.13 27.07 76.56 17.24 76.56 10.51 75.75 10.04 59.13 19.45 44.34 11.09 59.13 2.73 71.37 9.62 72.43 8.98 72.43 8.08 59.13 0.54 41.68 10.43"/><path class="cls-1" d="M7.47,65.51a4.23,4.23,0,0,1,0-8.46,4.13,4.13,0,0,1,4.08,4.23,4.08,4.08,0,0,1-4.08,4.23m6.87,2.32V49.15H11.42v7a.27.27,0,0,1-.15.25.23.23,0,0,1-.24,0,5.36,5.36,0,0,0-4.18-1.81A6.55,6.55,0,0,0,.49,61.38,7.3,7.3,0,0,0,2.3,66.27a6.1,6.1,0,0,0,4.53,2A5.5,5.5,0,0,0,11,66.36a.17.17,0,0,1,.23-.06s0,0,0,0a.27.27,0,0,1,.15.25V68h2.91Z"/><path class="cls-1" d="M22.85,65.51a4.23,4.23,0,1,1,4.08-4.23,4.13,4.13,0,0,1-4.08,4.23m6.79,2.32v-13H26.78v1.31a.27.27,0,0,1-.15.25.22.22,0,0,1-.24-.05,5.33,5.33,0,0,0-4.19-1.76,6.86,6.86,0,0,0,0,13.69,5.4,5.4,0,0,0,4.19-1.92.16.16,0,0,1,.24,0h0a.27.27,0,0,1,.15.25v1.41h2.86Z"/><path class="cls-1" d="M47.23,65.51a4.23,4.23,0,1,1,4.08-4.23,4.13,4.13,0,0,1-4.08,4.23M54,67.83v-13H51.23v1.31a.27.27,0,0,1-.15.25.23.23,0,0,1-.25-.05,5.31,5.31,0,0,0-4.18-1.76,6.55,6.55,0,0,0-6.35,6.85,6.53,6.53,0,0,0,6.35,6.84,5.39,5.39,0,0,0,4.18-1.92.17.17,0,0,1,.25,0h0a.27.27,0,0,1,.15.25v1.41h2.82Z"/><path class="cls-1" d="M59,61.33a4.08,4.08,0,1,1,4.08,4.23A4.18,4.18,0,0,1,59,61.33m.29,4.94h.1a.31.31,0,0,1,.2.09,5.33,5.33,0,0,0,4.18,1.81,6.55,6.55,0,0,0,6.36-6.84,7.3,7.3,0,0,0-1.81-4.89,6.07,6.07,0,0,0-4.53-2,5.46,5.46,0,0,0-4.18,1.86c-.05.1-.15.1-.25,0a.27.27,0,0,1-.15-.25v-7H56.26V67.78h2.88V66.46a.21.21,0,0,1,.13-.19"/><path class="cls-1" d="M78.32,57.46a2.43,2.43,0,0,1,.71,0v-3c-.1,0-.3-.05-.51-.05a4,4,0,0,0-3.57,2,.18.18,0,0,1-.24.11h0a.34.34,0,0,1-.2-.24V54.74H71.64v13H74.5V62.1c0-2.88,1.5-4.64,3.82-4.64"/><rect class="cls-1" x="80.84" y="54.78" width="2.93" height="13"/><path class="cls-1" d="M92.26,54.48a6.64,6.64,0,0,0-6.89,6.85,6.74,6.74,0,0,0,1.9,4.89,6.81,6.81,0,0,0,4.94,1.91c1.62,0,2.87-.3,5.24-2.06l-1.62-1.71a6.18,6.18,0,0,1-3.32,1.15,4.18,4.18,0,1,1,0-8.36,5.17,5.17,0,0,1,3.27,1.15l1.82-1.71a7.26,7.26,0,0,0-5.34-2.11"/><path class="cls-1" d="M102.55,62.08a.2.2,0,0,1,.15,0h0a.42.42,0,0,1,.2.1l4.57,5.7H111l-5.94-7.21c-.1-.1,0-.25,0-.35l5.5-5.49H107l-4.74,4.74a.26.26,0,0,1-.25,0,.27.27,0,0,1-.15-.25V49.1H99.08V67.78H102v-5a.35.35,0,0,1,.1-.2Z"/><path class="cls-1" d="M115.75,68.13c2.37,0,4.74-1.42,4.74-4.14,0-1.76-1.1-3-3.42-3.78l-1.57-.51c-1-.36-1.56-.86-1.56-1.57s.71-1.31,1.71-1.31A2.73,2.73,0,0,1,118,58.53l2.32-1.27a5,5,0,0,0-4.64-2.81c-2.57,0-4.43,1.66-4.43,3.93,0,1.81,1.06,3,3.28,3.74l1.61.51c1.11.34,1.62.8,1.62,1.56,0,1.1-1,1.52-1.91,1.52a3,3,0,0,1-2.72-2L110.83,65a5,5,0,0,0,4.92,3.18"/><path class="cls-1" d="M37.66,68c.73,0,1.45-.07,2.17-.15V65.36a10,10,0,0,1-1.46.1c-1.15,0-2.06-.2-2.06-2.72V57.41a.24.24,0,0,1,.22-.25h2.84V54.79H36.56a.23.23,0,0,1-.25-.21V50.82H33.43v3.79a.23.23,0,0,1-.21.25h-2v2.37h2a.24.24,0,0,1,.25.23v6.07C33.48,68,36.51,68,37.66,68"/><path class="cls-1" d="M82.6,49.26a1.92,1.92,0,1,0,1.89,1.89h0a1.89,1.89,0,0,0-1.89-1.89"/></g></svg>