<svg id="Layer_1" data-name="Layer 1" xmlns="http://www.w3.org/2000/svg" viewBox="0 0 121 65"><defs><style>.cls-1{fill:#3c3c3b;}</style></defs><g id="A"><path class="cls-1" d="M66.27,9.63h1.3L71.3,5.9l.19-1.58A16.76,16.76,0,0,0,44.21,12.5a2,2,0,0,1,1.31-.08L53,11.19s.38-.63.58-.59a9.3,9.3,0,0,1,12.73-1Z"/><path class="cls-1" d="M76.62,12.5a16.8,16.8,0,0,0-5.07-8.17L66.32,9.57A9.26,9.26,0,0,1,69.73,17v.93a4.66,4.66,0,1,1,0,9.31H60.42l-.93.95v5.58l.93.93h9.31A12.11,12.11,0,0,0,76.62,12.5Z"/><path class="cls-1" d="M51.08,34.6H60.4V27.14H51.08a4.55,4.55,0,0,1-1.92-.42l-1.31.41L44.1,30.86l-.33,1.31A12.05,12.05,0,0,0,51.08,34.6Z"/><path class="cls-1" d="M51.08,10.4a12.12,12.12,0,0,0-7.31,21.73l5.4-5.41A4.66,4.66,0,0,1,53,18.23a4.72,4.72,0,0,1,2.33,2.33l5.4-5.41A12.13,12.13,0,0,0,51.08,10.4Z"/><path class="cls-1" d="M8.85,59.33A8.11,8.11,0,0,1,3,56.91,8.08,8.08,0,0,1,3,45.28a8.13,8.13,0,0,1,5.89-2.46,7.89,7.89,0,0,1,5.65,2.27l-1.59,1.62A5.73,5.73,0,0,0,8.85,45.1a5.66,5.66,0,0,0-4.19,1.79,6,6,0,0,0,0,8.42,6,6,0,0,0,8.35.1,4.73,4.73,0,0,0,1.22-2.78H8.88V50.35h7.57a6.46,6.46,0,0,1,.09,1.39A7.11,7.11,0,0,1,14.59,57,7.55,7.55,0,0,1,8.85,59.33Zm17.61-1.51a5.46,5.46,0,0,1-7.55,0,5.42,5.42,0,0,1,0-7.59,5.46,5.46,0,0,1,7.55,0,5.42,5.42,0,0,1,0,7.59Zm-5.88-1.49a2.89,2.89,0,0,0,4.08.13l.14-.13A3.24,3.24,0,0,0,25.69,54a3.2,3.2,0,0,0-.89-2.31,2.93,2.93,0,0,0-4.15-.08l-.09.08a3.43,3.43,0,0,0,0,4.62Zm17.5,1.49a5.47,5.47,0,0,1-7.56,0,5.45,5.45,0,0,1,0-7.59,5.47,5.47,0,0,1,7.56,0,5.45,5.45,0,0,1,0,7.59Zm-5.89-1.49a2.9,2.9,0,0,0,4.09.13l.13-.13a3.44,3.44,0,0,0,0-4.62,2.93,2.93,0,0,0-4.15-.08l-.09.08A3.24,3.24,0,0,0,31.28,54a3.21,3.21,0,0,0,.9,2.31ZM45.72,64.1a4.67,4.67,0,0,1-3-.95A5.37,5.37,0,0,1,41,61l2-.85a3.47,3.47,0,0,0,1,1.33,2.52,2.52,0,0,0,1.67.56,2.71,2.71,0,0,0,2.08-.8,3.31,3.31,0,0,0,.74-2.32v-.77h-.08a3.41,3.41,0,0,1-2.8,1.2,4.82,4.82,0,0,1-3.57-1.55,5.39,5.39,0,0,1,0-7.5,4.82,4.82,0,0,1,3.57-1.56,3.92,3.92,0,0,1,1.65.36,3.48,3.48,0,0,1,1.16.85h.08v-.85h2.21v9.5a5.55,5.55,0,0,1-1.42,4.15A5,5,0,0,1,45.72,64.1Zm.16-6.86a2.61,2.61,0,0,0,2-.89,3.3,3.3,0,0,0,.81-2.28,3.42,3.42,0,0,0-.81-2.33,2.61,2.61,0,0,0-2-.89,2.77,2.77,0,0,0-2.09.89,3.24,3.24,0,0,0-.89,2.31,3.17,3.17,0,0,0,.89,2.28A2.76,2.76,0,0,0,45.88,57.24ZM54.7,43.42V59H52.37V43.42Zm6.39,15.91a5.06,5.06,0,0,1-3.76-1.52,5.63,5.63,0,0,1,0-7.6,4.77,4.77,0,0,1,3.57-1.49,4.51,4.51,0,0,1,1.78.34A4.18,4.18,0,0,1,64,50,5.69,5.69,0,0,1,64.89,51a7.38,7.38,0,0,1,.53,1l.24.61-7.14,2.93a2.68,2.68,0,0,0,2.57,1.61,3,3,0,0,0,2.61-1.48L65.49,57a6,6,0,0,1-1.71,1.62A4.85,4.85,0,0,1,61.09,59.33Zm-3-5.47,4.75-2a1.67,1.67,0,0,0-.74-.81,2.42,2.42,0,0,0-1.23-.31,2.76,2.76,0,0,0-1.91.84A2.85,2.85,0,0,0,58.11,53.86Z"/><path class="cls-1" d="M77.85,59.33a7.35,7.35,0,0,1-7.47-7.22v-.3a7.34,7.34,0,0,1,7.18-7.52h.29a6.66,6.66,0,0,1,5.3,2.36l-1.29,1.24a4.83,4.83,0,0,0-4-1.82,5.47,5.47,0,0,0-4,1.58,6.18,6.18,0,0,0,0,8.32,5.48,5.48,0,0,0,4,1.59,5.66,5.66,0,0,0,4.46-2.09l1.29,1.28a7,7,0,0,1-2.47,1.89A7.6,7.6,0,0,1,77.85,59.33Z"/><path class="cls-1" d="M87.06,59H85.22V44.6h1.84Z"/><path class="cls-1" d="M90.08,50.34a5.17,5.17,0,0,1,7.28,0,5.62,5.62,0,0,1,0,7.49,5.07,5.07,0,0,1-8.71-3.74A5.22,5.22,0,0,1,90.08,50.34Zm1.37,6.33a3.1,3.1,0,0,0,4.4.12.49.49,0,0,0,.13-.12,4,4,0,0,0,0-5.17,3.12,3.12,0,0,0-4.41-.12l-.12.12a3.58,3.58,0,0,0-1,2.59,3.54,3.54,0,0,0,1,2.57Z"/><path class="cls-1" d="M109,59h-1.79V57.65h0a3.57,3.57,0,0,1-1.3,1.23,3.69,3.69,0,0,1-1.83.49,3.45,3.45,0,0,1-2.8-1.13,4.42,4.42,0,0,1-1-3V49.16h1.85v5.73c0,1.84.81,2.76,2.44,2.76a2.25,2.25,0,0,0,1.87-.9,3.35,3.35,0,0,0,.72-2.13V49.16H109Z"/><path class="cls-1" d="M115.29,59.33a4.29,4.29,0,0,1-3.3-1.51,5.74,5.74,0,0,1,0-7.47,4.36,4.36,0,0,1,3.3-1.51,4.18,4.18,0,0,1,2,.48,3.47,3.47,0,0,1,1.34,1.21h.08l-.08-1.37V44.6h1.84V59h-1.78V57.65h-.08a3.37,3.37,0,0,1-1.34,1.2A4.22,4.22,0,0,1,115.29,59.33Zm.3-1.68a3,3,0,0,0,2.23-1,4.23,4.23,0,0,0,0-5.19,3,3,0,0,0-4.26-.2,1.89,1.89,0,0,0-.2.2,4.16,4.16,0,0,0,0,5.17A2.92,2.92,0,0,0,115.59,57.65Z"/></g></svg>