<svg id="Layer_1" data-name="Layer 1" xmlns="http://www.w3.org/2000/svg" viewBox="0 0 121 80"><defs><style>.cls-1{fill:#201b18;}.cls-1,.cls-2,.cls-4{fill-rule:evenodd;}.cls-2,.cls-3{fill:#3c3c3b;}.cls-3{stroke:#201b18;stroke-miterlimit:10;stroke-width:0.1px;}.cls-4{fill:#ededed;}</style></defs><g id="A"><polyline class="cls-1" points="3.31 59.81 5.22 51.23 9.93 51.23 8.03 59.81"/><polyline class="cls-2" points="3.31 59.81 5.22 51.23 9.93 51.23 8.03 59.81"/><polyline class="cls-1" points="62.67 51.23 60.77 59.81 56.05 59.81 57.96 51.23"/><polyline class="cls-2" points="62.67 51.23 60.77 59.81 56.05 59.81 57.96 51.23"/><path class="cls-1" d="M68.12,60.93h6a1.42,1.42,0,0,1,1.43,1.83L74.45,68a2.43,2.43,0,0,1-2.24,1.84h-6A1.44,1.44,0,0,1,64.72,68l1.16-5.21a2.42,2.42,0,0,1,2.24-1.83m-2.21-4H78.14a2.7,2.7,0,0,1,2.7,3.47l-2.18,9.84a4.59,4.59,0,0,1-4.24,3.47H62.19a2.71,2.71,0,0,1-2.71-3.47l2.18-9.84A4.61,4.61,0,0,1,65.91,57Z"/><path class="cls-1" d="M88.29,60.93h6a1.43,1.43,0,0,1,1.44,1.83L94.62,68a2.43,2.43,0,0,1-2.24,1.84h-6A1.43,1.43,0,0,1,84.9,68l1.15-5.21a2.42,2.42,0,0,1,2.24-1.83m-2.21-4H98.31A2.71,2.71,0,0,1,101,60.45l-2.18,9.84a4.61,4.61,0,0,1-4.25,3.47H82.36a2.7,2.7,0,0,1-2.7-3.47l2.18-9.84A4.59,4.59,0,0,1,86.08,57Z"/><path class="cls-1" d="M106.63,60.93h6.87a1.43,1.43,0,0,1,1.44,1.83L113.78,68a2.43,2.43,0,0,1-2.24,1.84h-6.89M102.79,57h14.68a2.71,2.71,0,0,1,2.71,3.47L118,70.29a4.61,4.61,0,0,1-4.25,3.47H99.07Z"/><polyline class="cls-1" points="97.82 79.38 99.72 70.79 104.44 70.79 102.53 79.38"/><path class="cls-1" d="M53.87,69.68H47a1.44,1.44,0,0,1-1.43-1.84l1.15-5.21A2.45,2.45,0,0,1,49,60.79h6.88m1.87,12.84H43a2.7,2.7,0,0,1-2.7-3.47l2.18-9.85a4.6,4.6,0,0,1,4.24-3.47H61.43Z"/><path class="cls-1" d="M7.41,57H18.64a2.7,2.7,0,0,1,2.7,3.47l-1.59,7.19H15l1.08-4.88a1.43,1.43,0,0,0-1.43-1.83H7.72c-1,0-.11.82-.33,1.83L6.32,67.58H1.59l1.58-7.13A4.6,4.6,0,0,1,7.41,57"/><polyline class="cls-1" points="0.26 73.63 3.49 59.1 8.2 59.1 4.97 73.63"/><polyline class="cls-1" points="13.7 73.63 15.61 65.04 20.32 65.04 18.41 73.63"/><path class="cls-1" d="M26.35,69.68h8.36l.54-2.45H26.91a1.61,1.61,0,0,0-1.49,1.23,1,1,0,0,0,.93,1.22h0m12.2,3.95H22.85a2.7,2.7,0,0,1-2.7-3.47l.63-2.86h0l.13-.55a4.59,4.59,0,0,1,4.24-3.47h11l.16-.72a1.43,1.43,0,0,0-1.37-1.77H22.21l.87-3.95H38.86a2.71,2.71,0,0,1,2.64,3.47l-.3,1.34h0l-.36,1.63h0L39,71.64h0Z"/><path class="cls-2" d="M68.12,60.93h6a1.42,1.42,0,0,1,1.43,1.83L74.45,68a2.43,2.43,0,0,1-2.24,1.84h-6A1.44,1.44,0,0,1,64.72,68l1.16-5.21a2.42,2.42,0,0,1,2.24-1.83m-2.21-4H78.14a2.7,2.7,0,0,1,2.7,3.47l-2.18,9.84a4.59,4.59,0,0,1-4.24,3.47H62.19a2.71,2.71,0,0,1-2.71-3.47l2.18-9.84A4.61,4.61,0,0,1,65.91,57Z"/><path class="cls-2" d="M88.29,60.93h6a1.43,1.43,0,0,1,1.44,1.83L94.62,68a2.43,2.43,0,0,1-2.24,1.84h-6A1.43,1.43,0,0,1,84.9,68l1.15-5.21a2.42,2.42,0,0,1,2.24-1.83m-2.21-4H98.31A2.71,2.71,0,0,1,101,60.45l-2.18,9.84a4.61,4.61,0,0,1-4.25,3.47H82.36a2.7,2.7,0,0,1-2.7-3.47l2.18-9.84A4.59,4.59,0,0,1,86.08,57Z"/><path class="cls-2" d="M106.63,60.93h6.87a1.43,1.43,0,0,1,1.44,1.83L113.78,68a2.43,2.43,0,0,1-2.24,1.84h-6.89M102.79,57h14.68a2.71,2.71,0,0,1,2.71,3.47L118,70.29a4.61,4.61,0,0,1-4.25,3.47H99.07Z"/><polyline class="cls-2" points="97.82 79.38 99.72 70.79 104.44 70.79 102.53 79.38"/><path class="cls-2" d="M53.87,69.68H47a1.44,1.44,0,0,1-1.43-1.84l1.15-5.21A2.45,2.45,0,0,1,49,60.79h6.88m1.87,12.84H43a2.7,2.7,0,0,1-2.7-3.47l2.18-9.85a4.6,4.6,0,0,1,4.24-3.47H61.43Z"/><path class="cls-2" d="M7.41,57H18.64a2.7,2.7,0,0,1,2.7,3.47l-1.59,7.19H15l1.08-4.88a1.43,1.43,0,0,0-1.43-1.83H7.72c-1,0-.11.82-.33,1.83L6.32,67.58H1.59l1.58-7.13A4.6,4.6,0,0,1,7.41,57"/><polyline class="cls-2" points="0.26 73.63 3.49 59.1 8.2 59.1 4.97 73.63"/><polyline class="cls-2" points="13.7 73.63 15.61 65.04 20.32 65.04 18.41 73.63"/><path class="cls-2" d="M26.35,69.68h8.36l.54-2.45H26.91a1.61,1.61,0,0,0-1.49,1.23,1,1,0,0,0,.93,1.22h0m12.2,3.95H22.85a2.7,2.7,0,0,1-2.7-3.47l.63-2.86h0l.13-.55a4.59,4.59,0,0,1,4.24-3.47h11l.16-.72a1.43,1.43,0,0,0-1.37-1.77H22.21l.87-3.95H38.86a2.71,2.71,0,0,1,2.64,3.47l-.3,1.34h0l-.36,1.63h0L39,71.64h0Z"/><polygon class="cls-3" points="58.23 12.4 53.67 13.14 49.52 14.96 45.98 17.18 42.62 21.28 40.73 23.29 38.89 23.97 38.41 22.78 39.25 21.56 39.45 19.83 40.01 19.85 40.63 20.42 40.47 18.66 39.78 18.2 39.8 17.53 38.17 18.45 36.69 20.19 36.38 21.75 37.02 23 37.6 25.12 38.8 25.68 40.06 25.62 41.26 24.93 40.46 28.97 41.26 33.47 40.38 35.55 37.51 38.64 38.02 40.49 39.38 42.64 41.95 44.44 43.31 44.63 44.82 44.68 43.88 48.56 47.35 49.98 51.68 50.55 53.16 49.59 53.27 46.97 54.92 44.23 55.04 42.07 59.02 42.35 62.73 42.01 59.02 44.23 59.65 46.91 61.98 50.55 64.26 51.52 66.09 50.78 66.83 49.3 70.64 46.4 71.38 47.02 77.36 47.25 78.56 46.28 78.67 44.57 78.27 43.83 77.99 39.22 75.99 35.23 76.34 33.47 77.53 34.1 80.89 37.23 82.54 37.34 84.36 36.6 86.19 35.23 87.1 32.27 92.45 32.62 95.7 31.36 98.32 28.91 100.2 25.38 100.65 21.23 100.25 16.39 99.23 12.06 98.2 10.69 96.78 10.24 94.27 12.97 92 13.77 90 10.46 88.01 8.64 86.93 7.96 82.6 4.37 79.13 2.49 75.65 2.21 71.61 2.89 68.08 4.2 65.63 6.19 63.69 8.53 61.7 9.1 58.23 12.4"/><path class="cls-4" d="M35.16,23.26a9.16,9.16,0,0,1,3-6.67c-2.72,1.92-3.4,2.79-3,6.67M75.93,15a5.43,5.43,0,0,1,3.33-4.14C76.12,11.69,75.53,13,75.93,15Zm17.57-.17a3.61,3.61,0,0,0,2.26-.18,7.43,7.43,0,0,0,3.38-3.47,5.09,5.09,0,0,1-3.2,3.92C95,15.47,94.44,15.13,93.5,14.87ZM70,11.07a27.34,27.34,0,0,1-3.26,1,6.76,6.76,0,0,0-1.84,3.77c-.28-1.74-.33-2.06.44-3.36a3.6,3.6,0,0,0-.73.53c-1.08.92-2.49,4.56-3.06,5.86.36-1.57,1.48-5.48,2.63-6.62a2.31,2.31,0,0,1,2-.83C67.41,11.35,68.68,11.22,70,11.07Zm9.48,7.4a2.08,2.08,0,0,1-.21-.9,6.16,6.16,0,0,1-1.62,1c.78-.7,1.85-2.36,2.63-2.88s2.07-.48,3.1-1a6,6,0,0,1-1.26.82,2.16,2.16,0,0,1,1.19,1.08,2.38,2.38,0,0,1,.19.68A5.93,5.93,0,0,1,85.38,17a12.16,12.16,0,0,0-5.71,3.69,4.6,4.6,0,0,1,.69-1.25A2.06,2.06,0,0,1,79.43,18.47Zm12.9-4.86a1.64,1.64,0,0,1,.35.52l.15-.12c-.07-.14-.13-.27-.19-.41ZM42.46,35.27A28.56,28.56,0,0,0,46,42.85v0A2.84,2.84,0,0,1,45.62,44c-1,1.41-3.73-.66-4.51-1.45a5.44,5.44,0,0,1-1.55-2.85c-.09-.71,0-.72.49-1.22l2-2C42.17,36,42.32,35.66,42.46,35.27Zm.4-11.82c-.2.51-.38,1-.55,1.56,0,.09-.05.18-.08.27-1,.44-2.38.71-2.9-.37a10.54,10.54,0,0,1-.58-1.7c-1.69-1.76.84-4.08,2.22-4.91a8.28,8.28,0,0,0-.44,1.09c-.42,1.45.19,2.75-1.12,3.8.62,1.25.59,1.74,2,1.17A4.94,4.94,0,0,0,42.86,23.45Zm-1.7-3.61a.74.74,0,0,1,.64.32c0-.5-.13-.87-.48-1.07a2.17,2.17,0,0,1-.07.24A3.86,3.86,0,0,0,41.16,19.84ZM77.88,37c-.35,1.25-.82,2.43-1.25,3.79s-2.5,5-3.72,5.9a3.1,3.1,0,0,0,1.46.32c.55,0,2.73.06,3.28.06,1.2,0,1.66-.06,1.78-1.44a1.71,1.71,0,0,0-.33-1.38L79,41.13a5.83,5.83,0,0,0-.61-2.5A16.31,16.31,0,0,1,77.88,37ZM72,47.39c-1,.82-2.71,2.26-3,2.44-.6.89-.67,1.44-1.62,2-2.85,1.54-4.36-.25-6-2.84-.8-1.24-2.56-4.06-.69-5,.78-.41,1.37-.71,2-1.06a20.93,20.93,0,0,1-5.86-.05c0,.24.06.47.09.68a2.58,2.58,0,0,1-.42,2.3,9.35,9.35,0,0,0-1.12,2,5.8,5.8,0,0,1-.21,2.46c-.6,2.2-4.7,1-6.37.54-2-.54-4.89-1-3.71-3.64a12,12,0,0,0,.65-1.82c-1.76.78-4.2-.87-5.37-2a6.79,6.79,0,0,1-1.92-3.65c-.17-1.06,0-1.06.75-1.81l2.09-2.07L42,33.48a17,17,0,0,1-.24-1.7,18.43,18.43,0,0,1,.2-5.57,2.42,2.42,0,0,1-3.25-1,8.58,8.58,0,0,1-.56-1.73c-2.73-2.63,2.38-6.08,3.88-6.34-.17.48-.36.93-.52,1.37,1,.52.88,2,.67,3-.36-.46-.57-1.07-1.1-1.09-.08,1.09-.07,2.29-.92,2.93.25.67.24.67,1,.4a7.31,7.31,0,0,0,2.54-2.12,14.56,14.56,0,0,1,3.36-4.34c3.58-3.18,7-4.22,12.44-5.09.72-.76,1.48-1.49,2.28-2.2a4,4,0,0,1,2.84-1.22c1.71-2.29,3-3.88,5.84-5.06C76.29,1.2,80.32,1.09,85,5a42.49,42.49,0,0,0,4.58,3.69,7.87,7.87,0,0,1,2.13,1.71,10.74,10.74,0,0,1,2,3.22,6.54,6.54,0,0,0,1.85-1C96.24,12,96.7,11,97.37,10.3c.88-.89,2.89.18,3.34,1,1.51,2.9,2.13,8.24,1.81,11.42-.4,3.93-2,7.65-5.48,9.5a13.07,13.07,0,0,1-8.22.86c-.17.58-.35,1.15-.52,1.73a5.12,5.12,0,0,1-4.37,3.22c-1.73.08-2.66-.8-3.79-1.89l-1.78-1.71c0,.39-.08.76-.14,1.12.46.92.69,1.73,1.08,2.68A7,7,0,0,1,80,41.12c0,1,.05,2,.08,3A2.46,2.46,0,0,1,80.48,46c-.13,1.9-1.18,2.08-2.92,2.07-.58,0-2.77,0-3.33,0C73.12,47.94,72.39,47.85,72,47.39Zm-6.93-3.61c0-.33-.09-.67-.13-1a8.15,8.15,0,0,1,0-1.71c0-.59.09-1.17.14-1.76-.17.6-.52,1.19-.69,1.79-.07.24-.12.44-.16.61a20,20,0,0,1-7.66.1c-.16-.94-.36-1.93-.53-2.64-.05.79,0,3,0,4.21a3.14,3.14,0,0,1-.53,2.09,21.4,21.4,0,0,0-1.3,2.21,5.29,5.29,0,0,1-.16,2.1c-.35,1.28-4,.29-4.9,0-1.17-.32-3.59-.79-3-2.35a20.22,20.22,0,0,0,1.14-4.74,25.56,25.56,0,0,1-4.52-11.06,13.86,13.86,0,0,1,.51-6.48A16.54,16.54,0,0,1,47.9,18c3-2.65,5.85-3.72,10.27-4.39-1.07,1.19-2.12,2.45-3.27,3.8a18.74,18.74,0,0,0-2.58,4.24c-1,2.06-1,2.85.35,4.66A12.19,12.19,0,0,1,55,30.06a7.81,7.81,0,0,0-.71,2.77c1.42,1.56,2.48,2.63,3.86,3a5,5,0,0,0,3.7-.36c2.7-1.37,5.19-3.15,8.23-3.22a15.57,15.57,0,0,0,.59-9.69,48.22,48.22,0,0,1-.79-6.78,16.26,16.26,0,0,0-.26,6.9c.51,2.87.91,6.06-.51,8.58-2.75.22-5.1,1.89-7.58,3.17a4.09,4.09,0,0,1-3.13.26c-1-.28-1.72-1-2.82-2.22a5.54,5.54,0,0,1,.86-3c.94-1.85,2-3.58,3.12-5.4a51.89,51.89,0,0,0-3.82,4.78,11.78,11.78,0,0,0-2-3.15c-1-1.32-1.08-1.89-.35-3.41A15.25,15.25,0,0,1,55.94,18c2.15-2.32,4.12-4.91,6.47-7.19,1.28-1.24,1.79-1.2,3.49-1.46,1.53-.23,3-.52,4.58-.88-1.51.14-3,.19-4.44.22h0a10.23,10.23,0,0,1,4.63-3.9c5.78-2.51,9.45-2.78,14,1,1.18,1,2.21,1.94,3.4,2.8a4.22,4.22,0,0,0-1.3.31,5.45,5.45,0,0,1,1.92.11l.53.33A5,5,0,0,1,91.06,11a15.52,15.52,0,0,1,1.55,2.6c-.29-.11-.53-.2-.75-.26a1.73,1.73,0,0,0-.52-.14,1.71,1.71,0,0,0-1,.23l0,0a6.64,6.64,0,0,1-1.68.56,2,2,0,0,0,1.05,0l.11,0a1.57,1.57,0,0,0,0,1.56h0a.69.69,0,0,0,.17.26l-.68.28a10.75,10.75,0,0,1,3.1-.05c.07.33.14.68.2,1l-.39,0h0a2,2,0,0,0-1.81-.16c-2.3.53-1.76,1.82-2.82,3.76,1.1-1.34,1-2.75,2.81-3.17a2.93,2.93,0,0,1,1-.18,2.29,2.29,0,0,0-1.13,1.17c-.49,1.39-.18,2.56-.72,3.86.67-1.16.71-2.29,1.3-3.51a2.47,2.47,0,0,1,1.51-1.15h.4a9.82,9.82,0,0,1,.14,2.17,24,24,0,0,1-.56,3.54,10.83,10.83,0,0,0,1.15-3.59,10.36,10.36,0,0,0,0-4c-.33-1.78,1.51-1.49,2.57-2.33a28.06,28.06,0,0,0,2-2.31c.72-.69,1.84.33,2.12,1a25,25,0,0,1,1.45,10.54c-.36,3.33-2,7-4.9,8.6-3.74,2.08-8.16.81-11.87-.44a8.91,8.91,0,0,1-2-1.1,5.24,5.24,0,0,1,0,2.61c-.4,1.36-1,3.57.79,4a2.36,2.36,0,0,0,2-.37,3.76,3.76,0,0,1-1.76,0,1.14,1.14,0,0,1-.9-.78,3,3,0,0,0,.94.31,2.38,2.38,0,0,0,2.92-1.27,8,8,0,0,1,.44-1.6q.42.13.87.24l-.51,1.65a4,4,0,0,1-3.65,2.56c-1.39,0-2.28-.9-3.24-1.75l-1.93-1.72A14.44,14.44,0,0,1,74,31.31a8.32,8.32,0,0,0,3.52,2.77c-.24,2.37-1.06,4.09-1.76,6.36-.32,1-2.83,5.14-3.53,5.54-.49.28-3.6,2.9-4.18,3.24-.44.58-.82,1.38-1.47,1.73-2,1-3.28-1-4.35-2.67-.49-.78-1.84-3-.66-3.64a30.28,30.28,0,0,0,2.88-1.77C64.6,43.18,64.89,43.47,65.08,43.78Zm-30.62-23a6.27,6.27,0,0,1,1.43-3C34.51,18.71,34.34,19.1,34.46,20.77ZM63.71,6.48A9.16,9.16,0,0,1,69,1.37C65.73,2.17,64.78,2.73,63.71,6.48ZM64,3.9A6.3,6.3,0,0,1,66.4,1.61C64.77,2,64.46,2.3,64,3.9ZM82.39,29.08c.37-.19,1-.47,1.38-.66l-1.41.26c-1,.17-1.11.41-1.26,1.38-.07.46-.17,1-.25,1.5.2-.52.43-1.13.66-1.63S81.88,29.36,82.39,29.08Z"/></g></svg>