<svg id="Layer_1" data-name="Layer 1" xmlns="http://www.w3.org/2000/svg" viewBox="0 0 105.19 110.36"><defs><style>.cls-1,.cls-2{fill:#3c3c3b;}.cls-2{font-size:42.59px;font-family:SegoeUI-Bold, Segoe UI;font-weight:700;}.cls-3{letter-spacing:0em;}</style></defs><g id="A"><path class="cls-1" d="M64.91,38.39a9,9,0,0,0-6.73,3.06l-4.21-3a11.5,11.5,0,0,0,.7-3.94A11.39,11.39,0,0,0,54,30.65L58.2,27.7a8.87,8.87,0,1,0-1.89-3.38l-4.2,2.95a11.56,11.56,0,0,0-7.17-4.16V18a9,9,0,1,0-3.86,0v5.14a11.57,11.57,0,0,0,.09,22.81v5.42a9,9,0,1,0,3.85,0V45.94a11.64,11.64,0,0,0,7-4.1l4.24,3a8.78,8.78,0,0,0-.37,2.52,9,9,0,1,0,9-9Zm0-21a4.35,4.35,0,1,1-4.35,4.34A4.35,4.35,0,0,1,64.91,17.43ZM38.74,9.26a4.35,4.35,0,1,1,4.35,4.35A4.35,4.35,0,0,1,38.74,9.26Zm8.7,50.86a4.35,4.35,0,1,1-4.35-4.35A4.35,4.35,0,0,1,47.44,60.12ZM43.09,40.59a6.07,6.07,0,1,1,6.06-6.06A6.07,6.07,0,0,1,43.09,40.59ZM64.91,51.71a4.35,4.35,0,1,1,4.35-4.35A4.35,4.35,0,0,1,64.91,51.71Z"/><text class="cls-2" transform="translate(-2.47 109.73)">ka<tspan class="cls-3" x="46.73" y="0">f</tspan><tspan x="63.27" y="0">ka</tspan></text></g></svg>