<svg id="Layer_1" data-name="Layer 1" xmlns="http://www.w3.org/2000/svg" viewBox="0 0 120.64 95.21"><defs><style>.cls-1,.cls-2,.cls-3,.cls-4,.cls-7{fill:#3c3c3b;}.cls-1,.cls-6{fill-rule:evenodd;}.cls-3{fill-opacity:0.8;}.cls-4{fill-opacity:0.4;}.cls-5,.cls-6{fill:#575756;}.cls-5{fill-opacity:0.2;}.cls-7{font-size:16.26px;font-family:Roboto-Bold, Roboto;font-weight:700;}.cls-8{letter-spacing:-0.02em;}.cls-9{letter-spacing:-0.02em;}.cls-10{letter-spacing:0em;}</style></defs><g id="A"><path id="path824" class="cls-1" d="M27.7,49.77l-1,3.82a37.94,37.94,0,0,0-1.23,4.63,10.06,10.06,0,0,0,5.84,13,10.32,10.32,0,0,0,2.44.58,16.61,16.61,0,0,0,4.81-.06l8.24-1.14a5.22,5.22,0,0,0,4.32-3.8l5.67-20.83Z"/><path id="path826" class="cls-2" d="M35.74,50.75c-8.68,1.35-10.47,7.9-10.47,7.9l8.32-30.56L77.05,22.2,71.13,43.73A3.06,3.06,0,0,1,68.65,46l-.24,0-32.92,4.8.25,0Z"/><path id="path828" class="cls-3" d="M35.74,50.75c-8.68,1.35-10.47,7.9-10.47,7.9l8.32-30.56L77.05,22.2,71.13,43.73A3.06,3.06,0,0,1,68.65,46l-.24,0-32.92,4.8.25,0Z"/><path id="path830" class="cls-2" d="M40.67,31.25l48.12-7.11a2.86,2.86,0,0,0,2.36-2.09l5-18A2.85,2.85,0,0,0,93,.49L47.1,7.28a12.83,12.83,0,0,0-10.33,9.27l-6.62,24c1.33-4.85,2.14-7.78,10.52-9.29Z"/><path id="path832" class="cls-2" d="M40.67,31.25l48.12-7.11a2.86,2.86,0,0,0,2.36-2.09l5-18A2.85,2.85,0,0,0,93,.49L47.1,7.28a12.83,12.83,0,0,0-10.33,9.27l-6.62,24c1.33-4.85,2.14-7.78,10.52-9.29Z"/><path id="path834" class="cls-4" d="M40.67,31.25l48.12-7.11a2.86,2.86,0,0,0,2.36-2.09l5-18A2.85,2.85,0,0,0,93,.49L47.1,7.28a12.83,12.83,0,0,0-10.33,9.27l-6.62,24c1.33-4.85,2.14-7.78,10.52-9.29Z"/><path id="path836" class="cls-2" d="M40.67,31.25c-7,1.27-8.7,3.51-9.85,7L25.27,58.65s1.78-6.48,10.36-7.87L68.41,46l.24,0a3,3,0,0,0,2.48-2.22L76,26,40.67,31.26Z"/><path id="path838" class="cls-5" d="M40.67,31.25c-7,1.27-8.7,3.51-9.85,7L25.27,58.65s1.78-6.48,10.36-7.87L68.41,46l.24,0a3,3,0,0,0,2.48-2.22L76,26,40.67,31.26Z"/><path id="path840" class="cls-6" d="M35.63,50.78c-7.25,1.18-9.64,6-10.2,7.44a10.05,10.05,0,0,0,5.84,13,9.77,9.77,0,0,0,2.44.59,17,17,0,0,0,4.81-.07l8.24-1.14a5.22,5.22,0,0,0,4.32-3.8l5.17-19Z"/><text class="cls-7" transform="translate(0.2 94.88)">Mic<tspan class="cls-8" x="27.03" y="0">r</tspan><tspan x="32.67" y="0">osoft </tspan><tspan class="cls-9" x="74.78" y="0">F</tspan><tspan class="cls-10" x="83.42" y="0">abric</tspan></text></g></svg>