<svg id="Layer_1" data-name="Layer 1" xmlns="http://www.w3.org/2000/svg" viewBox="0 0 120.64 96.93"><defs><style>.cls-1{fill:#3c3c3b;}</style></defs><g id="A"><path class="cls-1" d="M32.37,51.73A3.77,3.77,0,0,1,28.6,48V37.34a3.77,3.77,0,1,1,7.53,0V48a3.77,3.77,0,0,1-3.76,3.77ZM44.48,55.8A3.77,3.77,0,0,1,40.71,52V33.28a3.77,3.77,0,1,1,7.53,0V52A3.76,3.76,0,0,1,44.48,55.8Zm12.11,4A3.77,3.77,0,0,1,52.82,56V29.27a3.77,3.77,0,1,1,7.53,0V56a3.76,3.76,0,0,1-3.76,3.77ZM88.34,16.11,35.82.37a3.57,3.57,0,0,0-4.91,3.3V30a7.18,7.18,0,0,1,2.92,0V3.69c0-.18,0-.59.64-.59a1.75,1.75,0,0,1,.51.08L87.51,18.93a2.83,2.83,0,0,1,2,2.31V54.92c0,.19,0,.59-.64.59a1.48,1.48,0,0,1-.51-.09L76.22,51.8v3l11.26,3.38a4.36,4.36,0,0,0,1.34.21,3.42,3.42,0,0,0,3.56-3.25v-34a5.74,5.74,0,0,0-4.07-5.11ZM68.7,64a3.76,3.76,0,0,1-3.76-3.77V25.1a3.76,3.76,0,1,1,7.52,0V60.22A3.76,3.76,0,0,1,68.7,64Z"/><path class="cls-1" d="M3.23,87.72v8.82H.49V73.21H6.9A8.43,8.43,0,0,1,12.69,75a6.58,6.58,0,0,1,2.05,5.14,7.1,7.1,0,0,1-2.28,5.44A8.73,8.73,0,0,1,6.3,87.72Zm0-12v9.57H6.09A6.35,6.35,0,0,0,10.41,84,4.58,4.58,0,0,0,11.9,80.3c0-3.08-1.83-4.62-5.47-4.62ZM25,96.93a7.76,7.76,0,0,1-5.9-2.33,8.65,8.65,0,0,1-2.2-6.19,8.92,8.92,0,0,1,2.29-6.56,8.26,8.26,0,0,1,6.18-2.38,7.41,7.41,0,0,1,5.82,2.3,9.11,9.11,0,0,1,2.09,6.34A8.93,8.93,0,0,1,31,94.5a7.86,7.86,0,0,1-6,2.39Zm.19-15.19a5,5,0,0,0-4.06,1.75,7.15,7.15,0,0,0-1.5,4.82A6.89,6.89,0,0,0,21.09,93a5.11,5.11,0,0,0,4.05,1.71,4.87,4.87,0,0,0,4-1.68,7.27,7.27,0,0,0,1.39-4.77,7.37,7.37,0,0,0-1.39-4.81,4.84,4.84,0,0,0-4-1.7Zm32.89-1.86-5,16.66H50.29L46.86,84.61a8.19,8.19,0,0,1-.26-1.55h-.06a7.78,7.78,0,0,1-.35,1.5L42.47,96.49H39.8l-5-16.65h2.8L41,92.37a7.07,7.07,0,0,1,.22,1.49h.14a6.67,6.67,0,0,1,.29-1.53l3.84-12.5h2.44l3.45,12.56a8.41,8.41,0,0,1,.24,1.5h.13a6.54,6.54,0,0,1,.28-1.5l3.38-12.56h2.64Zm16,9H62.28a6.33,6.33,0,0,0,1.49,4.29,5.11,5.11,0,0,0,3.92,1.49,8.14,8.14,0,0,0,5.17-1.85v2.5a9.61,9.61,0,0,1-5.81,1.6,7,7,0,0,1-5.54-2.27,9.28,9.28,0,0,1-2-6.39,9.05,9.05,0,0,1,2.2-6.33,7.06,7.06,0,0,1,5.48-2.45,6.26,6.26,0,0,1,5.06,2.11A8.85,8.85,0,0,1,74,87.46v1.4Zm-2.74-2.26A5.44,5.44,0,0,0,70.21,83a3.83,3.83,0,0,0-3-1.3A4.37,4.37,0,0,0,64,83.06a6.17,6.17,0,0,0-1.62,3.54Zm15.3-4a3.22,3.22,0,0,0-2-.54,3.42,3.42,0,0,0-2.85,1.61,7.43,7.43,0,0,0-1.15,4.4v8.49H77.93V79.88H80.6v3.43h.06a5.85,5.85,0,0,1,1.74-2.74,4,4,0,0,1,2.63-1,4.17,4.17,0,0,1,1.59.23v2.76ZM99,96.54V73.21h6.64a7.23,7.23,0,0,1,4.8,1.48,4.79,4.79,0,0,1,1.77,3.86,5.6,5.6,0,0,1-4,5.53v.06A6,6,0,0,1,112,85.92a5.48,5.48,0,0,1,1.42,3.92,6.12,6.12,0,0,1-2.15,4.85,8,8,0,0,1-5.42,1.85Zm2.73-20.85V83.2h2.8a5.3,5.3,0,0,0,3.53-1.08,3.78,3.78,0,0,0,1.31-3.05q0-3.41-4.48-3.4Zm0,10v8.39h3.74A5.65,5.65,0,0,0,109.2,93a3.87,3.87,0,0,0,1.31-3.12q0-4.14-5.63-4.14Zm18.76,10.86h-2.73V73.21h2.73Z"/></g></svg>