<svg id="Layer_1" data-name="Layer 1" xmlns="http://www.w3.org/2000/svg" viewBox="0 0 120.26 67.69"><defs><style>.cls-1{fill:#3c3c3b;}</style></defs><g id="A"><path id="Path" class="cls-1" d="M74.16,30,66,25.26a2.42,2.42,0,0,0-3.29.88,2.38,2.38,0,0,0-.31,1.44v9.24a2.4,2.4,0,0,0,4.79,0V31.51l4.59,2.64A2.4,2.4,0,1,0,74.16,30"/><path id="Path2" class="cls-1" d="M53.8,19.85a2.32,2.32,0,0,0-1.17-2.07l-8.19-4.73a2.28,2.28,0,0,0-1.17-.31,2.35,2.35,0,0,0-1.18,4.38l4.72,2.72-4.72,2.73a2.36,2.36,0,0,0-.86,3.21,2.37,2.37,0,0,0,2,1.17,2.28,2.28,0,0,0,1.17-.31l8.19-4.73a2.35,2.35,0,0,0,1.17-2.06"/><path id="Path3" class="cls-1" d="M46.3,9.7l8.19,4.73a2.4,2.4,0,0,0,2.88-.37,2.37,2.37,0,0,0,.78-1.76V2.83a2.4,2.4,0,0,0-4.8,0V8.22L48.7,5.54A2.4,2.4,0,1,0,46.3,9.7"/><path id="Combined-Shape" class="cls-1" d="M64.71,20.24a1,1,0,0,1-.23.56l-3.25,3.25a.9.9,0,0,1-.56.23h-.83a.93.93,0,0,1-.57-.23L56,20.8a.92.92,0,0,1-.24-.56v-.83a.89.89,0,0,1,.24-.56l3.24-3.25a.94.94,0,0,1,.57-.24h.83a.92.92,0,0,1,.56.24l3.25,3.25a.94.94,0,0,1,.23.56Zm-2.9-.4v0a.65.65,0,0,0-.17-.41l-1-1a.69.69,0,0,0-.41-.17h0a.71.71,0,0,0-.41.17l-1,1a.69.69,0,0,0-.17.41v0a.66.66,0,0,0,.17.41l1,1a.65.65,0,0,0,.41.17h0a.63.63,0,0,0,.41-.17l1-1A.61.61,0,0,0,61.81,19.84Z"/><path id="Path4" class="cls-1" d="M66,14.43,74.16,9.7a2.4,2.4,0,1,0-2.4-4.16L67.17,8.18V2.83a2.4,2.4,0,1,0-4.79,0v9.28A2.41,2.41,0,0,0,66,14.43"/><path id="Path5" class="cls-1" d="M56.13,25a2.38,2.38,0,0,0-1.64.28L46.3,30a2.4,2.4,0,0,0,2.4,4.16l4.65-2.68v5.35a2.4,2.4,0,0,0,4.8,0V27.35a2.4,2.4,0,0,0-2-2.37"/><path id="Path6" class="cls-1" d="M79.28,13.88A2.41,2.41,0,0,0,76,13l-8.18,4.73a2.4,2.4,0,0,0-1.21,2.12A2.43,2.43,0,0,0,67.81,22L76,26.69a2.41,2.41,0,0,0,2.41-4.17l-4.64-2.68,4.64-2.67a2.41,2.41,0,0,0,.88-3.29"/><path id="Combined-Shape2" class="cls-1" d="M120.26,59.94h0V60a.79.79,0,0,1-.83.78h-11.5a5.31,5.31,0,0,0,.11.8,5.42,5.42,0,0,0,5.2,4.36h1a4.92,4.92,0,0,0,2.45-.95h0l.12-.09,0,0,.1-.08,0,0,.09-.07,0,0,.07-.06.06-.06.06,0a.6.6,0,0,1,.08-.08s0,0,0,0l.08-.08,0,0,.08-.1a.08.08,0,0,0,0,0l.09-.09,0,0,.08-.1,0,0,.07-.09.06-.08,0-.07a.44.44,0,0,0,.08-.11l0,0c.06-.11.13-.21.2-.32h0l0-.07,0,0,0,0,0,0,0,0,0,0,.06,0,0,0,0,0,0,0,.06,0h0l.2,0a.83.83,0,0,1,.22,0h0l.08,0h0l.08,0h0a.89.89,0,0,1,.27,1.17h0l-.08.13,0,0A8,8,0,0,1,116.5,67a.2.2,0,0,0-.08,0h0a6.21,6.21,0,0,1-1.84.53h0l-.17,0h-1.12a7.24,7.24,0,0,1,0-14.47h.35a6.74,6.74,0,0,1,3.65,1.29h0l.17.13.1.07.08.07a7.42,7.42,0,0,1,2.62,5.18ZM108,59.17h10.41a5.29,5.29,0,0,0-10.41,0Z"/><path id="Combined-Shape3" class="cls-1" d="M90.85,53.42a.82.82,0,0,1,.24.5V66.81a.84.84,0,0,1-1.67,0v-1.7a6.75,6.75,0,0,1-1,1l0,0-.11.08a6.55,6.55,0,0,1-4,1.39,6.78,6.78,0,0,1-5.66-3.14l0,0-.11-.18a.41.41,0,0,0-.07-.11L78.3,64l-.11-.18s0,0,0-.06a7.42,7.42,0,0,1-.79-3c0-.12,0-.25,0-.37s0-.25,0-.37a7.43,7.43,0,0,1,.79-3s0,0,0-.06.07-.12.11-.18l.06-.12.07-.11c0-.06.07-.13.11-.18l0,0a6.77,6.77,0,0,1,5.66-3.15,6.6,6.6,0,0,1,4.29,1.6,6.45,6.45,0,0,1,.9.91V54a.28.28,0,0,1,0-.09.86.86,0,0,1,.23-.5h0a.1.1,0,0,0,0,0h0l0,0,0,0h0l0,0h0l.06,0h0a.44.44,0,0,1,.15-.05h.34a.44.44,0,0,1,.15.05h0l0,0h0l0,0h0l0,0,0,0h0s0,0,0,0ZM84.23,66A5.59,5.59,0,1,0,79,60.41v.28c0,.05,0,.08,0,.12s0,.11,0,.17,0,.08,0,.13,0,.1,0,.15,0,.07,0,.1l0,.17a.24.24,0,0,1,0,.08c0,.06,0,.13,0,.19s0,0,0,0A5.26,5.26,0,0,0,84.23,66Z"/><path id="Path7" class="cls-1" d="M69.9,47.14H69l-.19,0h0l-.2,0h0a4.34,4.34,0,0,0-1.14.35h0l-.15.08,0,0a.57.57,0,0,0-.13.08l0,0-.11.07-.07.06-.06.05-.11.1,0,0-.13.14,0,0-.1.12,0,0-.08.1s0,0,0,0a.83.83,0,0,0-.08.12v0A3.85,3.85,0,0,0,65.75,50a0,0,0,0,1,0,0l0,.2s0,0,0,.06,0,.12,0,.19a.34.34,0,0,0,0,.1.77.77,0,0,0,0,.15s0,.1,0,.16a.41.41,0,0,1,0,.11,1.85,1.85,0,0,1,0,.23V53H63.88a1,1,0,0,0-.31.05.81.81,0,0,0-.54.76.9.9,0,0,0,.41.76.8.8,0,0,0,.43.13h1.75V66.84s0,0,0,0v0a.81.81,0,0,0,.21.5h0s0,0,0,0h0l0,0,0,0h0a.84.84,0,0,0,.47.14h.08A.75.75,0,0,0,67,67.5h0l0,0h0l0,0a.83.83,0,0,0,.19-.56V54.68h1.88a.86.86,0,0,0,.84-.89h0s0,0,0-.06h0a.74.74,0,0,0-.22-.49h0l0,0,0,0,0,0,0,0,0,0-.06,0h0l-.06,0h0l-.06,0h0l-.06,0h-2v-1.4a1.48,1.48,0,0,0,0-.21v0c0-.06,0-.12,0-.18s0,0,0,0,0-.13,0-.2a3.54,3.54,0,0,1,.37-1.37h0l0-.06,0,0,0,0,0-.06a1.59,1.59,0,0,1,1.06-.46h1a.85.85,0,1,0,0-1.7"/><path id="Path8" class="cls-1" d="M74.4,47.16h0l0,0h-.28a.84.84,0,0,0-.84.83V66.81a.84.84,0,0,0,.84.83h.26a.83.83,0,0,0,.59-.71.19.19,0,0,0,0-.08V47.92a.25.25,0,0,0,0-.08.83.83,0,0,0-.51-.68"/><path id="Path9" class="cls-1" d="M10.4,63.2a.66.66,0,0,0,0-.14s0-.07,0-.1,0-.07,0-.11,0-.07,0-.11a.24.24,0,0,0,0-.08.61.61,0,0,0,0-.13.14.14,0,0,0,0-.06.5.5,0,0,0,0-.13.43.43,0,0,0,0-.05l-.06-.14a0,0,0,0,0,0,0,1,1,0,0,0-.07-.15h0a3.16,3.16,0,0,0-.83-1h0l-.15-.12h0L9,60.74a7.4,7.4,0,0,0-1.6-.81h0l0,0-1.21-.42h0l-.14,0-.07,0-.42-.14-.34-.11-.19-.06h0l-.13,0-.87-.3a5.81,5.81,0,0,1-1.06-.5h0a1.47,1.47,0,0,1-.75-1h0s0-.06,0-.09h0v-.24s0,0,0,0a.41.41,0,0,1,0-.11v0a.43.43,0,0,0,0-.11v0a.56.56,0,0,1,0-.12h0a2.28,2.28,0,0,1,1.11-1.22l.1-.06.1,0,.16-.07.09,0L3.9,55,4,55l.16-.05.1,0,.15,0,.11,0,.16,0h.09l.18,0h.57A4.08,4.08,0,0,1,7,55.14l.09,0,0,0,.12.07h0l.13.07h0l.14.09h0l.13.09,0,0,.39.31,0,0,.3.24,0,0h0l0,0,.08.05,0,0,.07,0h0l.08,0h0l.09,0H9a.45.45,0,0,0,.2,0h.12l.08,0h0l.08-.07h0l.06-.07,0-.06h0c.14-.25.06-.57-.2-.92v0l0,0a6.14,6.14,0,0,0-3.19-1.87h0l-.16,0H6l-.13,0H4.63l-.23,0h0l-.24,0h0l-.23,0h0l-.46.1h0l-.22.06-.2.07H3l-.19.07h0a1,1,0,0,0-.18.08h0l-.15.07,0,0-.15.07a.05.05,0,0,1,0,0L2.07,54l0,0-.17.11-.2.14h0A4,4,0,0,0,.89,55s0,0,0,0a.44.44,0,0,1-.08.11l-.05.08a.43.43,0,0,1,0,.07.61.61,0,0,0-.07.14h0a3.51,3.51,0,0,0-.34,1.33v0c0,.09,0,.18,0,.27v.26a2.85,2.85,0,0,0,1.31,2.32l0,0,.11.07.08,0s0,0,0,0a9.67,9.67,0,0,0,2.63,1l.87.25.07,0c.49.16.87.29,1.19.42l.07,0,0,0,.52.23.39.22a2.68,2.68,0,0,1,.76.67v0l0,.07s0,0,0,0l0,.05s0,0,0,.06l0,0a.25.25,0,0,0,0,.07v0l0,.08,0,0s0,.05,0,.08a0,0,0,0,1,0,0v.12a.49.49,0,0,1,0,.12,1.09,1.09,0,0,1,0,.18v.05a.68.68,0,0,1,0,.14.06.06,0,0,1,0,0,1.4,1.4,0,0,1-.1.35h0c0,.06-.05.11-.08.16h0a1.67,1.67,0,0,1-.21.33L8,64.93H8a3.73,3.73,0,0,1-.3.26h0l-.16.1,0,0-.29.16-.1,0-.13,0-.1,0-.28.1h0l-.16.05h0l-.54.12h0l-.25,0h-.9l-.2,0-.17,0-.15,0-.31-.05-.14,0-.16,0-.17,0-.12,0L3,65.61l-.07,0a6.21,6.21,0,0,1-.59-.26h0c-.13-.06-.34-.18-.54-.3L1.7,65l-.38-.21h0l-.08,0h0a.53.53,0,0,0-.2,0H.88a.5.5,0,0,0-.35.15l-.07.06a0,0,0,0,1,0,0l0,.05,0,0,0,0s0,0,0,0l0,0v0a.09.09,0,0,0,0,.05s0,0,0,0v.06a0,0,0,0,0,0,0v.06h0a.19.19,0,0,0,0,.08v0s0,0,0,.06v0s0,0,0,.06a0,0,0,0,0,0,0,1.26,1.26,0,0,0,.21.32,3.34,3.34,0,0,0,.38.34H1l.13.09s0,0,0,0a3.89,3.89,0,0,0,.4.25l.11.06.1,0,.14.08.09,0,.21.11h0l.24.11.1,0h0A8.09,8.09,0,0,0,5,67.64H5.5a5.74,5.74,0,0,0,3.32-1.06h0a3.77,3.77,0,0,0,1.59-3.06v-.23s0-.06,0-.08"/><path id="Path10" class="cls-1" d="M18.92,53.2h0A5.85,5.85,0,0,0,14.65,55V54a.83.83,0,0,0-.81-.84h-.08a.84.84,0,0,0-.51.24h0l0,.05h0l0,0,0,0v0a.1.1,0,0,0,0,0h0l0,.06a.75.75,0,0,0-.05.16h0s0,.06,0,.08V67l0,0a.2.2,0,0,0,0,.07h0a.09.09,0,0,0,0,.06.93.93,0,0,0,.54.43H14l.08,0h0a.66.66,0,0,0,.36-.27h0a.48.48,0,0,0,.12-.21s0,0,0,0h0l0-.12V59.11a4.32,4.32,0,0,1,4.26-4.24h0a4.24,4.24,0,0,1,4.24,4.23v7.71a.19.19,0,0,0,0,.08.76.76,0,0,0,.23.51h0l0,0,0,0,0,0,0,0,0,0,0,0h0l.06,0h0l.15,0h.34l.16,0,.06,0h0l.05,0s0,0,0,0l0,0,0,0s0,0,0,0l0,0h0a.76.76,0,0,0,.23-.51.19.19,0,0,0,0-.08V59.1a5.91,5.91,0,0,0-5.9-5.9"/><path id="Combined-Shape4" class="cls-1" d="M34,53.17a7.25,7.25,0,0,1,0,14.47h-.4l-.3,0h0a6.69,6.69,0,0,1-4-2,1.85,1.85,0,0,1-.14-.14h0L29,65.42l-.16-.18-.12-.14L28.67,65a1.88,1.88,0,0,1-.18-.24l0,0a7.34,7.34,0,0,1-1.29-3.21c0-.11,0-.22,0-.32s0,0,0,0,0-.2,0-.3v-.07c0-.12,0-.24,0-.36s0-.25,0-.36V60c0-.1,0-.2,0-.3a.06.06,0,0,0,0,0c0-.11,0-.21,0-.32a7.38,7.38,0,0,1,1.29-3.22l0,0a1.44,1.44,0,0,1,.18-.25,1,1,0,0,0,.08-.11l.13-.15.15-.16.08-.09h0l.13-.13a6.59,6.59,0,0,1,4-2h0l.3,0H34Zm5.17,6.67h0a5.86,5.86,0,0,0-1.41-3.26l-.1-.11-.07-.07-.12-.12-.12-.11a.46.46,0,0,0-.07-.07l-.18-.16h0a4.86,4.86,0,0,0-2.54-1.08h0l-.21,0h-.62l-.21,0h0a4.86,4.86,0,0,0-2.54,1.08h0l-.19.16a.46.46,0,0,0-.07.07l-.12.11-.12.12-.07.07-.09.11a5.76,5.76,0,0,0-1.41,3.26h0a1.94,1.94,0,0,0,0,.24s0,0,0,.05v.28A5.41,5.41,0,0,0,34,66a5.41,5.41,0,0,0,5.19-5.56v-.28s0,0,0-.05S39.13,59.92,39.13,59.84Z"/><path id="Path11" class="cls-1" d="M61,53.53s0,0,0,0a.93.93,0,0,0-.32-.24h0l0,0h0a.82.82,0,0,0-.35,0h0a.87.87,0,0,0-.6.41h0a.93.93,0,0,1,0,.1h0l-4,10.93-3.13-7.47a1.07,1.07,0,0,0-.13-.19.93.93,0,0,0-.7-.32h-.13a.92.92,0,0,0-.66.5h0l-3.14,7.46-1.52-4.13-2.5-6.8s0-.07,0-.11h0a.75.75,0,0,0-.35-.33h0a.88.88,0,0,0-.23-.07h-.4l-.05,0h0a.82.82,0,0,0-.34.3h0v0a.89.89,0,0,0-.11.35.74.74,0,0,0,0,.39l2.9,7.79,1.86,5h0a.63.63,0,0,0,.34.39h.06a.15.15,0,0,0,.1,0h.08a.82.82,0,0,0,.21,0h.11l.09,0h0a.2.2,0,0,0,.08,0h0l.06,0,0,0,0,0a.18.18,0,0,0,.07,0v0l.08-.07h0a.24.24,0,0,0,.06-.09.61.61,0,0,0,0-.12h0v0l3.14-7.52,3.18,7.54a.65.65,0,0,0,.11.22l0,0,0,.07,0,0,.06,0,0,0,.07.05h0l.09,0h0l.08,0,.1,0h.25l.1,0h0l.1,0h0l.11-.08a.94.94,0,0,0,.31-.4h0l2-5.28,2.77-7.44a.84.84,0,0,0-.09-.77l0,0"/><path id="Path12" class="cls-1" d="M105.32,53.77a.43.43,0,0,0,0-.05,0,0,0,0,0,0,0,.07.07,0,0,0,0,0,0,0,0,0,0,0,0,.08.08,0,0,0,0,0v0l0-.07h0a.7.7,0,0,0-.15-.19h0a.79.79,0,0,0-1-.1h0l0,0a.34.34,0,0,1-.06.06h0l-8.16,8V47.92a.25.25,0,0,0,0-.08.83.83,0,0,0-.51-.68h0l0,0h-.29a.84.84,0,0,0-.83.83V66.81a.84.84,0,0,0,.83.83h.27a.83.83,0,0,0,.59-.71.19.19,0,0,0,0-.08V63.62l2.75-2.74,5.34,6.44a.44.44,0,0,0,.12.15l0,0,0,0,0,0h0l.07,0h0l.08,0h0l.09,0h.28a.9.9,0,0,0,.28-.08h0l.12-.07h0a.87.87,0,0,0,.13-1.11l-.06-.09-5.43-6.59,5.39-5.21a.91.91,0,0,0,.25-.52h0v-.16"/></g></svg>