<?xml version="1.0" standalone="no"?>
<!DOCTYPE svg PUBLIC "-//W3C//DTD SVG 20010904//EN"
 "http://www.w3.org/TR/2001/REC-SVG-20010904/DTD/svg10.dtd">
<svg version="1.0" xmlns="http://www.w3.org/2000/svg"
 width="195.000000pt" height="56.000000pt" viewBox="0 0 195.000000 56.000000"
 preserveAspectRatio="xMidYMid meet">

<g transform="translate(0.000000,56.000000) scale(0.100000,-0.100000)"
fill="#000000" stroke="none">
<path d="M0 280 l0 -280 975 0 975 0 0 280 0 280 -975 0 -975 0 0 -280z m490
131 c0 -4 -16 -36 -35 -72 l-35 -66 31 -56 31 -57 -59 0 c-33 0 -65 -5 -72
-13 -11 -10 -13 -9 -9 3 4 12 -6 15 -53 15 -44 0 -58 -3 -54 -12 14 -36 15
-45 0 -20 -14 25 -20 27 -80 27 -36 0 -65 2 -65 5 0 3 14 30 31 61 l31 55 -32
61 c-26 49 -30 62 -19 69 16 10 389 10 389 0z m386 -95 c37 9 54 -11 54 -67 0
-27 -4 -49 -10 -49 -5 0 -10 20 -10 45 0 32 -5 47 -15 51 -25 10 -45 -16 -45
-57 0 -22 -4 -39 -10 -39 -6 0 -10 34 -10 83 0 85 12 128 18 63 3 -33 5 -36
28 -30z m254 -32 c0 -49 -4 -84 -10 -84 -6 0 -10 37 -10 91 0 57 4 88 10 84 6
-3 10 -44 10 -91z m-466 80 c26 -10 18 -23 -11 -21 -43 3 -42 -28 1 -54 44
-26 48 -60 11 -85 -29 -19 -75 -12 -75 11 0 12 5 12 25 3 19 -8 28 -8 40 2 22
19 19 28 -20 51 -45 27 -55 57 -25 81 24 20 30 21 54 12z m790 -66 l36 -63 0
63 c0 34 4 62 10 62 6 0 10 -33 10 -80 0 -101 -15 -105 -62 -18 l-33 62 -3
-62 c-4 -90 -22 -76 -22 18 0 101 15 105 64 18z m356 37 c0 -8 7 -15 15 -15 8
0 15 -4 15 -10 0 -5 -7 -10 -15 -10 -23 0 -20 -76 2 -89 23 -12 11 -25 -16
-16 -17 5 -21 15 -21 55 0 29 -5 51 -12 54 -10 5 -10 7 0 12 6 3 12 12 12 20
0 8 5 14 10 14 6 0 10 -7 10 -15z m-1013 -31 c2 -6 -8 -9 -25 -6 -25 3 -30 0
-36 -22 -12 -47 23 -83 52 -54 9 9 12 8 12 -4 0 -15 -19 -28 -41 -28 -5 0 -18
9 -29 20 -40 40 -13 114 39 108 13 -2 26 -8 28 -14z m263 0 c21 -25 16 -75 -9
-96 -30 -23 -46 -23 -71 2 -24 24 -26 67 -3 92 20 22 66 24 83 2z m188 -45 c3
-56 3 -56 -29 -63 -35 -7 -59 7 -59 33 0 24 20 41 47 41 14 0 23 6 23 15 0 11
-11 15 -36 15 -22 0 -33 4 -29 11 4 5 23 9 43 7 l37 -3 3 -56z m112 53 c0 -4
-10 -12 -22 -17 -18 -8 -24 -20 -26 -52 -5 -64 -22 -52 -22 15 l0 59 35 1 c19
1 35 -2 35 -6z m278 -4 c7 -7 12 -22 12 -35 0 -20 -5 -23 -40 -23 -28 0 -40
-4 -40 -14 0 -18 33 -30 60 -21 24 7 27 -10 4 -19 -49 -19 -84 7 -84 63 0 44
14 61 50 61 14 0 31 -5 38 -12z m112 2 c0 -5 -10 -9 -21 -7 -31 3 -35 -21 -5
-34 14 -7 27 -18 30 -25 15 -39 -42 -70 -72 -40 -16 15 -14 16 16 10 40 -8 45
15 7 40 -24 16 -33 45 -18 59 10 11 63 8 63 -3z"/>
<path d="M141 348 c12 -24 22 -44 23 -45 1 -2 12 18 24 42 l22 45 -45 0 -45 0
21 -42z"/>
<path d="M194 337 l-26 -53 26 -53 27 -52 71 3 72 3 19 48 c19 46 19 50 3 85
-13 30 -13 33 -1 18 8 -11 15 -23 15 -28 0 -21 18 -4 38 37 l21 44 -120 0
-119 1 -26 -53z m85 -9 c-4 -33 2 -68 12 -68 7 0 9 11 6 26 -3 17 -1 22 5 16
12 -12 2 -82 -12 -82 -5 0 -11 8 -13 18 -14 48 -16 72 -11 86 7 19 16 21 13 4z"/>
<path d="M134 222 l-20 -47 43 4 c24 1 43 5 43 7 0 6 -40 84 -43 84 -1 0 -11
-22 -23 -48z"/>
<path d="M391 221 c-12 -22 -21 -42 -21 -43 0 -2 20 -4 45 -4 l44 -1 -21 41
c-11 22 -22 43 -24 44 -1 2 -12 -14 -23 -37z"/>
<path d="M991 286 c-16 -19 -7 -64 14 -73 25 -9 46 17 43 51 -3 35 -36 48 -57
22z"/>
<path d="M1184 239 c-9 -15 12 -33 30 -26 9 4 16 13 16 22 0 17 -35 21 -46 4z"/>
<path d="M1582 298 c-19 -19 -14 -28 18 -28 32 0 37 9 18 28 -15 15 -21 15
-36 0z"/>
</g>
</svg>
