<svg width="64" height="64" viewBox="0 0 64 64" fill="none" xmlns="http://www.w3.org/2000/svg">
<path d="M62 52C60.8 52 60 51.2 60 50V24C60 22.8 60.8 22 62 22C63.2 22 64 22.8 64 24V50C64 51.2 63.2 52 62 52Z" fill="black"/>
<path d="M32 41.9984C31.6 41.9984 31.4 41.9984 31 41.7984L1 25.7984C0.4 25.3984 0 24.7984 0 23.9984C0 23.1984 0.4 22.5984 1 22.1984L31 6.19844C31.6 5.79844 32.2 5.79844 32.8 6.19844L62.8 22.1984C63.4 22.5984 63.8 23.1984 63.8 23.9984C63.8 24.7984 63.4 25.3984 62.8 25.7984L32.8 41.7984C32.6 41.9984 32.4 41.9984 32 41.9984Z" fill="black"/>
<path d="M34.8 45.2031C34 45.8031 33 46.0031 32 46.0031C31 46.0031 30 45.8031 29.2 45.2031L12 36.2031V44.0031C12 50.2031 21.8 56.0031 32 56.0031C42.2 56.0031 52 50.2031 52 44.0031V36.2031L34.8 45.2031Z" fill="black"/>
</svg>
