<svg width="64" height="64" viewBox="0 0 64 64" fill="none" xmlns="http://www.w3.org/2000/svg">
<path d="M22.6895 5.33596H41.3032C41.9232 5.3358 42.3984 5.33569 42.8138 5.37633C45.768 5.66532 48.1861 7.44148 49.2114 9.83401H14.7812C15.8066 7.44148 18.2246 5.66532 21.1788 5.37633C21.5943 5.33569 22.0696 5.3358 22.6895 5.33596Z" fill="black"/>
<path d="M16.8246 12.5938C13.1163 12.5938 10.0756 14.8331 9.06083 17.8039C9.03968 17.8658 9.01939 17.928 9 17.9906C10.0617 17.6691 11.1667 17.459 12.2853 17.3156C15.1663 16.9463 18.8072 16.9464 23.0366 16.9467H41.4155C45.6448 16.9464 49.2859 16.9463 52.167 17.3156C53.2854 17.459 54.3904 17.6691 55.452 17.9906C55.4328 17.928 55.4126 17.8658 55.3912 17.8039C54.3766 14.8331 51.3358 12.5938 47.6275 12.5938H16.8246Z" fill="black"/>
<path fill-rule="evenodd" clip-rule="evenodd" d="M40.8762 20.1094H23.129C14.1295 20.1094 9.62972 20.1094 7.10212 22.7409C4.57452 25.3725 5.16922 29.4381 6.35863 37.5695L7.48655 45.2802C8.4193 51.657 8.88567 54.8453 11.2782 56.7546C13.6707 58.6639 17.1994 58.6639 24.2568 58.6639H39.7482C46.8058 58.6639 50.3346 58.6639 52.7271 56.7546C55.1197 54.8453 55.5858 51.657 56.5186 45.2802L57.6466 37.5695C58.8359 29.4383 59.4306 25.3724 56.9031 22.7409C54.3754 20.1094 49.8757 20.1094 40.8762 20.1094ZM38.8858 42.1151C40.3749 41.1922 40.3749 38.8023 38.8858 37.8794L29.8949 32.3055C28.4477 31.4085 26.6693 32.5762 26.6693 34.4237V45.5709C26.6693 47.4183 28.4477 48.5861 29.8949 47.689L38.8858 42.1151Z" fill="black"/>
</svg>
