<svg width="64" height="64" viewBox="0 0 64 64" fill="none" xmlns="http://www.w3.org/2000/svg">
<g clip-path="url(#clip0_2045_62)">
<path fill-rule="evenodd" clip-rule="evenodd" d="M48.9405 0V18.3715L28.009 39.303C26.9549 40.3571 26.3526 41.7876 26.3526 43.2935V56.4698H39.5288C41.0347 56.4698 42.4653 55.8674 43.5194 54.8133L48.9405 49.3922V63.9991H0V0H48.9405ZM53.2547 19.3767C53.9926 18.6388 55.1822 18.6388 55.9201 19.3767L63.4494 26.906C64.1835 27.6401 64.1835 28.8297 63.4494 29.5676L40.8615 52.1555C40.5076 52.5056 40.0295 52.7051 39.5288 52.7051H30.1172V43.2935C30.1172 42.7928 30.3167 42.3147 30.6669 41.9646L53.2547 19.3767ZM22.5879 37.6465H11.294V41.4112H22.5879L22.5879 37.6465ZM30.1172 30.1172H11.2939V33.8819H30.1172V30.1172H30.1172ZM54.5874 23.3672L51.6021 26.3525L56.4697 31.2202L59.4551 28.2349L54.5874 23.3672ZM37.6465 11.294H11.294V22.5879H37.6465V11.294L37.6465 11.294Z" fill="black"/>
</g>
<defs>
<clipPath id="clip0_2045_62">
<rect width="64" height="64" fill="white"/>
</clipPath>
</defs>
</svg>
