<svg width="64" height="64" viewBox="0 0 64 64" fill="none" xmlns="http://www.w3.org/2000/svg">
<g clip-path="url(#clip0_2045_64)">
<path d="M53.3333 7.9974H48V5.33073C48 4.62349 47.7191 3.94521 47.219 3.44511C46.7189 2.94501 46.0406 2.66406 45.3333 2.66406H17.3333C16.6261 2.66406 15.9478 2.94501 15.4477 3.44511C14.9476 3.94521 14.6667 4.62349 14.6667 5.33073V7.9974H10.6667C9.95942 7.9974 9.28115 8.27835 8.78105 8.77844C8.28095 9.27854 8 9.95682 8 10.6641V58.6641C8 59.3713 8.28095 60.0496 8.78105 60.5497C9.28115 61.0498 9.95942 61.3307 10.6667 61.3307H53.3333C54.0406 61.3307 54.7189 61.0498 55.219 60.5497C55.7191 60.0496 56 59.3713 56 58.6641V10.6641C56 9.95682 55.7191 9.27854 55.219 8.77844C54.7189 8.27835 54.0406 7.9974 53.3333 7.9974ZM33.8667 47.1974C33.3743 47.6998 32.7034 47.9874 32 47.9974H21.3333C20.6261 47.9974 19.9478 47.7164 19.4477 47.2163C18.9476 46.7163 18.6667 46.038 18.6667 45.3307C18.6991 44.6339 18.9905 43.9744 19.4837 43.4811C19.977 42.9879 20.6365 42.6965 21.3333 42.6641H32C32.7072 42.6641 33.3855 42.945 33.8856 43.4451C34.3857 43.9452 34.6667 44.6235 34.6667 45.3307C34.6566 46.0341 34.3691 46.705 33.8667 47.1974ZM44.5333 36.5307C44.041 37.0332 43.3701 37.3207 42.6667 37.3307H21.3333C20.6261 37.3307 19.9478 37.0498 19.4477 36.5497C18.9476 36.0496 18.6667 35.3713 18.6667 34.6641C18.6991 33.9673 18.9905 33.3077 19.4837 32.8145C19.977 32.3212 20.6365 32.0299 21.3333 31.9974H42.6667C43.3739 31.9974 44.0522 32.2783 44.5523 32.7784C45.0524 33.2785 45.3333 33.9568 45.3333 34.6641C45.3233 35.3674 45.0358 36.0384 44.5333 36.5307ZM44.5333 25.8641C44.041 26.3665 43.3701 26.654 42.6667 26.6641H21.3333C20.6261 26.6641 19.9478 26.3831 19.4477 25.883C18.9476 25.3829 18.6667 24.7046 18.6667 23.9974C18.6991 23.3006 18.9905 22.641 19.4837 22.1478C19.977 21.6546 20.6365 21.3632 21.3333 21.3307H42.6667C43.3739 21.3307 44.0522 21.6117 44.5523 22.1118C45.0524 22.6119 45.3333 23.2901 45.3333 23.9974C45.3233 24.7008 45.0358 25.3717 44.5333 25.8641Z" fill="black"/>
</g>
<defs>
<clipPath id="clip0_2045_64">
<rect width="64" height="64" fill="white"/>
</clipPath>
</defs>
</svg>
