<svg width="64" height="64" viewBox="0 0 64 64" fill="none" xmlns="http://www.w3.org/2000/svg">
<g clip-path="url(#clip0_2045_85)">
<path d="M59.8488 41.6665C58.3149 40.7782 56.4355 41.0515 55.1962 42.194L45.7536 36.7422C44.7681 37.0581 43.6511 37.3219 42.4141 37.5432L54.0155 44.2419C53.647 45.8867 54.3493 47.6474 55.8832 48.5357C57.7779 49.6297 60.2059 48.9777 61.2999 47.0827C62.3953 45.1844 61.7439 42.7603 59.8488 41.6665Z" fill="black"/>
<path d="M33.1854 56.2715V38.3125H30.8231V56.2715C29.2153 56.7776 28.0391 58.2612 28.0391 60.0378C28.0391 62.2253 29.8166 64.0016 32.005 64.0016C34.1935 64.0016 35.9723 62.2253 35.9723 60.0378C35.9704 58.2612 34.7929 56.7776 33.1854 56.2715Z" fill="black"/>
<path d="M18.1257 36.8203L8.807 42.2004C7.56389 41.0599 5.69142 40.7847 4.15433 41.673C2.25956 42.7667 1.60791 45.1889 2.70451 47.0875C3.80016 48.9842 6.22554 49.632 8.12031 48.5383C9.65549 47.6541 10.3565 45.8893 9.98896 44.2449L21.5088 37.5943C20.2581 37.3825 19.1245 37.1267 18.1257 36.8203Z" fill="black"/>
<path d="M48.1575 30.9405C48.1575 26.3926 42.9214 20.2564 35.85 18.4651C38.8076 16.4754 40.8441 12.5547 40.8441 9.0241C40.8444 4.03892 36.8026 0 31.821 0C26.8396 0 22.7988 4.03892 22.7988 9.0241C22.7988 12.5547 24.8343 16.4754 27.791 18.4651C20.7209 20.2561 15.4844 26.3942 15.4844 30.9405C15.4828 36.3136 48.1575 36.3136 48.1575 30.9405ZM31.0957 21.0803H31.054L29.559 19.3649C30.2813 19.6248 31.0368 19.7802 31.8194 19.7802C32.601 19.7802 33.3542 19.6251 34.0779 19.3671L32.5815 21.0826H32.5439L36.3975 30.3965L31.8194 34.9715L27.2412 30.3965L31.0957 21.0803Z" fill="black"/>
</g>
<defs>
<clipPath id="clip0_2045_85">
<rect width="64" height="64" fill="white"/>
</clipPath>
</defs>
</svg>
