<svg width="64" height="64" viewBox="0 0 64 64" fill="none" xmlns="http://www.w3.org/2000/svg">
<path d="M59.2001 7.895L34.5188 0.365875C33.7223 0.12325 32.8743 0 31.9989 0C31.1233 0 30.2753 0.12325 29.4788 0.365875L4.79706 7.895C4.36494 8.028 4.08594 8.33363 4.08594 8.67625C4.08594 9.01875 4.36494 9.3245 4.79731 9.4575L16.2224 12.9425V22.596C16.2253 27.5872 17.9222 32.3815 21.0004 36.0936C22.4797 37.8754 24.1822 39.2904 26.0608 40.2977C28.0534 41.3682 30.1194 41.9108 32.2013 41.9108C34.2821 41.9108 36.3483 41.3682 38.3421 40.2977C41.1667 38.7799 43.5971 36.342 45.3703 33.249C47.2077 30.0386 48.1792 26.3546 48.1801 22.596V12.8193L53.8356 11.0938V19.1178C53.0606 19.2157 52.4597 19.8796 52.4597 20.6803C52.4597 21.377 52.9158 21.9808 53.5687 22.1816L52.3692 30.096C52.3398 30.293 52.3971 30.492 52.5269 30.6443C52.6572 30.7948 52.8462 30.882 53.0454 30.882H57.5796C57.7786 30.882 57.9676 30.7946 58.0981 30.6432C58.2276 30.4929 58.2851 30.2929 58.2558 30.095L57.0563 22.1816C57.7092 21.9808 58.1653 21.3771 58.1653 20.6803C58.1653 19.8796 57.5641 19.2157 56.7889 19.1178V10.193L59.2004 9.45737C59.6326 9.32437 59.9118 9.01775 59.9118 8.67612C59.9117 8.33462 59.6324 8.02787 59.2001 7.895ZM32.2013 37.2339C30.8997 37.2339 29.5771 36.8786 28.2703 36.177C26.2461 35.0959 24.4068 33.2315 23.0906 30.9256C22.4838 29.8659 21.9911 28.7129 21.6244 27.495C29.2341 26.148 33.9382 21.3226 36.5918 17.3738C37.8721 19.9708 40.0494 23.218 43.3702 24.7048C42.9801 27.8277 41.7167 30.8063 39.8037 33.1063C38.7267 34.4067 37.4571 35.4685 36.1318 36.1779C34.8246 36.8786 33.5019 37.2339 32.2013 37.2339Z" fill="black"/>
<path d="M46.7229 39.2819L46.5974 39.2033L32.7808 51.3625L18.9639 39.2031L18.8384 39.2817C14.2318 42.1612 9.33594 49.9882 9.33594 58.8225V58.9419L9.44169 58.9981C9.53606 59.0487 19.0532 64.0031 32.7808 64.0031C46.5082 64.0031 56.0256 59.0487 56.1198 58.9984L56.2256 58.9421V58.8228C56.2257 49.9882 51.3296 42.1613 46.7229 39.2819Z" fill="black"/>
</svg>
