<svg width="64" height="64" viewBox="0 0 64 64" fill="none" xmlns="http://www.w3.org/2000/svg">
<g clip-path="url(#clip0_2045_55)">
<path d="M30.065 11.1328C33.1342 11.1328 35.6313 8.63572 35.6313 5.56648C35.6313 2.4971 33.1342 0 30.065 0C26.9964 0 24.5 2.4971 24.5 5.56634C24.5 8.63572 26.9964 11.1328 30.065 11.1328Z" fill="black"/>
<path d="M53.6138 25.0192L49.6003 21.0059C49.3713 20.7769 49.0658 20.6507 48.7403 20.6507C48.4147 20.6507 48.1093 20.7769 47.8803 21.0059L46.7051 22.181C46.6568 22.1246 46.6087 22.0684 46.5557 22.0153C46.0525 21.5119 45.3843 21.2234 44.6622 21.1875C44.6193 21.1133 44.5729 21.0403 44.521 20.9697L42.6091 18.363C42.0576 17.6112 41.0772 16.6248 40.3282 16.0688L35.2615 12.3076C35.0998 12.1884 34.5583 11.8438 33.9743 11.8438C33.9743 11.8438 26.8454 11.8454 26.8316 11.8458C26.0039 11.8637 25.3987 12.3131 24.9841 13.2203L22.8005 17.9965C22.7543 18.0551 22.6247 18.1615 22.5583 18.1954L18.1081 19.2541C17.496 19.3998 16.9771 19.775 16.6473 20.3107C16.3175 20.8465 16.2162 21.4788 16.3617 22.0907C16.6153 23.157 17.5568 23.9016 18.6513 23.9016C18.8342 23.9016 19.0184 23.8799 19.1983 23.8371L23.6912 22.7683C25.0836 22.4371 26.4716 21.2966 27.0667 19.995L27.2525 19.5886L28.4634 24.3444L25.3318 27.0644C24.118 28.1185 23.4946 29.9552 23.8159 31.5308L25.2675 38.6428C25.5026 39.7945 26.5251 40.6303 27.6986 40.6302C27.8651 40.6302 28.033 40.6131 28.1977 40.5796C29.5395 40.3056 30.4082 38.9913 30.1344 37.6495L28.7167 30.7037L31.9553 27.8907C32.0413 27.8159 32.1184 27.7353 32.1915 27.6519H34.5742L36.1797 33.6422C36.412 34.5089 36.909 35.7568 37.3357 36.5448L40.8607 43.0555C41.2957 43.8583 42.1333 44.3571 43.0469 44.3571C43.0916 44.3571 43.1366 44.3558 43.1813 44.3535C43.5489 44.3333 43.9011 44.2338 44.2271 44.0571C45.4314 43.4051 45.8808 41.895 45.2289 40.6906L41.7035 34.1797C41.4576 33.7253 41.1114 32.8561 40.9771 32.3549L37.6093 19.9209C37.9897 20.2259 38.5547 20.8011 38.8098 21.1491L40.7216 23.7558C40.887 23.9811 41.0897 24.1726 41.3183 24.3239C41.3043 25.1241 41.5974 25.8669 42.1505 26.4201C42.2034 26.473 42.2595 26.5216 42.3159 26.5697L41.141 27.7446C40.6667 28.2188 40.6667 28.9906 41.141 29.4648L45.1542 33.4781C45.3833 33.7071 45.6887 33.8333 46.0142 33.8333H46.0144C46.3397 33.8333 46.6451 33.7071 46.8742 33.4781L53.6133 26.7393C54.0881 26.2651 54.0881 25.4934 53.6138 25.0192ZM43.1727 25.398C42.9841 25.2094 42.858 24.9729 42.7994 24.7114C43.2383 24.6789 43.6551 24.5255 44.0143 24.2622C44.5467 23.8718 44.8659 23.298 44.9513 22.6908C45.1717 22.7577 45.3708 22.8749 45.5333 23.0374C45.5866 23.0907 45.6334 23.1488 45.6768 23.209L43.3442 25.5416C43.284 25.4981 43.2259 25.4512 43.1727 25.398Z" fill="black"/>
<path d="M19.5764 36.1797H11.4687C10.6803 36.1797 10.0391 36.821 10.0391 37.6092V62.5677C10.0391 63.3559 10.6803 63.9972 11.4687 63.9972H19.5764C20.3648 63.9972 21.0061 63.3559 21.0061 62.5677V37.6092C21.0061 36.821 20.3648 36.1797 19.5764 36.1797Z" fill="black"/>
<path d="M32.4593 41.5938H24.3515C23.5632 41.5938 22.9219 42.235 22.9219 43.0232V62.5718C22.9219 63.36 23.5632 64.0013 24.3515 64.0013H32.4593C33.2476 64.0013 33.8889 63.36 33.8889 62.5718V43.0232C33.8889 42.235 33.2475 41.5938 32.4593 41.5938Z" fill="black"/>
<path d="M45.3416 45.2031H37.2343C36.446 45.2031 35.8047 45.8444 35.8047 46.6326V62.5715C35.8047 63.3597 36.446 64.001 37.2343 64.001H45.3416C46.13 64.001 46.7714 63.3597 46.7714 62.5715V46.6326C46.7714 45.8444 46.13 45.2031 45.3416 45.2031Z" fill="black"/>
</g>
<defs>
<clipPath id="clip0_2045_55">
<rect width="64" height="64" fill="white"/>
</clipPath>
</defs>
</svg>
