<svg width="64" height="64" viewBox="0 0 64 64" fill="none" xmlns="http://www.w3.org/2000/svg">
<path d="M14 56H6C4.8 56 4 55.2 4 54C4 52.8 4.8 52 6 52H14C15.2 52 16 52.8 16 54C16 55.2 15.2 56 14 56Z" fill="black"/>
<path d="M18 60C14.6 60 12 57.4 12 54C12 50.6 14.6 48 18 48C21.4 48 24 50.6 24 54C24 57.4 21.4 60 18 60Z" fill="black"/>
<path d="M57.9969 52H27.7969C27.9969 52.6 27.9969 53.4 27.9969 54C27.9969 54.6 27.9969 55.4 27.7969 56H57.9969C59.1969 56 59.9969 55.2 59.9969 54C59.9969 52.8 59.1969 52 57.9969 52Z" fill="black"/>
<path d="M52 6H12C6.4 6 2 10.4 2 16V36C2 41.6 6.4 46 12 46H52C57.6 46 62 41.6 62 36V16C62 10.4 57.6 6 52 6ZM40.2 29.4L30.2 35.4C29.6 35.8 28.8 36 28.2 36C27.6 36 26.8 35.8 26.2 35.4C25 34.6 24.2 33.4 24.2 32V20C24.2 18.6 25 17.4 26.2 16.6C27.4 15.8 29 16 30.2 16.6L40.2 22.6C41.4 23.4 42 24.6 42 26C42 27.4 41.2 28.6 40.2 29.4Z" fill="black"/>
</svg>
