<svg width="40" height="40" viewBox="0 0 40 40" fill="none" xmlns="http://www.w3.org/2000/svg">
<path d="M10.8696 31.3261C8.64982 31.3261 6.52099 30.4443 4.95139 28.8747C3.38179 27.3051 2.5 25.1763 2.5 22.9565C2.5 20.7368 3.38179 18.6079 4.95139 17.0383C6.52099 15.4687 8.64982 14.587 10.8696 14.587C12.3913 11.0109 15.8913 8.5 20 8.5C25.2196 8.5 29.4957 12.5478 29.8913 17.6761L30.6522 17.6304C34.4565 17.6304 37.5 20.6739 37.5 24.4783C37.5 28.2826 34.4565 31.3261 30.6522 31.3261H10.8696ZM10.8696 16.1087C7.06522 16.1087 4.02174 19.1522 4.02174 22.9565C4.02174 26.7609 7.06522 29.8043 10.8696 29.8043H30.6522C32.0647 29.8043 33.4195 29.2432 34.4183 28.2444C35.4171 27.2455 35.9783 25.8908 35.9783 24.4783C35.9783 23.0657 35.4171 21.711 34.4183 20.7121C33.4195 19.7133 32.0647 19.1522 30.6522 19.1522C29.8 19.1522 28.9783 19.35 28.263 19.7152L28.3696 18.3913C28.3696 16.1716 27.4878 14.0427 25.9182 12.4731C24.3486 10.9035 22.2197 10.0217 20 10.0217C18.1642 10.0228 16.3794 10.6263 14.9197 11.7396C13.46 12.8529 12.406 14.4146 11.9196 16.1848L10.8696 16.1087ZM20.7609 16.1087V24.0978L24.1848 20.6739L25.3261 21.6783L20 27.0043L14.6739 21.6783L15.8152 20.6739L19.2391 24.0978V16.1087H20.7609Z" fill="black"/>
</svg>
