<svg width="40" height="40" viewBox="0 0 40 40" fill="none" xmlns="http://www.w3.org/2000/svg">
<path fill-rule="evenodd" clip-rule="evenodd" d="M22.625 8C23.699 7.99972 24.7618 8.2192 25.7479 8.64493C26.7339 9.07066 27.6225 9.69365 28.3588 10.4756C29.0951 11.2575 29.6637 12.1818 30.0295 13.1916C30.3954 14.2014 30.5507 15.2754 30.486 16.3475H30.5L30.4982 18.4948C32.2942 18.4943 34.0216 19.1841 35.3232 20.4215C36.6248 21.659 37.401 23.3493 37.4913 25.143L37.5 25.493C37.4987 27.288 36.8078 29.0139 35.5702 30.3141C34.3326 31.6142 32.6428 32.3893 30.85 32.479L30.5 32.4878H30.4982L30.5 32.5H9.5C7.64339 32.4954 5.86428 31.7552 4.55227 30.4415C3.24027 29.1279 2.50231 27.3479 2.5 25.4913C2.50031 23.8786 3.05741 22.3156 4.07712 21.0663C5.09684 19.817 6.51662 18.9581 8.0965 18.6348C7.70801 17.6198 7.64405 16.5094 7.91345 15.4565C8.18284 14.4037 8.77231 13.4604 9.60053 12.7569C10.4288 12.0533 11.4549 11.624 12.5374 11.5284C13.6199 11.4327 14.7055 11.6753 15.6443 12.2228C16.311 10.9483 17.3142 9.88085 18.5448 9.13639C19.7755 8.39193 21.1867 7.99891 22.625 8ZM22.5445 15H19.0445V23.6135L14.75 23.61L20.7945 30.743L26.8565 23.6153H22.5445V15Z" fill="black"/>
</svg>
