<svg width="40" height="40" viewBox="0 0 40 40" fill="none" xmlns="http://www.w3.org/2000/svg">
<path d="M30.25 17C30.25 19.4444 28.8141 21.7386 26.3272 23.4537C23.8436 25.1665 20.3714 26.25 16.5 26.25C12.6286 26.25 9.15642 25.1665 6.67275 23.4537C4.18594 21.7386 2.75 19.4444 2.75 17C2.75 14.5556 4.18594 12.2614 6.67275 10.5463C9.15642 8.83347 12.6286 7.75 16.5 7.75C20.3714 7.75 23.8436 8.83347 26.3272 10.5463C28.8141 12.2614 30.25 14.5556 30.25 17Z" stroke="black" stroke-width="1.5"/>
<path fill-rule="evenodd" clip-rule="evenodd" d="M17 29.1214C26.3338 28.0208 33.438 22.4141 33.438 15.6631C33.438 14.3942 33.187 13.1657 32.7174 12C35.876 13.8779 37.8756 16.6576 37.8756 19.7594C37.8756 25.4151 31.2275 30 23.0267 30C20.8811 30 18.8418 29.6862 17 29.1214Z" fill="black"/>
<path d="M11.5681 26.2841L5.21117 23.1056C5.10063 23.0503 4.96691 23.1075 4.93057 23.2257L3.11429 29.1285C3.06645 29.284 3.21437 29.4285 3.36869 29.3771L11.5419 26.6527C11.711 26.5963 11.7275 26.3638 11.5681 26.2841Z" stroke="black" stroke-width="1.5" stroke-linecap="square"/>
<path d="M24.6478 29.1761L30.6832 26.1584C30.8491 26.0755 31.0496 26.1613 31.1041 26.3385L32.8286 31.9428C32.9003 32.176 32.6784 32.3928 32.447 32.3157L24.6871 29.729C24.4335 29.6445 24.4087 29.2956 24.6478 29.1761Z" fill="black"/>
</svg>
