<svg width="40" height="40" viewBox="0 0 40 40" fill="none" xmlns="http://www.w3.org/2000/svg">
<path d="M5 5.125C5 3.67525 6.17525 2.5 7.625 2.5H32.125C33.5747 2.5 34.75 3.67525 34.75 5.125V30.5C34.75 34.366 31.616 37.5 27.75 37.5H7.625C6.17525 37.5 5 36.3247 5 34.875V5.125Z" stroke="black" stroke-width="1.3125"/>
<path d="M35.1875 31.375H28.625V37.5" stroke="black" stroke-width="1.3125"/>
<path d="M9.75346 20.5V12.2273H12.8557C13.4913 12.2273 14.0245 12.3458 14.4553 12.5827C14.8889 12.8197 15.2161 13.1456 15.4369 13.5603C15.6604 13.9723 15.7722 14.4409 15.7722 14.966C15.7722 15.4965 15.6604 15.9678 15.4369 16.3798C15.2134 16.7918 14.8835 17.1163 14.4473 17.3533C14.011 17.5876 13.4738 17.7047 12.8355 17.7047H10.7795V16.4727H12.6336C13.0052 16.4727 13.3095 16.4081 13.5465 16.2788C13.7835 16.1495 13.9585 15.9718 14.0716 15.7456C14.1874 15.5194 14.2453 15.2595 14.2453 14.966C14.2453 14.6725 14.1874 14.4139 14.0716 14.1904C13.9585 13.9669 13.7821 13.7932 13.5424 13.6693C13.3055 13.5428 12.9998 13.4795 12.6255 13.4795H11.2521V20.5H9.75346ZM19.8773 20.5H17.0739V12.2273H19.9338C20.7552 12.2273 21.4607 12.3929 22.0505 12.7241C22.6429 13.0527 23.098 13.5253 23.4158 14.142C23.7336 14.7586 23.8924 15.4965 23.8924 16.3556C23.8924 17.2173 23.7322 17.9579 23.4117 18.5772C23.094 19.1966 22.6348 19.6719 22.0343 20.0032C21.4365 20.3344 20.7175 20.5 19.8773 20.5ZM18.5725 19.2033H19.8045C20.3808 19.2033 20.8615 19.0983 21.2466 18.8883C21.6317 18.6755 21.9212 18.3591 22.1151 17.939C22.309 17.5162 22.4059 16.9884 22.4059 16.3556C22.4059 15.7227 22.309 15.1976 22.1151 14.7802C21.9212 14.3601 21.6344 14.0464 21.2547 13.839C20.8777 13.629 20.4091 13.5239 19.849 13.5239H18.5725V19.2033ZM25.3163 20.5V12.2273H30.616V13.4835H26.815V15.7294H30.2525V16.9857H26.815V20.5H25.3163Z" fill="black"/>
</svg>
