<svg width="40" height="40" viewBox="0 0 40 40" fill="none" xmlns="http://www.w3.org/2000/svg">
<path d="M5 5.125C5 3.67525 6.17525 2.5 7.625 2.5H32.125C33.5747 2.5 34.75 3.67525 34.75 5.125V30.5C34.75 34.366 31.616 37.5 27.75 37.5H7.625C6.17525 37.5 5 36.3247 5 34.875V5.125Z" stroke="black" stroke-width="1.3125"/>
<line x1="11.125" y1="25.4688" x2="28.625" y2="25.4688" stroke="black" stroke-width="1.3125"/>
<line x1="11.125" y1="29.8438" x2="22.5" y2="29.8438" stroke="black" stroke-width="1.3125"/>
<path d="M35.1875 31.375H28.625V37.5" stroke="black" stroke-width="1.3125"/>
<path d="M18.0518 21.3672C17.9469 21.3307 17.7214 21.3125 17.375 21.3125H13.4648C13.2279 21.3125 13.0365 21.276 12.8906 21.2031C12.7493 21.1257 12.6787 20.9867 12.6787 20.7861C12.6787 20.6449 12.7152 20.5286 12.7881 20.4375C12.9613 20.4831 13.1253 20.5059 13.2803 20.5059C13.4352 20.5059 13.5811 20.4899 13.7178 20.458C13.8545 20.4261 13.9844 20.3691 14.1074 20.2871C14.3991 20.1003 14.554 19.8154 14.5723 19.4326V11.8311H13.6836C13.0228 11.8311 12.5898 11.863 12.3848 11.9268C12.1842 11.986 12.0316 12.0635 11.9268 12.1592C11.8265 12.2549 11.7445 12.3848 11.6807 12.5488C11.5667 12.8314 11.4779 13.319 11.4141 14.0117C11.3138 14.0345 11.2227 14.0459 11.1406 14.0459C10.9583 14.0459 10.8421 13.998 10.792 13.9023C10.7419 13.8066 10.7077 13.7087 10.6895 13.6084C10.6712 13.5036 10.6576 13.3896 10.6484 13.2666C10.6302 13.0205 10.6211 12.7585 10.6211 12.4805C10.6211 11.7194 10.6803 11.2363 10.7988 11.0312C10.9173 10.8125 11.1543 10.7031 11.5098 10.7031C11.5781 10.7031 11.6784 10.71 11.8105 10.7236C11.9427 10.7373 12.1341 10.7533 12.3848 10.7715C13.0638 10.8125 13.8773 10.833 14.8252 10.833H15.9805C17.3021 10.833 18.1862 10.8125 18.6328 10.7715C19.0794 10.7259 19.3574 10.7031 19.4668 10.7031C19.5762 10.7031 19.6764 10.7191 19.7676 10.751C19.8587 10.7829 19.9316 10.8285 19.9863 10.8877C20.0729 10.988 20.1162 11.1133 20.1162 11.2637C20.1162 11.4915 20.1094 11.6738 20.0957 11.8105C20.082 11.9473 20.0661 12.109 20.0479 12.2959C20.0342 12.4827 20.0137 12.6764 19.9863 12.877C19.9225 13.3509 19.8428 13.6768 19.7471 13.8545C19.6559 13.9821 19.5443 14.0459 19.4121 14.0459C19.2845 14.0459 19.1706 14.0345 19.0703 14.0117L19.0771 13.5811C19.0771 13.1755 19.0544 12.8564 19.0088 12.624C18.9632 12.387 18.8675 12.2116 18.7217 12.0977C18.5758 11.9792 18.3662 11.9062 18.0928 11.8789C17.8193 11.847 17.4548 11.8311 16.999 11.8311H16.1787V19.6992C16.1787 20.0273 16.4408 20.2552 16.9648 20.3828C17.0924 20.4102 17.2132 20.4352 17.3271 20.458C17.4456 20.4808 17.5596 20.5059 17.6689 20.5332C17.7783 20.556 17.8695 20.5856 17.9424 20.6221C18.0882 20.695 18.1611 20.818 18.1611 20.9912C18.1611 21.1507 18.1247 21.276 18.0518 21.3672Z" fill="black"/>
<path d="M23.5234 21.1875L22.1934 19.1808L21.0151 21.1875H19.2651L21.3768 17.9442L19.2418 14.7242H21.0851L22.4034 16.7192L23.5934 14.7242H25.3434L23.2201 17.9442L25.3668 21.1875H23.5234Z" fill="black"/>
</svg>
