<svg width="40" height="40" viewBox="0 0 40 40" fill="none" xmlns="http://www.w3.org/2000/svg">
<path d="M5.5 10.0781H25.4259C26.6686 10.0781 27.6759 11.0855 27.6759 12.3281V27.0689C27.6759 28.3115 26.6686 29.3189 25.4259 29.3189H5.5C4.25736 29.3189 3.25 28.3115 3.25 27.0689V12.3281C3.25 11.0855 4.25736 10.0781 5.5 10.0781Z" stroke="black" stroke-width="1.5"/>
<path d="M28.3368 15.4077L34.7071 10.2318C35.524 9.56807 36.7454 10.1494 36.7454 11.2019V28.2778C36.7454 29.3078 35.5694 29.8958 34.7454 29.2778L28.375 24.5C28.0602 24.2639 27.875 23.8934 27.875 23.5V16.3779C27.875 16.0015 28.0446 15.6451 28.3368 15.4077Z" stroke="black" stroke-width="1.5"/>
</svg>
