<svg id="Layer_1" data-name="Layer 1" xmlns="http://www.w3.org/2000/svg" viewBox="0 0 70 59"><defs><style>.cls-1{fill:#3d3d3b;}</style></defs><path class="cls-1" d="M.5,13.31a3.23,3.23,0,0,1,2-1.58Q18.49,6.12,34.44.44a3,3,0,0,1,2.12,0L68.8,11.84a2.12,2.12,0,0,1,0,4.16c-1.06.39-2.13.76-3.22,1.15v1.34q0,9,0,17.94a.89.89,0,0,0,.58,1,6.17,6.17,0,0,1,0,11.14.94.94,0,0,0-.62,1c0,2.31,0,4.61,0,6.92a2.06,2.06,0,1,1-4.1,0c0-2.37,0-4.75,0-7.12a.71.71,0,0,0-.48-.76,6.19,6.19,0,0,1-.07-11.24c.32-.16.56-.26.56-.72q0-8.86,0-17.74a1.55,1.55,0,0,0,0-.29c-1,.35-2,.69-2.93,1.05-.79.28-1.85.39-2.26,1s-.12,1.58-.12,2.4c0,3.44,0,6.89,0,10.34a4.25,4.25,0,0,1-1.7,3.55,16.43,16.43,0,0,1-5.89,2.77,46.58,46.58,0,0,1-15.45,1.71,40,40,0,0,1-12.86-2.5,20.33,20.33,0,0,1-3.68-2,3.91,3.91,0,0,1-1.68-3.48c0-4,0-8.08,0-12.12a.93.93,0,0,0-.76-1.05c-3.88-1.35-7.75-2.76-11.63-4.11a3.24,3.24,0,0,1-2-1.58Zm8.28.61.67.25Q22.23,18.73,35,23.28a1.85,1.85,0,0,0,1.09-.05c6.48-2.29,13-4.61,19.44-6.91L62.2,14c-.26-.11-.41-.18-.58-.24q-12.73-4.52-25.49-9a2.07,2.07,0,0,0-1.3,0q-8.38,2.92-16.75,5.91ZM19.05,22v9.46c0,2.52,0,2.52,2.38,3.48A33.37,33.37,0,0,0,31,37.12a44.82,44.82,0,0,0,14-.8,21.24,21.24,0,0,0,6.26-2.25A1.1,1.1,0,0,0,52,33c0-3.4,0-6.8,0-10.2V22l-.79.27q-7.27,2.58-14.56,5.18a3.06,3.06,0,0,1-2.19,0c-4.44-1.6-8.9-3.17-13.35-4.75ZM63.49,41a2,2,0,0,0-2,2,2.06,2.06,0,1,0,4.11-.06A2,2,0,0,0,63.49,41Z"/></svg>