<svg id="Layer_1" data-name="Layer 1" xmlns="http://www.w3.org/2000/svg" viewBox="0 0 41 35"><defs><style>.cls-1{fill:#3d3d3b;}</style></defs><path class="cls-1" d="M.5,8.25a1.8,1.8,0,0,1,1.15-.9Q10.79,4.14,19.9.9a1.74,1.74,0,0,1,1.21,0L39.53,7.41a1.21,1.21,0,0,1,1,1.21,1.24,1.24,0,0,1-1,1.17l-1.84.65v.77q0,5.11,0,10.25A.51.51,0,0,0,38,22a3.53,3.53,0,0,1,0,6.37.54.54,0,0,0-.36.57c0,1.32,0,2.64,0,4a1.18,1.18,0,1,1-2.35,0c0-1.36,0-2.71,0-4.07a.4.4,0,0,0-.28-.43A3.55,3.55,0,0,1,35,22c.18-.09.32-.15.32-.41q0-5.07,0-10.14s0-.07,0-.16c-.57.2-1.13.39-1.68.6s-1,.22-1.29.54-.07.91-.07,1.38c0,2,0,3.94,0,5.91a2.43,2.43,0,0,1-1,2A9.49,9.49,0,0,1,28,23.33a26.83,26.83,0,0,1-8.83,1,23,23,0,0,1-7.34-1.43,11.45,11.45,0,0,1-2.11-1.17,2.21,2.21,0,0,1-1-2c0-2.31,0-4.62,0-6.93a.52.52,0,0,0-.44-.59c-2.22-.78-4.42-1.59-6.64-2.36A1.83,1.83,0,0,1,.5,9Zm4.73.35.38.14L20.23,14a1.13,1.13,0,0,0,.63,0L32,10l3.79-1.36-.33-.13L20.86,3.33a1.25,1.25,0,0,0-.74,0L10.54,6.72Zm5.87,4.62v5.41c0,1.43,0,1.43,1.36,2A19.53,19.53,0,0,0,18,21.86a26,26,0,0,0,8-.46,12,12,0,0,0,3.58-1.29.62.62,0,0,0,.36-.62c0-1.94,0-3.89,0-5.83v-.44l-.45.16-8.32,3a1.74,1.74,0,0,1-1.25,0l-7.63-2.72ZM36.5,24.05a1.16,1.16,0,0,0-1.16,1.17,1.18,1.18,0,1,0,2.35,0A1.16,1.16,0,0,0,36.5,24.05Z"/></svg>