<svg xmlns="http://www.w3.org/2000/svg" viewBox="0 0 256 256" width="24" height="24">
  <path fill="#f68d2e" d="M16 121.138V48.228L132.9 16l116.908 32.228v72.91l-116.908 31.87L16 121.138z"/>
  <path fill="#e9691d" d="M16 182.62v-72.91l116.9-31.87 116.908 31.87v72.91l-116.908 31.87L16 182.62z"/>
  <path fill="#ffffff" d="M16 182.62v-29.09l116.9-31.87 116.908 31.87v29.09l-116.908 31.87L16 182.62zM33.64 156.692l99.66-27.392 99.65 27.392v24.574l-99.65 27.392-99.66-27.392v-24.574z"/>
  <path fill="#fff" d="M33.64 107.136l99.66-27.392 99.65 27.392v24.574l-99.65 27.392-99.66-27.392v-24.574z"/>
  <path fill="#ffffff" d="M33.64 107.136l99.66-27.392 99.65 27.392v24.574l-99.65 27.392-99.66-27.392v-24.574z"/>
  <path fill="#e9691d" d="M33.64 57.58l99.66-27.392 99.65 27.392v24.574l-99.65 27.392-99.66-27.392v-24.574z"/>
  <path fill="#f68d2e" d="M33.64 57.58l99.66-27.392 99.65 27.392v24.574l-99.65 27.392-99.66-27.392v-24.574z"/>
</svg>
