<svg id="Layer_1" data-name="Layer 1" xmlns="http://www.w3.org/2000/svg" viewBox="0 0 71 67"><defs><style>.cls-1{fill:#3d3d3b;}.cls-2{fill:none;stroke:#3d3d3b;stroke-miterlimit:10;stroke-width:2px;}</style></defs><path class="cls-1" d="M5.75,66.93a5,5,0,0,1-3.68-1.6A5.12,5.12,0,0,1,.5,61.6V19a5.14,5.14,0,0,1,1.57-3.73,5,5,0,0,1,3.68-1.6H21.4V5.16A4.76,4.76,0,0,1,23,1.6,5.17,5.17,0,0,1,26.68.07H44.32A5.17,5.17,0,0,1,48,1.6,4.76,4.76,0,0,1,49.6,5.16v8.49H65.25a5,5,0,0,1,3.68,1.6A5.14,5.14,0,0,1,70.5,19V61.6a5.12,5.12,0,0,1-1.57,3.73,5,5,0,0,1-3.68,1.6Zm0-5.22H65.28V19.92H5.72Zm20.9-48.06H44.38V5.29H26.62Zm-20.9,48v0Z"/><path class="cls-2" d="M1,30s43.5,13.85,66,0"/><rect class="cls-1" x="25" y="32.27" width="21" height="6.46" rx="1.26"/></svg>