<svg id="Layer_1" data-name="Layer 1" xmlns="http://www.w3.org/2000/svg" viewBox="0 0 41 39"><defs><style>.cls-1{fill:#3d3d3b;}.cls-2{fill:none;stroke:#3d3d3b;stroke-miterlimit:10;stroke-width:1.14px;}</style></defs><path class="cls-1" d="M3.5,38.6a2.85,2.85,0,0,1-2.1-.91,2.94,2.94,0,0,1-.9-2.13V11.2a2.94,2.94,0,0,1,.9-2.13,2.85,2.85,0,0,1,2.1-.91h8.94V3.31a2.72,2.72,0,0,1,.91-2A3,3,0,0,1,15.46.4H25.54a3,3,0,0,1,2.11.87,2.72,2.72,0,0,1,.91,2V8.16H37.5a2.85,2.85,0,0,1,2.1.91,2.94,2.94,0,0,1,.9,2.13V35.56a2.94,2.94,0,0,1-.9,2.13,2.85,2.85,0,0,1-2.1.91Zm0-3h34V11.74h-34ZM15.43,8.16H25.57V3.38H15.43ZM3.49,35.57v0Z"/><path class="cls-2" d="M.79,17.5s24.85,7.91,37.71,0"/><rect class="cls-1" x="14.5" y="18.8" width="12" height="3.69" rx="0.72"/></svg>