<?xml version="1.0" encoding="UTF-8"?>
<!DOCTYPE svg PUBLIC "-//W3C//DTD SVG 1.1//EN" "http://www.w3.org/Graphics/SVG/1.1/DTD/svg11.dtd">
<svg xmlns="http://www.w3.org/2000/svg" version="1.1" width="1024px" height="265px" style="shape-rendering:geometricPrecision; text-rendering:geometricPrecision; image-rendering:optimizeQuality; fill-rule:evenodd; clip-rule:evenodd" xmlns:xlink="http://www.w3.org/1999/xlink">
<g><path style="opacity:0.502" fill="#000000" d="M 154.5,14.5 C 155.552,14.3505 156.552,14.5172 157.5,15C 152.999,17.4159 148.666,20.0825 144.5,23C 140.964,27.2372 137.798,31.7372 135,36.5C 135.573,31.9522 137.073,27.6188 139.5,23.5C 139.333,23.1667 139.167,22.8333 139,22.5C 138.167,23.5 137.333,24.5 136.5,25.5C 136.408,20.0642 139.241,16.7309 145,15.5C 146.011,15.8919 146.511,16.5585 146.5,17.5C 149.282,16.4844 151.949,15.4844 154.5,14.5 Z"/></g>
<g><path style="opacity:0.942" fill="#020302" d="M 182.5,15.5 C 195.104,13.7352 206.771,16.2352 217.5,23C 227.14,31.1513 237.14,38.818 247.5,46C 252.081,51.0702 256.414,56.2368 260.5,61.5C 265.471,58.5291 269.471,54.5291 272.5,49.5C 278.555,47.4024 283.722,48.7357 288,53.5C 290.226,57.5179 292.059,61.6845 293.5,66C 312.497,66.4999 331.497,66.6666 350.5,66.5C 348.294,77.5279 345.961,88.5279 343.5,99.5C 400.501,99.3333 457.501,99.5 514.5,100C 519.522,100.396 524.188,101.896 528.5,104.5C 531.966,102.511 535.632,101.011 539.5,100C 559.497,99.5 579.497,99.3334 599.5,99.5C 601.322,88.7252 603.655,78.0586 606.5,67.5C 626.155,66.5004 645.822,66.167 665.5,66.5C 663.484,77.2316 661.151,87.8983 658.5,98.5C 689.495,99.3332 720.495,99.8332 751.5,100C 756.431,100.31 760.931,101.81 765,104.5C 769.645,102.396 774.478,100.896 779.5,100C 848.167,99.3333 916.833,99.3333 985.5,100C 999.63,100.963 1007.3,108.463 1008.5,122.5C 1004.58,144.609 1000.08,166.609 995,188.5C 990.646,204.187 980.479,213.687 964.5,217C 945.491,217.167 926.491,217.667 907.5,218.5C 904.849,229.102 902.516,239.768 900.5,250.5C 880.833,250.5 861.167,250.5 841.5,250.5C 843.342,239.468 845.342,228.468 847.5,217.5C 815.165,217.667 782.832,217.5 750.5,217C 747.495,215.83 744.495,214.664 741.5,213.5C 736.053,215.717 730.386,216.883 724.5,217C 595.834,217.5 467.167,217.667 338.5,217.5C 343.833,191.833 349.167,166.167 354.5,140.5C 347.382,139.895 340.548,140.562 334,142.5C 328.177,167.449 322.677,192.449 317.5,217.5C 297.5,217.081 277.5,216.581 257.5,216C 263.648,191.586 269.148,167.086 274,142.5C 270.488,144.782 266.655,146.282 262.5,147C 254.818,148.438 247.151,148.938 239.5,148.5C 235.033,163.063 225.366,168.897 210.5,166C 206.385,163.552 202.552,160.719 199,157.5C 199.695,161.927 201.029,166.26 203,170.5C 203.543,179.102 204.71,187.602 206.5,196C 206.3,200.374 204.633,204.041 201.5,207C 190.791,209.069 180.124,208.903 169.5,206.5C 163.801,210.368 158.967,215.034 155,220.5C 144.39,228.262 135.057,226.929 127,216.5C 122.16,210.19 118.994,203.19 117.5,195.5C 117.051,192.363 118.051,189.863 120.5,188C 116.459,187.173 112.459,187.34 108.5,188.5C 109.485,190.098 109.651,191.765 109,193.5C 107.435,197.4 105.435,201.066 103,204.5C 103.105,210.004 101.939,215.171 99.5,220C 94.4302,222.424 89.0969,223.091 83.5,222C 76.7538,220.647 70.0871,218.98 63.5,217C 54.7422,212.741 53.0755,206.408 58.5,198C 47.1073,196.715 38.274,191.215 32,181.5C 29.221,176.313 28.5543,170.98 30,165.5C 36.8184,160.366 41.6517,153.866 44.5,146C 42.4264,137.265 42.093,128.432 43.5,119.5C 38.8736,120.3 35.0403,118.966 32,115.5C 30.186,111.047 28.186,106.714 26,102.5C 24.4634,94.7348 26.9634,88.5681 33.5,84C 37.8061,80.1791 42.8061,78.0124 48.5,77.5C 48.3354,79.8268 47.6687,81.9935 46.5,84C 47.8932,85.1711 48.7265,86.6711 49,88.5C 49.4052,92.2128 49.4052,95.8794 49,99.5C 64.0354,73.8781 86.5354,59.7115 116.5,57C 120.356,53.9002 124.023,50.5669 127.5,47C 130.492,44.8899 133.825,43.5566 137.5,43C 148.772,27.6991 163.772,18.5324 182.5,15.5 Z M 43.5,96.5 C 47.2287,98.9191 47.2287,101.252 43.5,103.5C 43.2947,101.448 43.2947,99.1143 43.5,96.5 Z M 570.5,140.5 C 576.842,140.334 583.175,140.5 589.5,141C 586.518,152.406 583.852,163.906 581.5,175.5C 575.167,175.5 568.833,175.5 562.5,175.5C 564.389,163.614 567.056,151.947 570.5,140.5 Z M 684.5,141.5 C 692.507,141.334 700.507,141.5 708.5,142C 708.957,142.414 709.291,142.914 709.5,143.5C 707.021,152.751 704.854,162.084 703,171.5C 702.727,173.329 701.893,174.829 700.5,176C 692.833,176.667 685.167,176.667 677.5,176C 678.754,164.454 681.087,152.954 684.5,141.5 Z M 805.5,141.5 C 813.5,141.5 821.5,141.5 829.5,141.5C 827.829,153.02 825.329,164.353 822,175.5C 814.246,176.647 806.413,176.814 798.5,176C 797.941,175.275 797.608,174.442 797.5,173.5C 799.794,162.681 802.461,152.014 805.5,141.5 Z M 924.5,141.5 C 931.345,141.042 938.012,141.542 944.5,143C 941.93,153.446 939.43,163.946 937,174.5C 936.5,175 936,175.5 935.5,176C 929.509,176.499 923.509,176.666 917.5,176.5C 919.993,164.863 922.326,153.196 924.5,141.5 Z"/></g>
<g><path style="opacity:1" fill="#fcfc01" d="M 219.5,32.5 C 221.423,35.6032 223.59,38.6032 226,41.5C 226.72,43.1124 226.554,44.6124 225.5,46C 238.157,45.1636 245.157,50.9969 246.5,63.5C 244.5,64.1667 242.5,64.8333 240.5,65.5C 239.244,65.4614 238.244,65.9614 237.5,67C 239.336,69.4929 240.336,72.3262 240.5,75.5C 243.85,75.335 247.183,75.5017 250.5,76C 251.774,76.9772 251.774,77.8106 250.5,78.5C 242.1,77.1083 237.266,80.4416 236,88.5C 238.344,83.4541 242.177,80.9541 247.5,81C 242.919,84.4384 241.419,88.9384 243,94.5C 243.954,87.3907 247.787,83.0574 254.5,81.5C 254.688,87.1992 254.355,92.8658 253.5,98.5C 253.701,102.424 254.201,102.424 255,98.5C 255.667,95.1667 256.333,91.8333 257,88.5C 257.13,82.3127 257.297,76.3127 257.5,70.5C 258.167,70.8333 258.833,71.1667 259.5,71.5C 269.811,72.6826 276.477,68.3493 279.5,58.5C 280.404,57.791 280.737,56.791 280.5,55.5C 281.167,55.5 281.5,55.8333 281.5,56.5C 287.144,74.2415 287.977,92.2415 284,110.5C 278.359,130.296 265.193,139.962 244.5,139.5C 238.372,139.305 232.372,138.638 226.5,137.5C 222.043,136.939 218.043,135.272 214.5,132.5C 213.631,138.524 212.631,144.524 211.5,150.5C 211.124,155.121 213.124,157.788 217.5,158.5C 219.219,159.022 220.552,160.022 221.5,161.5C 218.022,161.816 214.688,161.316 211.5,160C 206.833,156 202.167,152 197.5,148C 192.241,146.369 187.241,144.202 182.5,141.5C 180.897,140.404 179.397,139.07 178,137.5C 177.833,138.167 177.667,138.833 177.5,139.5C 179.694,143.672 181.361,148.005 182.5,152.5C 180.305,163.585 176.805,174.252 172,184.5C 166.802,190.033 161.302,195.2 155.5,200C 151.571,201.029 147.571,201.863 143.5,202.5C 139.885,208.783 134.885,210.117 128.5,206.5C 125.621,202.654 124.455,198.321 125,193.5C 129.251,190.958 133.418,188.291 137.5,185.5C 138.478,185.977 139.311,186.643 140,187.5C 140.499,182.511 140.666,177.511 140.5,172.5C 141.613,171.054 141.78,169.387 141,167.5C 138.806,171.027 135.973,173.861 132.5,176C 123.728,178.865 114.728,180.032 105.5,179.5C 104.908,176.873 104.575,174.206 104.5,171.5C 103.852,169.914 103.352,168.247 103,166.5C 102.444,175.53 100.444,184.197 97,192.5C 93.6199,196.103 89.7865,199.103 85.5,201.5C 85.9895,210.009 81.9895,213.676 73.5,212.5C 69.0131,212.839 65.5131,211.173 63,207.5C 64.2416,200.02 65.7416,192.52 67.5,185C 62.2194,176.606 57.886,167.772 54.5,158.5C 47.4654,133.441 53.4654,112.275 72.5,95C 79.4226,89.8721 87.0893,86.3721 95.5,84.5C 91.8327,90.5013 88.666,96.8346 86,103.5C 85.2763,107.828 86.1096,111.828 88.5,115.5C 89.1241,122.873 91.6241,129.539 96,135.5C 96.4935,137.134 96.6602,138.801 96.5,140.5C 96.3433,141.873 96.51,143.207 97,144.5C 100.813,149.16 105.313,152.827 110.5,155.5C 111.823,157.686 113.823,159.186 116.5,160C 119.833,160.667 123.167,160.667 126.5,160C 140.03,154.599 153.864,150.432 168,147.5C 170.581,142.842 171.748,137.842 171.5,132.5C 169.754,113.998 166.087,95.9982 160.5,78.5C 160.631,77.7611 160.464,77.0944 160,76.5C 158.985,80.7646 158.485,85.0979 158.5,89.5C 159.336,99.0163 160.336,108.516 161.5,118C 161.508,124.466 160.175,130.633 157.5,136.5C 145.787,139.69 134.787,144.523 124.5,151C 113.357,154.095 105.69,150.262 101.5,139.5C 102.039,136.752 102.872,134.085 104,131.5C 107.673,125.146 111.006,118.813 114,112.5C 109.948,117.046 106.114,121.713 102.5,126.5C 100.474,123.482 98.4742,120.482 96.5,117.5C 96.127,112.452 97.2936,107.785 100,103.5C 108.064,91.0962 115.731,78.4295 123,65.5C 126.959,59.7075 131.459,54.3742 136.5,49.5C 142.879,47.3602 149.546,46.0268 156.5,45.5C 159.113,44.5651 161.779,44.3985 164.5,45C 167.613,46.8538 170.613,48.5205 173.5,50C 165.67,37.0403 168.67,27.8736 182.5,22.5C 196.731,19.3591 209.064,22.6925 219.5,32.5 Z"/></g>
<g><path style="opacity:1" fill="#f9f8c4" d="M 182.5,22.5 C 168.67,27.8736 165.67,37.0403 173.5,50C 170.613,48.5205 167.613,46.8538 164.5,45C 161.779,44.3985 159.113,44.5651 156.5,45.5C 153.023,44.6773 149.356,44.1773 145.5,44C 150.386,36.4478 157.053,31.1145 165.5,28C 171.002,25.5784 176.668,23.7451 182.5,22.5 Z"/></g>
<g><path style="opacity:1" fill="#b8b800" d="M 219.5,32.5 C 228.839,40.0007 238.339,47.334 248,54.5C 250.883,58.5878 252.883,62.9212 254,67.5C 252.423,64.4612 249.923,63.1279 246.5,63.5C 245.157,50.9969 238.157,45.1636 225.5,46C 226.554,44.6124 226.72,43.1124 226,41.5C 223.59,38.6032 221.423,35.6032 219.5,32.5 Z"/></g>
<g><path style="opacity:1" fill="#f8f8c4" d="M 136.5,49.5 C 131.459,54.3742 126.959,59.7075 123,65.5C 115.731,78.4295 108.064,91.0962 100,103.5C 97.2936,107.785 96.127,112.452 96.5,117.5C 93.6727,114.325 91.6727,110.659 90.5,106.5C 92.1045,101.288 94.2712,96.2875 97,91.5C 107.716,77.1112 119.549,63.6112 132.5,51C 133.745,50.2086 135.078,49.7086 136.5,49.5 Z"/></g>
<g><path style="opacity:1" fill="#c5c500" d="M 154.5,55.5 C 157.64,54.3592 160.973,54.1925 164.5,55C 152.036,59.7934 144.203,68.6268 141,81.5C 140.654,79.7818 140.154,78.1151 139.5,76.5C 138.277,75.3861 136.944,75.2195 135.5,76C 131.953,85.5331 126.787,94.0331 120,101.5C 122.487,95.1884 124.987,88.855 127.5,82.5C 130.707,74.4281 135.207,67.0948 141,60.5C 141.315,61.9078 140.982,63.2411 140,64.5C 139.333,67.1667 139.333,69.8333 140,72.5C 141.855,63.2466 147.355,57.7466 156.5,56C 155.906,55.5357 155.239,55.369 154.5,55.5 Z"/></g>
<g><path style="opacity:1" fill="#151302" d="M 154.5,55.5 C 155.239,55.369 155.906,55.5357 156.5,56C 147.355,57.7466 141.855,63.2466 140,72.5C 139.333,69.8333 139.333,67.1667 140,64.5C 140.982,63.2411 141.315,61.9078 141,60.5C 135.207,67.0948 130.707,74.4281 127.5,82.5C 129.048,74.6921 131.881,67.3588 136,60.5C 137.214,58.9512 138.714,57.7845 140.5,57C 145.198,56.6489 149.864,56.1489 154.5,55.5 Z"/></g>
<g><path style="opacity:1" fill="#100f01" d="M 193.5,57.5 C 189.805,59.8694 187.305,63.2027 186,67.5C 185.51,66.2068 185.343,64.8734 185.5,63.5C 187.296,58.8623 190.629,56.3623 195.5,56C 194.956,56.7172 194.289,57.2172 193.5,57.5 Z"/></g>
<g><path style="opacity:1" fill="#cfcf00" d="M 280.5,55.5 C 280.737,56.791 280.404,57.791 279.5,58.5C 274.735,65.8751 268.069,70.2085 259.5,71.5C 258.833,71.1667 258.167,70.8333 257.5,70.5C 257.953,69.5416 258.619,68.7083 259.5,68C 262.618,66.9413 265.618,65.6079 268.5,64C 270.795,60.7026 273.462,57.7026 276.5,55C 278.066,54.235 279.399,54.4017 280.5,55.5 Z"/></g>
<g><path style="opacity:1" fill="#c3c300" d="M 281.5,56.5 C 285.222,59.9435 287.389,64.2768 288,69.5C 291.279,84.1809 291.279,98.8475 288,113.5C 281.045,135.231 266.211,144.731 243.5,142C 237.512,141.255 231.845,139.755 226.5,137.5C 232.372,138.638 238.372,139.305 244.5,139.5C 265.193,139.962 278.359,130.296 284,110.5C 287.977,92.2415 287.144,74.2415 281.5,56.5 Z"/></g>
<g><path style="opacity:1" fill="#f7f7c5" d="M 95.5,84.5 C 87.0893,86.3721 79.4226,89.8721 72.5,95C 53.4654,112.275 47.4654,133.441 54.5,158.5C 42.0329,127.866 48.3662,101.7 73.5,80C 84.7384,71.3659 97.4051,66.6993 111.5,66C 105.928,72.0639 100.595,78.2306 95.5,84.5 Z"/></g>
<g><path style="opacity:1" fill="#1d1b04" d="M 279.5,58.5 C 276.477,68.3493 269.811,72.6826 259.5,71.5C 268.069,70.2085 274.735,65.8751 279.5,58.5 Z"/></g>
<g><path style="opacity:1" fill="#b6b600" d="M 193.5,57.5 C 189.363,63.1196 186.863,69.4529 186,76.5C 185.446,73.3418 184.946,70.1751 184.5,67C 184.514,65.6153 184.848,64.4486 185.5,63.5C 185.343,64.8734 185.51,66.2068 186,67.5C 187.305,63.2027 189.805,59.8694 193.5,57.5 Z"/></g>
<g><path style="opacity:1" fill="#e2e2b4" d="M 242.5,73.5 C 241.89,72.609 241.557,71.609 241.5,70.5C 243.867,68.9277 245.867,69.261 247.5,71.5C 246.332,73.2174 244.665,73.8841 242.5,73.5 Z"/></g>
<g><path style="opacity:1" fill="#100e03" d="M 214.5,83.5 C 210.289,85.5307 206.455,88.1974 203,91.5C 202.53,90.4232 202.697,89.4232 203.5,88.5C 206.221,87.3045 207.387,85.3045 207,82.5C 203.99,81.2891 201.823,82.2891 200.5,85.5C 199.839,84.2825 199.172,82.9492 198.5,81.5C 197.06,82.9524 195.394,83.9524 193.5,84.5C 196.137,80.752 199.137,77.252 202.5,74C 205.546,71.826 208.88,71.1593 212.5,72C 211.833,72.3333 211.167,72.6667 210.5,73C 213.167,74.3333 215.167,76.3333 216.5,79C 217.833,79.3333 219.167,79.6667 220.5,80C 218.273,80.941 216.273,82.1077 214.5,83.5 Z"/></g>
<g><path style="opacity:1" fill="#b5b500" d="M 240.5,65.5 C 240.918,66.2216 241.584,66.7216 242.5,67C 241.663,68.0113 241.33,69.1779 241.5,70.5C 241.557,71.609 241.89,72.609 242.5,73.5C 245.641,74.3213 248.975,74.8213 252.5,75C 253.38,76.3561 253.714,77.8561 253.5,79.5C 252.209,79.7373 251.209,79.404 250.5,78.5C 251.774,77.8106 251.774,76.9772 250.5,76C 247.183,75.5017 243.85,75.335 240.5,75.5C 240.336,72.3262 239.336,69.4929 237.5,67C 238.244,65.9614 239.244,65.4614 240.5,65.5 Z"/></g>
<g><path style="opacity:1" fill="#64c8fb" d="M 312.5,74.5 C 321.857,74.1684 331.19,74.5017 340.5,75.5C 337.955,86.4642 335.622,97.4642 333.5,108.5C 354.169,108.333 374.836,108.5 395.5,109C 406.114,111.713 410.614,118.546 409,129.5C 402.688,155.747 396.854,182.08 391.5,208.5C 382.167,208.5 372.833,208.5 363.5,208.5C 367.889,187.174 372.389,165.841 377,144.5C 378.739,138.814 376.906,134.98 371.5,133C 356.837,132.5 342.17,132.333 327.5,132.5C 321.95,157.809 316.617,183.143 311.5,208.5C 301.81,208.832 292.144,208.498 282.5,207.5C 292.51,163.107 302.51,118.774 312.5,74.5 Z"/></g>
<g><path style="opacity:1" fill="#64c8fb" d="M 627.5,74.5 C 636.833,74.5 646.167,74.5 655.5,74.5C 645.401,119.099 635.735,163.766 626.5,208.5C 595.832,208.667 565.165,208.5 534.5,208C 525.989,205.818 521.655,200.318 521.5,191.5C 525.551,170.414 530.051,149.414 535,128.5C 538.596,117.904 545.762,111.071 556.5,108C 577.831,107.5 599.164,107.333 620.5,107.5C 622.635,96.4367 624.968,85.4367 627.5,74.5 Z M 570.5,140.5 C 567.056,151.947 564.389,163.614 562.5,175.5C 568.833,175.5 575.167,175.5 581.5,175.5C 583.852,163.906 586.518,152.406 589.5,141C 583.175,140.5 576.842,140.334 570.5,140.5 Z"/></g>
<g><path style="opacity:0.565" fill="#000000" d="M 17.5,89.5 C 18.3382,89.1583 18.6716,88.4916 18.5,87.5C 19.3382,87.1583 19.6716,86.4916 19.5,85.5C 20.1667,85.5 20.5,85.1667 20.5,84.5C 21.1667,84.5 21.5,84.1667 21.5,83.5C 24.2105,81.0554 27.0438,78.7221 30,76.5C 30.1667,76.8333 30.3333,77.1667 30.5,77.5C 22.9643,85.2537 18.7976,94.587 18,105.5C 17.5006,100.177 17.334,94.8437 17.5,89.5 Z"/></g>
<g><path style="opacity:0.44" fill="#000000" d="M 21.5,83.5 C 20.8333,83.5 20.5,83.8333 20.5,84.5C 19.8333,84.5 19.5,84.8333 19.5,85.5C 18.6618,85.8417 18.3284,86.5084 18.5,87.5C 17.6618,87.8417 17.3284,88.5084 17.5,89.5C 16.8186,91.1585 15.9853,92.8251 15,94.5C 13.5333,88.7671 15.3666,84.4338 20.5,81.5C 21.2975,81.9569 21.6309,82.6236 21.5,83.5 Z"/></g>
<g><path style="opacity:1" fill="#dddcad" d="M 203.5,88.5 C 201.5,88.5 200.5,87.5 200.5,85.5C 201.823,82.2891 203.99,81.2891 207,82.5C 207.387,85.3045 206.221,87.3045 203.5,88.5 Z"/></g>
<g><path style="opacity:1" fill="#c6c600" d="M 160.5,78.5 C 166.087,95.9982 169.754,113.998 171.5,132.5C 171.748,137.842 170.581,142.842 168,147.5C 153.864,150.432 140.03,154.599 126.5,160C 123.167,160.667 119.833,160.667 116.5,160C 113.823,159.186 111.823,157.686 110.5,155.5C 115.081,156.607 119.748,156.773 124.5,156C 132.009,151.745 139.676,147.745 147.5,144C 152,142.208 156.667,141.375 161.5,141.5C 163.807,133.853 165.141,126.019 165.5,118C 163.792,104.833 162.125,91.6662 160.5,78.5 Z"/></g>
<g><path style="opacity:1" fill="#bfbf00" d="M 200.5,85.5 C 200.5,87.5 201.5,88.5 203.5,88.5C 202.697,89.4232 202.53,90.4232 203,91.5C 206.455,88.1974 210.289,85.5307 214.5,83.5C 211.856,85.969 209.023,88.3024 206,90.5C 204.333,92.8333 202.667,95.1667 201,97.5C 200.257,95.5594 200.424,93.7261 201.5,92C 199.457,90.292 197.79,88.292 196.5,86C 195.167,85.6667 193.833,85.3333 192.5,85C 192.728,84.6012 193.062,84.4346 193.5,84.5C 195.394,83.9524 197.06,82.9524 198.5,81.5C 199.172,82.9492 199.839,84.2825 200.5,85.5 Z"/></g>
<g><path style="opacity:1" fill="#9f9f00" d="M 42.5,88.5 C 43.9953,88.4148 44.9953,89.0815 45.5,90.5C 43.6043,91.6394 42.6043,90.9728 42.5,88.5 Z"/></g>
<g><path style="opacity:1" fill="#c6c600" d="M 40.5,84.5 C 41.0431,84.56 41.3764,84.8933 41.5,85.5C 39.8618,89.9804 39.0285,94.6471 39,99.5C 38.028,101.305 36.8613,102.972 35.5,104.5C 39.1883,110.632 43.6883,110.966 49,105.5C 49.356,111.43 46.5227,114.43 40.5,114.5C 38.0884,114.594 36.255,113.594 35,111.5C 33.6009,107.221 32.1009,103.054 30.5,99C 30.7002,95.7666 31.8668,92.9333 34,90.5C 36.3353,88.5998 38.502,86.5998 40.5,84.5 Z"/></g>
<g><path style="opacity:1" fill="#64c9fb" d="M 419.5,107.5 C 451.502,107.333 483.502,107.5 515.5,108C 524.469,109.632 529.136,114.966 529.5,124C 524.331,152.012 518.331,179.845 511.5,207.5C 478.838,208.667 446.172,208.833 413.5,208C 403.012,203.58 399.179,195.746 402,184.5C 403.51,177.459 405.177,170.459 407,163.5C 410.655,155.178 416.822,149.678 425.5,147C 449.498,146.5 473.498,146.333 497.5,146.5C 500.231,139.564 498.231,134.731 491.5,132C 465.835,131.5 440.169,131.333 414.5,131.5C 415.403,123.319 417.069,115.319 419.5,107.5 Z"/></g>
<g><path style="opacity:1" fill="#65c9fc" d="M 670.5,108.5 C 697.835,108.333 725.169,108.5 752.5,109C 762.497,112.826 766.331,119.993 764,130.5C 759.667,150.167 755.333,169.833 751,189.5C 747.5,198.333 741.333,204.5 732.5,208C 703.833,208.667 675.167,208.667 646.5,208C 636.942,202.947 633.775,195.113 637,184.5C 641.354,164.418 646.021,144.418 651,124.5C 655.32,116.332 661.82,110.999 670.5,108.5 Z M 684.5,141.5 C 681.087,152.954 678.754,164.454 677.5,176C 685.167,176.667 692.833,176.667 700.5,176C 701.893,174.829 702.727,173.329 703,171.5C 704.854,162.084 707.021,152.751 709.5,143.5C 709.291,142.914 708.957,142.414 708.5,142C 700.507,141.5 692.507,141.334 684.5,141.5 Z"/></g>
<g><path style="opacity:1" fill="#65c9fc" d="M 790.5,108.5 C 817.835,108.333 845.169,108.5 872.5,109C 880.223,111.257 884.556,116.424 885.5,124.5C 881.525,143.874 877.358,163.208 873,182.5C 871.307,195.772 864.14,204.272 851.5,208C 823.167,208.667 794.833,208.667 766.5,208C 758.061,203.279 754.894,196.113 757,186.5C 761.333,167.167 765.667,147.833 770,128.5C 773.502,118.347 780.335,111.681 790.5,108.5 Z M 805.5,141.5 C 802.461,152.014 799.794,162.681 797.5,173.5C 797.608,174.442 797.941,175.275 798.5,176C 806.413,176.814 814.246,176.647 822,175.5C 825.329,164.353 827.829,153.02 829.5,141.5C 821.5,141.5 813.5,141.5 805.5,141.5 Z"/></g>
<g><path style="opacity:1" fill="#64c9fb" d="M 894.5,108.5 C 925.502,108.333 956.502,108.5 987.5,109C 997.486,112.802 1001.32,119.969 999,130.5C 994.453,149.779 990.12,169.113 986,188.5C 982.925,197.909 976.759,204.409 967.5,208C 945.5,208.333 923.5,208.667 901.5,209C 898.833,220 896.167,231 893.5,242C 884.173,242.5 874.839,242.666 865.5,242.5C 875.165,197.841 884.832,153.174 894.5,108.5 Z M 924.5,141.5 C 922.326,153.196 919.993,164.863 917.5,176.5C 923.509,176.666 929.509,176.499 935.5,176C 936,175.5 936.5,175 937,174.5C 939.43,163.946 941.93,153.446 944.5,143C 938.012,141.542 931.345,141.042 924.5,141.5 Z"/></g>
<g><path style="opacity:1" fill="#c2c200" d="M 88.5,115.5 C 93.3188,120.339 96.9855,126.005 99.5,132.5C 98.2465,135.194 97.2465,137.861 96.5,140.5C 96.6602,138.801 96.4935,137.134 96,135.5C 91.6241,129.539 89.1241,122.873 88.5,115.5 Z"/></g>
<g><path style="opacity:1" fill="#242307" d="M 210.5,126.5 C 216.96,126.465 216.96,127.298 210.5,129C 208.959,130.579 207.792,132.413 207,134.5C 205.78,130.707 206.947,128.04 210.5,126.5 Z"/></g>
<g><path style="opacity:0.968" fill="#000101" d="M 570.5,131.5 C 585.167,131.5 599.833,131.5 614.5,131.5C 610.358,149.068 606.691,166.735 603.5,184.5C 588.496,184.667 573.496,184.5 558.5,184C 553.845,181.103 552.345,176.937 554,171.5C 555.923,161.066 558.257,150.733 561,140.5C 563.256,136.47 566.422,133.47 570.5,131.5 Z M 570.5,140.5 C 567.056,151.947 564.389,163.614 562.5,175.5C 568.833,175.5 575.167,175.5 581.5,175.5C 583.852,163.906 586.518,152.406 589.5,141C 583.175,140.5 576.842,140.334 570.5,140.5 Z"/></g>
<g><path style="opacity:0.965" fill="#010303" d="M 683.5,132.5 C 698.17,132.333 712.837,132.5 727.5,133C 729.286,133.785 730.786,134.951 732,136.5C 732.667,139.5 732.667,142.5 732,145.5C 729.841,155.135 727.841,164.802 726,174.5C 724.167,179.667 720.667,183.167 715.5,185C 701.5,185.667 687.5,185.667 673.5,185C 668.268,182.367 666.435,178.201 668,172.5C 670.576,161.025 673.576,149.691 677,138.5C 679.063,136.266 681.229,134.266 683.5,132.5 Z M 684.5,141.5 C 681.087,152.954 678.754,164.454 677.5,176C 685.167,176.667 692.833,176.667 700.5,176C 701.893,174.829 702.727,173.329 703,171.5C 704.854,162.084 707.021,152.751 709.5,143.5C 709.291,142.914 708.957,142.414 708.5,142C 700.507,141.5 692.507,141.334 684.5,141.5 Z"/></g>
<g><path style="opacity:0.964" fill="#020304" d="M 804.5,132.5 C 818.837,132.333 833.171,132.5 847.5,133C 851.666,133.985 853.666,136.652 853.5,141C 850.967,154.001 847.8,166.835 844,179.5C 841.9,182.467 839.066,184.3 835.5,185C 821.5,185.667 807.5,185.667 793.5,185C 792.421,184.044 791.255,183.211 790,182.5C 788.48,178.625 788.146,174.625 789,170.5C 791.321,161.576 793.321,152.576 795,143.5C 796.599,138.406 799.766,134.739 804.5,132.5 Z M 805.5,141.5 C 802.461,152.014 799.794,162.681 797.5,173.5C 797.608,174.442 797.941,175.275 798.5,176C 806.413,176.814 814.246,176.647 822,175.5C 825.329,164.353 827.829,153.02 829.5,141.5C 821.5,141.5 813.5,141.5 805.5,141.5 Z"/></g>
<g><path style="opacity:0.968" fill="#010203" d="M 917.5,132.5 C 932.504,132.333 947.504,132.5 962.5,133C 964.286,133.785 965.786,134.951 967,136.5C 965.963,150 963.629,163.333 960,176.5C 957.778,180.388 954.612,183.221 950.5,185C 935.837,185.5 921.17,185.667 906.5,185.5C 910.551,167.911 914.218,150.244 917.5,132.5 Z M 924.5,141.5 C 922.326,153.196 919.993,164.863 917.5,176.5C 923.509,176.666 929.509,176.499 935.5,176C 936,175.5 936.5,175 937,174.5C 939.43,163.946 941.93,153.446 944.5,143C 938.012,141.542 931.345,141.042 924.5,141.5 Z"/></g>
<g><path style="opacity:1" fill="#c7c700" d="M 182.5,141.5 C 182.062,141.435 181.728,141.601 181.5,142C 184.147,144.657 187.147,146.823 190.5,148.5C 189.014,174.648 177.347,194.815 155.5,209C 152.833,213 149.5,216.333 145.5,219C 142.697,219.755 140.03,219.422 137.5,218C 133.888,214.59 130.888,210.756 128.5,206.5C 134.885,210.117 139.885,208.783 143.5,202.5C 147.571,201.863 151.571,201.029 155.5,200C 161.302,195.2 166.802,190.033 172,184.5C 176.805,174.252 180.305,163.585 182.5,152.5C 181.361,148.005 179.694,143.672 177.5,139.5C 177.667,138.833 177.833,138.167 178,137.5C 179.397,139.07 180.897,140.404 182.5,141.5 Z"/></g>
<g><path style="opacity:1" fill="#b6b600" d="M 221.5,161.5 C 220.552,160.022 219.219,159.022 217.5,158.5C 223.804,158.169 223.47,157.669 216.5,157C 215.833,156.333 215.167,155.667 214.5,155C 223.922,157.537 229.422,154.037 231,144.5C 232.011,143.663 233.178,143.33 234.5,143.5C 234.541,152.78 230.207,158.78 221.5,161.5 Z"/></g>
<g><path style="opacity:1" fill="#c2c200" d="M 42.5,183.5 C 45.5274,184.509 48.5274,184.509 51.5,183.5C 52.5921,181.817 53.2587,179.984 53.5,178C 50.9158,172.826 48.5825,167.493 46.5,162C 46.1639,160.97 45.4972,160.47 44.5,160.5C 45.7566,158.578 46.9232,156.578 48,154.5C 51.7756,165.382 56.609,175.715 62.5,185.5C 62.124,189.21 60.124,191.21 56.5,191.5C 50.911,190.374 46.2443,187.708 42.5,183.5 Z"/></g>
<g><path style="opacity:1" fill="#f6f600" d="M 44.5,160.5 C 45.4972,160.47 46.1639,160.97 46.5,162C 48.5825,167.493 50.9158,172.826 53.5,178C 53.2587,179.984 52.5921,181.817 51.5,183.5C 48.5274,184.509 45.5274,184.509 42.5,183.5C 38.14,179.447 35.9733,174.447 36,168.5C 38.7028,165.629 41.5361,162.962 44.5,160.5 Z"/></g>
<g><path style="opacity:1" fill="#c3c300" d="M 192.5,161.5 C 194.982,165.412 196.815,169.745 198,174.5C 198.687,183.173 199.02,191.84 199,200.5C 198.5,201 198,201.5 197.5,202C 189.833,202.667 182.167,202.667 174.5,202C 173.549,201.282 173.383,200.449 174,199.5C 183.626,188.579 189.793,175.913 192.5,161.5 Z"/></g>
<g><path style="opacity:1" fill="#c5c500" d="M 104.5,171.5 C 103.672,177.987 103.172,184.654 103,191.5C 101.527,195.779 99.5272,199.779 97,203.5C 96.7401,207.25 96.0734,210.916 95,214.5C 93.0926,215.93 90.9259,216.596 88.5,216.5C 83.1039,216.162 78.1039,214.829 73.5,212.5C 81.9895,213.676 85.9895,210.009 85.5,201.5C 89.7865,199.103 93.6199,196.103 97,192.5C 100.444,184.197 102.444,175.53 103,166.5C 103.352,168.247 103.852,169.914 104.5,171.5 Z"/></g>
<g><path style="opacity:1" fill="#bdbd00" d="M 140.5,172.5 C 138.733,174.792 137.733,177.458 137.5,180.5C 127.892,182.538 118.226,182.871 108.5,181.5C 106.97,181.36 105.97,180.693 105.5,179.5C 114.728,180.032 123.728,178.865 132.5,176C 135.973,173.861 138.806,171.027 141,167.5C 141.78,169.387 141.613,171.054 140.5,172.5 Z"/></g>
<g><path style="opacity:1" fill="#05080a" d="M 439.5,169.5 C 456.833,169.5 474.167,169.5 491.5,169.5C 490.628,174.527 489.628,179.527 488.5,184.5C 471.163,184.667 453.83,184.5 436.5,184C 433.713,181.833 432.88,178.999 434,175.5C 435.36,172.977 437.193,170.977 439.5,169.5 Z"/></g>
</svg>
