<svg id="Layer_1" data-name="Layer 1" xmlns="http://www.w3.org/2000/svg" viewBox="0 0 70 47"><defs><style>.cls-1{fill:#3d3d3b;}</style></defs><path class="cls-1" d="M15.09,11.13H4.52a3.54,3.54,0,0,1,0-7.08H15.09a3.54,3.54,0,0,1,0,7.08Zm0,10.61H4.52a3.54,3.54,0,0,0,0,7.07H15.09a3.54,3.54,0,0,0,0-7.07ZM64,44,53,33a17.37,17.37,0,0,1-10.56,2.9A17.69,17.69,0,0,1,40.92.66,17.55,17.55,0,0,1,60.41,14.13,17.75,17.75,0,0,1,58,27.93L69,39a3.53,3.53,0,1,1-5,5ZM53.83,18.2A10.57,10.57,0,1,0,43.26,28.81,10.62,10.62,0,0,0,53.83,18.2ZM4.52,46.5H32.7a3.54,3.54,0,0,0,0-7.07H4.52a3.54,3.54,0,0,0,0,7.07Z"/></svg>