<svg id="Layer_1" data-name="Layer 1" xmlns="http://www.w3.org/2000/svg" viewBox="0 0 41 27"><defs><style>.cls-1{fill:#3d3d3b;}</style></defs><path class="cls-1" d="M8.67,6.47H2.54a2,2,0,0,1-2-2,2,2,0,0,1,2-2H8.67a2,2,0,0,1,2,2A2,2,0,0,1,8.67,6.47Zm0,6H2.54a2,2,0,1,0,0,4H8.67a2,2,0,1,0,0-4ZM37,25.14l-6.37-6.27a10.28,10.28,0,0,1-15.76-7A10.11,10.11,0,0,1,23.64.53a10.34,10.34,0,0,1,3.14.06,10.1,10.1,0,0,1,8.16,7.59A9.89,9.89,0,0,1,33.51,16L39.9,22.3a2,2,0,0,1,0,2.84A2.09,2.09,0,0,1,37,25.14ZM31.12,10.49a6.13,6.13,0,0,0-12.25,0,6.13,6.13,0,0,0,12.25,0ZM2.54,26.56H18.87a2,2,0,1,0,0-4H2.54a2,2,0,1,0,0,4Z"/></svg>