<?xml version="1.0" standalone="no"?>
<!DOCTYPE svg PUBLIC "-//W3C//DTD SVG 20010904//EN"
 "http://www.w3.org/TR/2001/REC-SVG-20010904/DTD/svg10.dtd">
<svg version="1.0" xmlns="http://www.w3.org/2000/svg"
 width="600.000000pt" height="450.000000pt" viewBox="0 0 600.000000 450.000000"
 preserveAspectRatio="xMidYMid meet">

<g transform="translate(0.000000,450.000000) scale(0.100000,-0.100000)"
fill="#000000" stroke="none">
<path d="M4192 3208 c-7 -7 -12 -17 -12 -22 0 -6 6 -4 13 6 7 9 24 18 37 21
l25 4 -25 2 c-15 0 -31 -4 -38 -11z"/>
<path d="M4250 3190 c0 -5 5 -9 11 -7 7 1 36 -36 65 -83 30 -46 54 -80 54 -75
0 18 -105 175 -117 175 -7 0 -13 -4 -13 -10z"/>
<path d="M4156 3154 c-4 -14 -5 -28 -3 -31 3 -2 8 8 11 23 4 14 5 28 3 31 -3
2 -8 -8 -11 -23z"/>
<path d="M4142 3085 c0 -16 2 -22 5 -12 2 9 2 23 0 30 -3 6 -5 -1 -5 -18z"/>
<path d="M4250 3086 c0 -4 21 -44 47 -87 44 -75 47 -78 77 -72 52 10 76 23 32
18 -21 -3 -42 -8 -47 -10 -9 -6 -35 35 -30 50 1 6 -1 7 -5 2 -4 -4 -22 19 -40
50 -19 32 -34 54 -34 49z"/>
<path d="M4212 3055 c0 -16 2 -22 5 -12 2 9 2 23 0 30 -3 6 -5 -1 -5 -18z"/>
<path d="M4640 3070 c-20 -6 -17 -7 17 -7 23 1 45 -2 49 -5 12 -12 -5 -53 -37
-91 -25 -29 -35 -35 -42 -25 -6 9 -7 7 -3 -6 4 -11 3 -22 -1 -25 -5 -3 -31
-32 -57 -64 l-50 -58 36 -67 c20 -37 48 -89 62 -116 14 -27 26 -44 26 -38 0 6
-25 57 -55 112 -30 55 -55 104 -55 108 0 4 31 41 68 83 131 145 147 180 96
199 -14 6 -26 10 -27 9 -1 -1 -13 -4 -27 -9z"/>
<path d="M4575 3050 c3 -5 12 -7 20 -3 21 7 19 13 -6 13 -11 0 -18 -4 -14 -10z"/>
<path d="M4132 3025 c0 -16 2 -22 5 -12 2 9 2 23 0 30 -3 6 -5 -1 -5 -18z"/>
<path d="M4520 3040 c-21 -7 -21 -8 -5 -9 11 0 27 4 35 9 18 11 5 11 -30 0z"/>
<path d="M4425 3015 c-40 -14 -40 -14 -5 -8 19 3 42 9 50 14 22 12 1 9 -45 -6z"/>
<path d="M4120 2980 c0 -5 5 -10 11 -10 5 0 7 5 4 10 -3 6 -8 10 -11 10 -2 0
-4 -4 -4 -10z"/>
<path d="M4526 2971 c-4 -5 3 -7 14 -4 23 6 26 13 6 13 -8 0 -17 -4 -20 -9z"/>
<path d="M4457 2958 c-8 -5 -5 -8 8 -8 11 0 27 5 35 10 12 7 10 9 -8 7 -13 -1
-28 -5 -35 -9z"/>
<path d="M4191 2945 c-1 -11 -8 -33 -16 -48 -10 -19 -11 -27 -3 -25 14 5 31
64 24 81 -2 7 -5 3 -5 -8z"/>
<path d="M4533 2910 c-18 -21 -33 -42 -33 -47 0 -9 44 42 60 70 16 27 8 20
-27 -23z"/>
<path d="M4068 2913 c7 -3 16 -2 19 1 4 3 -2 6 -13 5 -11 0 -14 -3 -6 -6z"/>
<path d="M3985 2890 c-13 -6 -15 -9 -5 -9 8 0 22 4 30 9 18 12 2 12 -25 0z"/>
<path d="M3938 2873 c7 -3 16 -2 19 1 4 3 -2 6 -13 5 -11 0 -14 -3 -6 -6z"/>
<path d="M3870 2854 l-25 -15 25 7 c14 3 32 10 40 15 13 7 13 8 0 8 -8 0 -26
-6 -40 -15z"/>
<path d="M4055 2845 c-38 -12 -65 -23 -60 -24 6 0 44 10 85 23 41 13 68 24 60
25 -8 0 -46 -11 -85 -24z"/>
<path d="M4462 2835 c-12 -14 -18 -25 -13 -25 11 0 45 39 39 45 -2 3 -14 -6
-26 -20z"/>
<path d="M3827 2823 c-9 -9 -9 -51 1 -56 4 -3 7 10 8 29 1 37 0 37 -9 27z"/>
<path d="M3965 2780 c3 -5 11 -10 16 -10 6 0 7 5 4 10 -3 6 -11 10 -16 10 -6
0 -7 -4 -4 -10z"/>
<path d="M4007 2769 c7 -7 15 -10 18 -7 3 3 -2 9 -12 12 -14 6 -15 5 -6 -5z"/>
<path d="M4068 2746 c31 -14 28 -21 -20 -50 -24 -14 -40 -26 -36 -26 12 0 108
54 108 61 0 6 -15 11 -62 22 -7 2 -3 -1 10 -7z"/>
<path d="M3883 2724 c27 -14 52 -23 55 -20 3 3 0 6 -7 6 -7 0 -9 5 -5 12 4 7
3 8 -4 4 -6 -4 -25 0 -41 9 -17 8 -34 15 -38 15 -4 -1 14 -12 40 -26z"/>
<path d="M4451 2745 c0 -5 6 -19 14 -29 8 -11 15 -15 15 -10 0 6 -7 19 -15 30
-8 10 -14 15 -14 9z"/>
<path d="M2487 2706 c-95 -34 -152 -126 -127 -203 7 -19 47 -72 91 -119 47
-49 79 -92 79 -104 0 -34 -17 -57 -50 -69 -39 -13 -70 -2 -101 38 l-24 30 -53
-27 c-28 -14 -52 -29 -52 -33 0 -14 47 -73 72 -92 38 -29 126 -34 184 -12 110
42 169 148 134 240 -6 15 -46 64 -90 110 -44 46 -80 90 -80 98 0 22 34 47 65
47 18 0 40 -10 57 -27 l27 -26 41 28 c23 16 43 32 47 37 8 14 -47 68 -84 84
-40 17 -87 17 -136 0z"/>
<path d="M1442 2695 c7 -7 218 -8 225 -1 4 3 -47 6 -112 6 -65 0 -116 -2 -113
-5z"/>
<path d="M3960 2690 c8 -5 20 -10 25 -10 6 0 3 5 -5 10 -8 5 -19 10 -25 10 -5
0 -3 -5 5 -10z"/>
<path d="M4098 2661 c-32 -20 -58 -40 -58 -46 0 -5 -16 -118 -34 -250 -19
-132 -31 -244 -26 -248 4 -5 29 -7 56 -5 l49 3 14 113 c8 61 18 112 22 112 5
0 36 -42 70 -92 91 -137 92 -138 161 -138 33 0 58 4 58 10 0 6 -46 71 -102
146 l-101 135 66 67 66 67 -10 48 c-6 26 -12 47 -14 47 -1 0 -42 -40 -90 -90
-49 -49 -90 -89 -91 -87 -2 1 4 50 12 107 20 145 21 145 -48 101z"/>
<path d="M1693 2683 c9 -2 15 -9 12 -14 -3 -5 1 -6 10 -2 13 5 14 7 3 14 -7 5
-20 8 -28 8 -11 -1 -10 -3 3 -6z"/>
<path d="M4485 2680 c3 -5 8 -10 11 -10 2 0 4 5 4 10 0 6 -5 10 -11 10 -5 0
-7 -4 -4 -10z"/>
<path d="M1444 2550 c0 -74 1 -105 3 -67 2 37 2 97 0 135 -2 37 -3 6 -3 -68z"/>
<path d="M4510 2640 c6 -11 13 -20 16 -20 2 0 0 9 -6 20 -6 11 -13 20 -16 20
-2 0 0 -9 6 -20z"/>
<path d="M1775 2627 c10 -15 20 -25 23 -22 3 3 -5 16 -17 28 l-23 22 17 -28z"/>
<path d="M4361 2623 c0 -10 3 -13 5 -6 4 8 15 9 37 2 18 -5 36 -9 42 -8 12 0
-21 14 -57 23 -23 5 -28 3 -27 -11z"/>
<path d="M1610 2611 c25 -4 52 -11 60 -16 13 -8 13 -7 1 8 -9 12 -27 17 -60
16 l-46 -2 45 -6z"/>
<path d="M4480 2597 c14 -8 27 -12 30 -10 7 6 -23 23 -40 23 -8 0 -4 -6 10
-13z"/>
<path d="M4373 2576 c1 -16 9 -32 17 -34 12 -4 13 -2 4 9 -7 8 -14 23 -17 34
-4 13 -5 9 -4 -9z"/>
<path d="M1538 2553 c5 -59 10 -63 11 -10 1 26 -3 47 -7 47 -4 0 -6 -17 -4
-37z"/>
<path d="M1800 2547 c4 -41 5 -41 8 -8 2 18 0 37 -5 42 -5 5 -6 -11 -3 -34z"/>
<path d="M1696 2565 c4 -8 10 -15 15 -15 4 0 6 7 3 15 -4 8 -10 15 -15 15 -4
0 -6 -7 -3 -15z"/>
<path d="M1850 2551 c0 -6 4 -13 10 -16 6 -3 7 1 4 9 -7 18 -14 21 -14 7z"/>
<path d="M2877 2546 c-84 -31 -150 -97 -175 -176 -6 -19 -20 -107 -32 -195
-11 -88 -22 -168 -24 -177 -4 -15 4 -18 49 -18 l53 0 7 73 c4 39 9 75 12 79 2
5 19 0 36 -9 47 -24 150 -23 207 3 57 27 117 86 141 138 21 46 25 130 8 173
-36 97 -170 149 -282 109z m133 -101 c54 -28 75 -98 45 -154 -66 -128 -257
-110 -257 24 0 103 121 177 212 130z"/>
<path d="M3393 2544 c-56 -20 -127 -84 -154 -141 -27 -56 -30 -143 -6 -190 43
-83 153 -128 249 -102 l53 14 8 54 c4 30 6 56 4 57 -2 2 -21 -5 -42 -16 -46
-24 -74 -25 -120 -6 -92 39 -80 183 19 230 54 26 110 21 147 -12 27 -24 33
-37 36 -83 3 -30 -2 -94 -10 -142 -16 -99 -16 -101 49 -95 l39 3 19 128 c16
110 17 134 5 174 -32 115 -166 172 -296 127z"/>
<path d="M2155 2529 c-10 -30 -2 -32 12 -3 6 13 7 24 3 24 -5 0 -12 -9 -15
-21z"/>
<path d="M3835 2531 c-36 -22 -61 -49 -69 -76 -7 -25 -46 -298 -46 -325 0 -17
7 -20 49 -20 57 0 50 -17 77 183 10 77 23 135 31 143 8 8 32 14 54 14 36 0 39
2 39 28 0 15 3 37 6 50 6 21 4 22 -52 22 -40 0 -69 -6 -89 -19z"/>
<path d="M4620 2530 c-8 -10 -23 -21 -34 -23 -21 -4 -21 -4 0 -6 20 -1 62 34
53 44 -3 2 -11 -4 -19 -15z"/>
<path d="M1710 2509 c0 -40 -14 -65 -48 -83 -15 -9 -21 -15 -14 -16 8 0 27 13
43 29 21 22 29 39 29 65 0 20 -2 36 -5 36 -3 0 -5 -14 -5 -31z"/>
<path d="M4435 2530 c11 -5 29 -8 40 -8 16 0 15 2 -5 8 -34 11 -60 11 -35 0z"/>
<path d="M2246 2505 c-9 -26 -7 -32 5 -12 6 10 9 21 6 23 -2 3 -7 -2 -11 -11z"/>
<path d="M4510 2510 c8 -5 22 -9 30 -9 10 0 8 3 -5 9 -27 12 -43 12 -25 0z"/>
<path d="M1971 2495 c-1 -5 10 -41 23 -80 13 -38 27 -85 31 -103 4 -18 9 -31
12 -29 2 3 -3 34 -13 69 -20 70 -53 159 -53 143z"/>
<path d="M1801 2478 c0 -9 -4 -25 -7 -35 -5 -14 -4 -15 5 -7 7 7 11 22 8 35
-2 13 -5 16 -6 7z"/>
<path d="M2112 2381 c-32 -108 -44 -174 -18 -96 25 77 57 197 53 201 -2 2 -18
-45 -35 -105z"/>
<path d="M1892 2450 c-1 -14 5 -36 13 -50 9 -16 14 -19 15 -9 0 8 -4 19 -9 25
-5 5 -11 20 -14 34 l-4 25 -1 -25z"/>
<path d="M2231 2454 c0 -11 3 -14 6 -6 3 7 2 16 -1 19 -3 4 -6 -2 -5 -13z"/>
<path d="M2200 2376 c-11 -25 -20 -53 -20 -63 1 -10 7 -2 14 17 7 19 18 47 24
63 18 44 4 31 -18 -17z"/>
<path d="M1538 2403 c12 -2 32 -2 45 0 12 2 2 4 -23 4 -25 0 -35 -2 -22 -4z"/>
<path d="M1753 2384 c-27 -29 -29 -36 -9 -28 16 6 51 55 39 53 -5 -1 -18 -12
-30 -25z"/>
<path d="M1690 2340 c-8 -5 -10 -10 -5 -10 6 0 17 5 25 10 8 5 11 10 5 10 -5
0 -17 -5 -25 -10z"/>
<path d="M1443 2260 c0 -47 2 -66 4 -42 2 23 2 61 0 85 -2 23 -4 4 -4 -43z"/>
<path d="M1930 2338 c0 -12 52 -149 56 -145 5 5 -31 110 -45 134 -6 10 -11 15
-11 11z"/>
<path d="M1588 2323 c12 -2 32 -2 45 0 12 2 2 4 -23 4 -25 0 -35 -2 -22 -4z"/>
<path d="M2171 2283 c-1 -6 -4 -20 -7 -30 -5 -17 -5 -17 6 0 6 10 9 23 6 30
-3 9 -5 9 -5 0z"/>
<path d="M1543 2215 c0 -38 2 -53 4 -32 2 20 2 52 0 70 -2 17 -4 1 -4 -38z"/>
<path d="M2041 2254 c0 -11 3 -14 6 -6 3 7 2 16 -1 19 -3 4 -6 -2 -5 -13z"/>
<path d="M2121 2149 c-16 -53 -8 -61 9 -9 7 22 11 42 8 45 -3 3 -10 -13 -17
-36z"/>
<path d="M2005 2128 c4 -13 11 -27 16 -33 5 -5 4 5 -2 23 -12 36 -24 44 -14
10z"/>
<path d="M1542 2120 c0 -14 2 -19 5 -12 2 6 2 18 0 25 -3 6 -5 1 -5 -13z"/>
<path d="M1440 2110 c0 -5 5 -10 11 -10 5 0 7 5 4 10 -3 6 -8 10 -11 10 -2 0
-4 -4 -4 -10z"/>
<path d="M2088 2049 c-9 -21 -13 -39 -9 -39 8 0 35 69 29 75 -1 2 -11 -14 -20
-36z"/>
<path d="M2007 2073 c-4 -3 -7 -11 -7 -17 0 -6 5 -5 12 2 6 6 9 14 7 17 -3 3
-9 2 -12 -2z"/>
<path d="M1940 1990 c-8 -5 -10 -10 -5 -10 6 0 17 5 25 10 8 5 11 10 5 10 -5
0 -17 -5 -25 -10z"/>
<path d="M2038 1960 c-21 -22 -34 -40 -30 -40 8 0 34 26 61 63 22 29 8 18 -31
-23z"/>
<path d="M1870 1930 c0 -14 6 -20 23 -19 18 1 18 2 4 6 -11 3 -16 11 -13 19 3
8 1 14 -4 14 -6 0 -10 -9 -10 -20z"/>
</g>
</svg>
