<svg id="Layer_1" data-name="Layer 1" xmlns="http://www.w3.org/2000/svg" viewBox="0 0 41 40"><defs><style>.cls-1{fill:none;stroke:#3d3d3b;stroke-linecap:round;stroke-linejoin:round;stroke-width:3.32px;}</style></defs><path class="cls-1" d="M6.13,10.8a8,8,0,0,0,8.21,7.76,8,8,0,0,0,8.21-7.76,8,8,0,0,0-8.21-7.75A8,8,0,0,0,6.13,10.8"/><path class="cls-1" d="M2,38V34.07a8,8,0,0,1,8.22-7.75h8.21a8,8,0,0,1,8.21,7.75V38"/><path class="cls-1" d="M28.71,3.3a7.74,7.74,0,0,1,5.92,9.44,8,8,0,0,1-5.92,5.59"/><path class="cls-1" d="M39,38V34.07a7.86,7.86,0,0,0-6.16-7.46"/></svg>