<svg id="Layer_1" data-name="Layer 1" xmlns="http://www.w3.org/2000/svg" viewBox="0 0 71 72"><defs><style>.cls-1{fill:none;stroke:#3d3d3b;stroke-linecap:round;stroke-linejoin:round;stroke-width:5.98px;}</style></defs><path class="cls-1" d="M10.61,18.37a14.36,14.36,0,0,0,14.22,14.5,14.37,14.37,0,0,0,14.23-14.5A14.37,14.37,0,0,0,24.83,3.86,14.37,14.37,0,0,0,10.61,18.37"/><path class="cls-1" d="M3.5,69.14V61.89A14.37,14.37,0,0,1,17.72,47.38H31.94A14.37,14.37,0,0,1,46.17,61.89v7.25"/><path class="cls-1" d="M49.72,4.33A14.53,14.53,0,0,1,60,22,14.38,14.38,0,0,1,49.72,32.44"/><path class="cls-1" d="M67.5,69.14V61.89a14.47,14.47,0,0,0-10.67-14"/></svg>