<svg id="Layer_1" data-name="Layer 1" xmlns="http://www.w3.org/2000/svg" viewBox="0 0 73 73"><defs><style>.cls-1{fill:none;stroke:#3d3d3b;stroke-miterlimit:10;stroke-width:2px;}</style></defs><path class="cls-1" d="M14.53,2a5,5,0,0,1,3.36,2.46,4.55,4.55,0,0,1-2.17,6.29c-.3.13-.53.21-.53.64q0,7.55,0,15.09a1.7,1.7,0,0,0,0,.28h8c0-.59,0-1.18,0-1.78,0-1.19.49-1.68,1.68-1.68H35.15V21.86c0-2.09,0-4.18,0-6.27a.72.72,0,0,0-.5-.8A4.53,4.53,0,0,1,32,9.65a4.57,4.57,0,1,1,6.33,5.16c-.21.1-.49.37-.49.56,0,2.61,0,5.21,0,7.87h5.66V14.32c0-1.37.45-1.81,1.82-1.81h8a3.14,3.14,0,0,1,.92.12,1.3,1.3,0,0,1,0,2.46,3.2,3.2,0,0,1-.93.11h-7v8.08H48c1.23,0,1.71.49,1.71,1.73v10a.68.68,0,0,0,.2.08c2.57,0,5.13,0,7.69,0a.84.84,0,0,0,.56-.4,4.56,4.56,0,0,1,8.58.41,4.56,4.56,0,0,1-8.49,3.28.84.84,0,0,0-.94-.59c-2.29,0-4.58,0-6.87,0h-.7v5.66h8.92c1.38,0,1.83.44,1.83,1.81,0,5.34,0,10.69,0,16a.85.85,0,0,0,.6.94,4.51,4.51,0,0,1,2.52,5.13,4.57,4.57,0,0,1-8.93-.07,4.54,4.54,0,0,1,2.6-5.1c.33-.15.54-.26.54-.7,0-5,0-10,0-15,0-.1,0-.21,0-.36H49.71v1.57c0,1.47-.42,1.9-1.88,1.9H37.9a4.62,4.62,0,0,0,0,.48c0,2.43,0,4.85,0,7.28a.67.67,0,0,0,.48.74A4.5,4.5,0,0,1,41,63.34a4.57,4.57,0,1,1-6.27-5.16c.19-.09.44-.35.44-.54,0-2.58,0-5.16,0-7.74,0,0,0-.08-.07-.16H29.49v9c0,1.28-.47,1.75-1.75,1.75H19.45a1.36,1.36,0,1,1,0-2.69h7.32V49.71H24.94c-1.14,0-1.65-.51-1.65-1.65,0-3.12,0-6.25,0-9.37V37.9a5.24,5.24,0,0,0-.53,0c-2.41,0-4.81,0-7.21,0a.68.68,0,0,0-.76.47A4.5,4.5,0,0,1,9.68,41a4.57,4.57,0,1,1,5.13-6.29c.09.19.3.45.46.45,2.64,0,5.29,0,8,0V29.49H20.81c-2.2,0-4.4,0-6.6,0-1.23,0-1.71-.48-1.71-1.72,0-5.35,0-10.7,0-16a.94.94,0,0,0-.64-1.05A4.47,4.47,0,0,1,9.29,6.32a4.53,4.53,0,0,1,3.19-4.08l.7-.24ZM47,47V26H26V47ZM15.73,6.6a1.88,1.88,0,1,0-1.89,1.86A1.89,1.89,0,0,0,15.73,6.6ZM61,66.41a1.89,1.89,0,1,0-1.87,1.89A1.91,1.91,0,0,0,61,66.41ZM38.38,10.62A1.88,1.88,0,1,0,36.5,12.5,1.9,1.9,0,0,0,38.38,10.62Zm-27.79,24a1.88,1.88,0,1,0,1.91,1.86A1.9,1.9,0,0,0,10.59,34.62Zm51.8,3.76a1.88,1.88,0,1,0-1.89-1.87A1.88,1.88,0,0,0,62.39,38.38Zm-24,24a1.88,1.88,0,1,0-1.9,1.86A1.9,1.9,0,0,0,38.38,62.4Z"/><path class="cls-1" d="M71,14.53A5,5,0,0,1,68.43,18a4.57,4.57,0,1,1,2.3-5.6c.09.27.19.55.28.83Zm-4.6,1.21a1.88,1.88,0,1,0-1.87-1.9A1.9,1.9,0,0,0,66.41,15.74Z"/><path class="cls-1" d="M6.6,54.57a4.58,4.58,0,1,1-.09,9.15,4.58,4.58,0,0,1,.09-9.15Zm1.85,4.56A1.88,1.88,0,1,0,6.59,61,1.9,1.9,0,0,0,8.45,59.13Z"/><path class="cls-1" d="M59.86,13.83a1.32,1.32,0,1,1-1.34-1.31A1.34,1.34,0,0,1,59.86,13.83Z"/><path class="cls-1" d="M14.44,57.81a1.34,1.34,0,1,1-1.3,1.36A1.35,1.35,0,0,1,14.44,57.81Z"/><path class="cls-1" d="M15.73,6.6a1.88,1.88,0,1,1-1.86-1.9A1.89,1.89,0,0,1,15.73,6.6Z"/><path class="cls-1" d="M61,66.41a1.89,1.89,0,1,1-1.9-1.87A1.9,1.9,0,0,1,61,66.41Z"/><path class="cls-1" d="M38.38,10.62a1.88,1.88,0,1,1-1.89-1.88A1.9,1.9,0,0,1,38.38,10.62Z"/><path class="cls-1" d="M10.59,34.62a1.88,1.88,0,1,1,.05,3.76,1.88,1.88,0,1,1-.05-3.76Z"/><path class="cls-1" d="M62.39,38.38a1.88,1.88,0,1,1,1.87-1.89A1.9,1.9,0,0,1,62.39,38.38Z"/><path class="cls-1" d="M38.38,62.4a1.88,1.88,0,1,1-1.86-1.9A1.89,1.89,0,0,1,38.38,62.4Z"/><path class="cls-1" d="M66.41,15.74a1.88,1.88,0,1,1,1.9-1.86A1.9,1.9,0,0,1,66.41,15.74Z"/><path class="cls-1" d="M8.45,59.13a1.88,1.88,0,1,1-1.89-1.87A1.89,1.89,0,0,1,8.45,59.13Z"/><path class="cls-1" d="M42.7,36.51V41c0,1.19-.5,1.68-1.69,1.68H32c-1.19,0-1.68-.49-1.68-1.69q0-4.51,0-9c0-1.19.49-1.67,1.69-1.68h9c1.19,0,1.67.5,1.68,1.69ZM33,40H40V33H33Z"/><path class="cls-1" d="M33,40V33H40V40Z"/></svg>