<svg id="Layer_1" data-name="Layer 1" xmlns="http://www.w3.org/2000/svg" viewBox="0 0 41 41"><defs><style>.cls-1{fill:none;stroke:#3d3d3b;stroke-miterlimit:10;}</style></defs><path class="cls-1" d="M8.08,1.21A2.83,2.83,0,0,1,10,2.59,2.53,2.53,0,0,1,8.75,6.1c-.17.08-.3.12-.3.36,0,2.81,0,5.63,0,8.44a1.15,1.15,0,0,0,0,.16H13v-1c0-.67.28-.94,1-.94h5.76v-.81c0-1.16,0-2.33,0-3.5a.4.4,0,0,0-.28-.45A2.51,2.51,0,0,1,18,5.49a2.59,2.59,0,0,1,5.05,0,2.57,2.57,0,0,1-1.47,2.9c-.12,0-.28.2-.28.31,0,1.45,0,2.91,0,4.4h3.2v-5c0-.76.25-1,1-1H30a1.81,1.81,0,0,1,.52.06.68.68,0,0,1,.49.69.69.69,0,0,1-.49.69,1.88,1.88,0,0,1-.53.06H26v4.52h1c.69,0,1,.27,1,1v5.6a.25.25,0,0,0,.11,0q2.18,0,4.35,0a.44.44,0,0,0,.31-.23A2.63,2.63,0,0,1,35.25,18a2.57,2.57,0,0,1,2.34,1.8,2.5,2.5,0,0,1-.9,2.79,2.58,2.58,0,0,1-3.89-1,.49.49,0,0,0-.54-.33c-1.29,0-2.59,0-3.88,0H28v3.17h5c.78,0,1,.25,1,1,0,3,0,6,0,9a.47.47,0,0,0,.33.52,2.52,2.52,0,0,1,1.43,2.87,2.59,2.59,0,0,1-5.05,0,2.54,2.54,0,0,1,1.47-2.85c.19-.08.31-.14.31-.39,0-2.79,0-5.57,0-8.36,0-.06,0-.12,0-.2H28v.87c0,.83-.24,1.07-1.06,1.07H21.29c0,.1,0,.18,0,.26,0,1.36,0,2.72,0,4.07a.37.37,0,0,0,.27.42A2.51,2.51,0,0,1,23,35.5a2.58,2.58,0,0,1-5.05,0,2.55,2.55,0,0,1,1.51-2.87.49.49,0,0,0,.25-.3c0-1.44,0-2.89,0-4.33,0,0,0,0,0-.09H16.54v5c0,.72-.27,1-1,1-1.53,0-3.05,0-4.57,0a.48.48,0,0,1-.12,0c-.52,0-.87-.31-.87-.74a.77.77,0,0,1,.86-.76H15V27.89H14c-.64,0-.93-.28-.93-.92V21.28l-.3,0H8.65a.37.37,0,0,0-.42.26A2.55,2.55,0,0,1,5.34,23a2.56,2.56,0,1,1,2.9-3.52c0,.11.17.25.26.26H13V16.58H11.63c-1.24,0-2.49,0-3.73,0-.69,0-1-.27-1-1q0-4.48,0-9a.52.52,0,0,0-.36-.58A2.51,2.51,0,0,1,5.12,3.63a2.55,2.55,0,0,1,1.8-2.29l.4-.13ZM26.42,26.36V14.65H14.58V26.36ZM8.76,3.78a1.06,1.06,0,0,0-1-1.06,1.08,1.08,0,0,0-1.08,1A1.08,1.08,0,0,0,7.69,4.83,1.07,1.07,0,0,0,8.76,3.78Zm25.6,33.44a1.06,1.06,0,1,0-1,1.06A1.05,1.05,0,0,0,34.36,37.22ZM21.56,6a1.07,1.07,0,1,0-1.06,1A1.06,1.06,0,0,0,21.56,6ZM5.85,19.45a1.05,1.05,0,1,0,0,2.1,1.05,1.05,0,1,0,0-2.1Zm29.29,2.1a1.05,1.05,0,1,0-1.07-1A1,1,0,0,0,35.14,21.55ZM21.56,35a1.06,1.06,0,0,0-1-1.06,1.05,1.05,0,1,0,0,2.1A1.05,1.05,0,0,0,21.56,35Z"/><path class="cls-1" d="M40,8.22a2.84,2.84,0,0,1-1.46,1.92A2.61,2.61,0,0,1,35,8.85a2.55,2.55,0,0,1,1.44-3.39A2.59,2.59,0,0,1,39.85,7c0,.16.1.31.16.47Zm-2.6.67a1.06,1.06,0,0,0,1.07-1,1.07,1.07,0,0,0-2.13,0A1.06,1.06,0,0,0,37.41,8.89Z"/><path class="cls-1" d="M3.6,30.6A2.56,2.56,0,1,1,1,33.15,2.6,2.6,0,0,1,3.6,30.6Zm1.05,2.55a1.07,1.07,0,0,0-1.08-1,1.05,1.05,0,1,0,0,2.1A1.07,1.07,0,0,0,4.65,33.15Z"/><path class="cls-1" d="M33.71,7.83A.75.75,0,1,1,33,7.09.77.77,0,0,1,33.71,7.83Z"/><path class="cls-1" d="M8,32.41a.75.75,0,0,1,0,1.5.75.75,0,0,1,0-1.5Z"/><path class="cls-1" d="M8.76,3.78A1.07,1.07,0,0,1,7.69,4.83,1.08,1.08,0,0,1,6.63,3.76a1.08,1.08,0,0,1,1.08-1A1.06,1.06,0,0,1,8.76,3.78Z"/><path class="cls-1" d="M34.36,37.22a1.06,1.06,0,1,1-1.07-1A1.06,1.06,0,0,1,34.36,37.22Z"/><path class="cls-1" d="M21.56,6A1.07,1.07,0,1,1,20.5,5,1.07,1.07,0,0,1,21.56,6Z"/><path class="cls-1" d="M5.85,19.45a1.05,1.05,0,1,1-1,1.07A1.07,1.07,0,0,1,5.85,19.45Z"/><path class="cls-1" d="M35.14,21.55a1.05,1.05,0,1,1,1-1.05A1.06,1.06,0,0,1,35.14,21.55Z"/><path class="cls-1" d="M21.56,35a1.05,1.05,0,0,1-1.07,1,1.05,1.05,0,1,1,0-2.1A1.06,1.06,0,0,1,21.56,35Z"/><path class="cls-1" d="M37.41,8.89a1.05,1.05,0,1,1,0-2.1,1.07,1.07,0,0,1,1.06,1.06A1.06,1.06,0,0,1,37.41,8.89Z"/><path class="cls-1" d="M4.65,33.15a1.07,1.07,0,0,1-1.06,1.06,1.05,1.05,0,1,1,0-2.1A1.07,1.07,0,0,1,4.65,33.15Z"/><path class="cls-1" d="M24,20.5c0,.84,0,1.69,0,2.53,0,.66-.28.94-.95.94H17.94c-.67,0-.94-.28-1-.95V18c0-.67.28-.94,1-.94h5.1c.68,0,.95.27.95.94C24,18.82,24,19.66,24,20.5Zm-5.47,1.93h3.92V18.56H18.53Z"/><path class="cls-1" d="M18.53,22.43V18.56h3.92v3.87Z"/></svg>