<svg id="Layer_1" data-name="Layer 1" xmlns="http://www.w3.org/2000/svg" viewBox="0 0 91 47"><defs><style>.cls-1{fill:#3c3c3b;}</style></defs><path class="cls-1" d="M72.74.41a3.89,3.89,0,0,1,2.36,2c1.11,1.83,2.21,3.65,3.3,5.49a.61.61,0,0,0,.8.32C82,7.5,84.83,6.76,87.65,6a3.31,3.31,0,0,1,1.92.06,1.59,1.59,0,0,1,1,2.2,6,6,0,0,1-1,1.68c-1.87,2.25-3.77,4.46-5.68,6.68a.66.66,0,0,0-.09.87c1.14,2.14,2.27,4.3,3.4,6.45a3.13,3.13,0,0,1,.4,2.44,2.77,2.77,0,0,1-3.34,1.9c-1.47-.35-2.92-.83-4.38-1.25-.62-.18-1.24-.36-1.85-.58-.15,0-.35-.21-.37-.34-.23-1.2-.43-2.41-.63-3.61,0,0,0-.07,0-.14l6,1.65c-.1-.23-.17-.39-.25-.55-1.06-2-2.11-4-3.18-6a.71.71,0,0,1,.11-.93q2.55-3,5.08-6a.91.91,0,0,0,.21-.43l-.76.19c-2.35.62-4.7,1.23-7,1.87a.54.54,0,0,1-.72-.29C75.38,10,74.22,8.06,73.06,6.13a1.47,1.47,0,0,0-.42-.45c-.09.45-.19.91-.27,1.37-.39,2.18-.77,4.37-1.15,6.55,0,.32-.25.42-.52.5l-7.16,2.26a6.25,6.25,0,0,0-.6.24v.09l6.2,2.47a2.6,2.6,0,0,1-.22.19l-3.68,2.38a.65.65,0,0,1-.72.06c-1.49-.68-3-1.33-4.47-2a4.64,4.64,0,0,1-2-1.55,2.33,2.33,0,0,1,.61-3.51,10.43,10.43,0,0,1,2.89-1.19c2-.65,4.08-1.3,6.13-1.93a.8.8,0,0,0,.62-.73c.43-2.48.88-5,1.34-7.43a4.81,4.81,0,0,1,1-2A2.94,2.94,0,0,1,72.22.41Z"/><path class="cls-1" d="M.73,37.74l4-2.17c.23.47.43.94.68,1.38a2.89,2.89,0,0,0,2.26,1.59A3.32,3.32,0,0,0,11,36.43a2,2,0,0,0-.38-1.77C10.07,34,9.53,33.37,9,32.74,8,31.68,7,30.65,6.1,29.58A5.5,5.5,0,0,1,6,21.91a7.45,7.45,0,0,1,7.24-2.81,5.22,5.22,0,0,1,3.34,2c.4.46.76,1,1.16,1.48L14,25.34c-.2-.3-.38-.6-.58-.88a2.91,2.91,0,0,0-2-1.39A2.39,2.39,0,0,0,9.09,24a1.33,1.33,0,0,0,0,1.81c1,1.14,2,2.25,3,3.36.55.61,1.14,1.19,1.68,1.81a5.91,5.91,0,0,1,.91,6.83,8.4,8.4,0,0,1-10,4.47,5.3,5.3,0,0,1-3.33-3c-.21-.46-.41-.92-.61-1.39Z"/><path class="cls-1" d="M18.74,47.08H15.05c.07-.56.13-1.1.2-1.64q.46-3.6.94-7.2c.26-1.87.45-3.77.85-5.61A10.21,10.21,0,0,1,25,25.15a8,8,0,0,1,6.52,1.43,7.16,7.16,0,0,1,2.8,5.17c.58,5.08-3.73,9.82-8.32,10.54a8.07,8.07,0,0,1-6.08-1.24l-.31-.18Zm6.82-8.43a5.39,5.39,0,0,0,2.93-1.42,5.13,5.13,0,0,0,1.94-4.73,4.15,4.15,0,0,0-4.79-3.7,5.8,5.8,0,0,0-5.11,5.63C20.54,36.82,22.43,38.64,25.56,38.65Z"/><path class="cls-1" d="M52.15,42H48.48c.1-.8.2-1.58.29-2.36.24-1.87.5-3.73.69-5.6a5.6,5.6,0,0,0-.63-3.23,3.53,3.53,0,0,0-2.87-2,5.77,5.77,0,0,0-6.37,4.88,4.32,4.32,0,0,0,5.62,4.76A6.08,6.08,0,0,0,48,36.78c0,.42-.08.75-.12,1.07-.14,1.08-.28,2.17-.44,3.26a.7.7,0,0,1-.3.49,8.24,8.24,0,0,1-7.83-.29,7.15,7.15,0,0,1-3.57-6.62,10.21,10.21,0,0,1,8.55-9.6,7.61,7.61,0,0,1,8,3.54,7.1,7.1,0,0,1,.95,4.68c-.31,2.71-.67,5.42-1,8.13C52.23,41.61,52.19,41.78,52.15,42Z"/><path class="cls-1" d="M69.13,29.49,75.87,22c.16.94.31,1.81.46,2.67.06.32.08.65.17,1a.74.74,0,0,1-.25.8q-2,2.12-4.06,4.26l-.35.37L79.61,42l-.33,0c-1.4,0-2.8,0-4.2,0a.77.77,0,0,1-.73-.4c-1.8-2.74-3.6-5.46-5.4-8.19l-.36-.53L67.39,42H63.27c.07-.61.13-1.22.21-1.82l.72-5.48q.36-2.7.71-5.38c.27-2,.54-4,.78-6a1.34,1.34,0,0,1,.69-1.13c1.2-.72,2.35-1.51,3.53-2.26a4.82,4.82,0,0,1,.42-.26L69,29.45Z"/><path class="cls-1" d="M63.58,25.45l-.5,3.8c-.63,0-1.22,0-1.82,0-1.35-.07-1.86.49-2,1.78-.39,3.14-.81,6.28-1.22,9.42-.07.5-.14,1-.22,1.53H54q.14-1.09.27-2.16L55,34.36c.22-1.61.41-3.24.69-4.85a5.25,5.25,0,0,1,4.72-4.07c.94,0,1.88,0,2.81,0Z"/><path class="cls-1" d="M48.29,21.75h-.95l.31-1.86c-.64,0-1.25,0-1.86,0-.07,0-.18.15-.2.25-.09.42-.18.85-.23,1.29,0,.25-.11.35-.37.32s-.39,0-.64,0l.81-4.6h1l-.31,1.78h2l.33-1.79h1Z"/><path class="cls-1" d="M20.77,21.74l1.91-3.57a2.47,2.47,0,0,0,.19-.36c.18-.65.64-.78,1.22-.67a.36.36,0,0,1,.25.19c.27,1.46.53,2.91.8,4.4h-1L24,20.78c-.49,0-1,0-1.45,0-.09,0-.22.13-.25.22a1,1,0,0,1-1.29.75Zm3.05-1.92-.21-1.32h-.08l-.65,1.31Z"/><path class="cls-1" d="M36.65,21.74h-1l-.18-1c-.49,0-1,0-1.41,0a.35.35,0,0,0-.28.22c-.2.75-.73.85-1.37.75l-.1-.05c.06-.13.12-.26.19-.39.69-1.28,1.39-2.56,2.06-3.86a.52.52,0,0,1,.58-.33c.21,0,.42,0,.68,0ZM35.09,18.4l-.71,1.41h.94Z"/><path class="cls-1" d="M54.58,17.13l-.17.94H52.82l-.16.9h1.45l-.15.91H52.5l-.17.94h1.59l-.16.93H51.22q.12-.77.24-1.5c.17-.95.34-1.89.52-2.83,0-.11.16-.27.24-.27C53,17.13,53.77,17.13,54.58,17.13Z"/><path class="cls-1" d="M28.73,20.05l-.32,1.69h-.94l.81-4.59c.57,0,1.13,0,1.69,0A1.06,1.06,0,0,1,31,18a1.51,1.51,0,0,1-.51,1.68,2.38,2.38,0,0,1-1,.37A3.56,3.56,0,0,1,28.73,20.05Zm.16-.87a4.52,4.52,0,0,0,.83-.11.56.56,0,0,0,.34-.67c0-.29-.26-.31-.5-.34s-.57.09-.57.49A4.72,4.72,0,0,1,28.89,19.18Z"/><path class="cls-1" d="M42.25,18.34a1.6,1.6,0,0,0-2.53,1.26,1.12,1.12,0,0,0,1.53,1.21c.19-.06.37-.14.59-.23a8,8,0,0,1-.1.9c0,.09-.16.17-.27.21a2,2,0,0,1-2.07-.32,2,2,0,0,1-.65-2.07A2.73,2.73,0,0,1,42,17.13c.31.08.44.23.36.55A6.19,6.19,0,0,0,42.25,18.34Z"/><path class="cls-1" d="M83.44,41.53c.17-.42.32-.76.43-1.12a.41.41,0,0,1,.62-.31V42c-.21.08-.31,0-.3-.2a8.86,8.86,0,0,0-.06-1.25L83.5,42h-.13l-.62-1.51h-.06v1.22c0,.23,0,.23-.3.23V40.11c.33-.13.52,0,.63.32S83.28,41.11,83.44,41.53Z"/><path class="cls-1" d="M82,40.06c-.13.38-.42.15-.6.28,0,.53-.08,1.09-.13,1.64a1.28,1.28,0,0,1-.21,0V40.29a3.82,3.82,0,0,1-.48,0s-.09-.09-.13-.13.09-.09.13-.09Z"/></svg>