<svg id="Layer_1" data-name="Layer 1" xmlns="http://www.w3.org/2000/svg" viewBox="0 0 90 53.91"><defs><style>.cls-1,.cls-2{fill:#3c3c3b;}.cls-2{fill-rule:evenodd;}</style></defs><g id="g1865"><path id="path1857" class="cls-1" d="M25.36,19.63a9.08,9.08,0,0,0,.33,2.67,16.55,16.55,0,0,0,1,2.15,1.3,1.3,0,0,1,.21.69,1.19,1.19,0,0,1-.57.9L24.41,27.3a1.5,1.5,0,0,1-.78.26,1.36,1.36,0,0,1-.9-.41,9.28,9.28,0,0,1-1.08-1.41c-.3-.51-.6-1.08-.93-1.77a11,11,0,0,1-8.8,4.13,8.17,8.17,0,0,1-6-2.15A7.68,7.68,0,0,1,3.72,20.2,7.72,7.72,0,0,1,6.45,14a10.91,10.91,0,0,1,7.33-2.33,23.61,23.61,0,0,1,3.17.24c1.11.15,2.25.39,3.44.66V10.41c0-2.27-.47-3.86-1.4-4.79s-2.58-1.37-4.88-1.37a13.51,13.51,0,0,0-3.23.39,23.87,23.87,0,0,0-3.24,1,8.61,8.61,0,0,1-1,.39,1.71,1.71,0,0,1-.47.09c-.42,0-.63-.3-.63-.93V3.74A1.9,1.9,0,0,1,5.7,2.69a2.28,2.28,0,0,1,.83-.63A17.27,17.27,0,0,1,10.31.71,18.5,18.5,0,0,1,15,.15c3.56,0,6.16.8,7.84,2.42S25.3,6.64,25.3,9.93v9.7ZM13.21,24.18a9.62,9.62,0,0,0,3.08-.54,6.66,6.66,0,0,0,2.85-1.91,4.74,4.74,0,0,0,1-1.92,10.68,10.68,0,0,0,.3-2.6V16a24.44,24.44,0,0,0-2.75-.51,22.57,22.57,0,0,0-2.81-.18,6.87,6.87,0,0,0-4.46,1.2A4.17,4.17,0,0,0,9,19.9a4.15,4.15,0,0,0,1.11,3.17,4.14,4.14,0,0,0,3.14,1.11Zm24,3.24a1.67,1.67,0,0,1-1.14-.3A2.45,2.45,0,0,1,35.48,26l-7-23.14a5.26,5.26,0,0,1-.27-1.2.66.66,0,0,1,.71-.75h2.94a1.66,1.66,0,0,1,1.17.3,2.46,2.46,0,0,1,.59,1.17l5,19.82L43.29,2.33a2.1,2.1,0,0,1,.57-1.17,2.06,2.06,0,0,1,1.2-.3h2.39a1.81,1.81,0,0,1,1.2.3,2,2,0,0,1,.57,1.17L54,22.39,59.13,2.33a2.57,2.57,0,0,1,.6-1.17,1.92,1.92,0,0,1,1.16-.3h2.79a.67.67,0,0,1,.75.75,3,3,0,0,1-.06.48,4.27,4.27,0,0,1-.21.75L56.94,26a2.3,2.3,0,0,1-.63,1.17,1.89,1.89,0,0,1-1.13.29H52.6a1.81,1.81,0,0,1-1.2-.29,2.19,2.19,0,0,1-.56-1.2L46.2,6.64,41.59,25.92a2.34,2.34,0,0,1-.57,1.2,1.86,1.86,0,0,1-1.2.3Zm38.46.8a19.77,19.77,0,0,1-4.61-.54,13.21,13.21,0,0,1-3.44-1.19,2.16,2.16,0,0,1-.93-.84,2.12,2.12,0,0,1-.18-.84V23.28c0-.62.24-.92.69-.92a1.7,1.7,0,0,1,.54.09c.18.06.45.18.75.3a16.65,16.65,0,0,0,3.29,1,17.92,17.92,0,0,0,3.56.36,8.06,8.06,0,0,0,4.37-1,3.2,3.2,0,0,0,1.56-2.84,2.88,2.88,0,0,0-.81-2.09,7.54,7.54,0,0,0-3-1.56l-4.34-1.35a9.07,9.07,0,0,1-4.79-3.05,7.12,7.12,0,0,1-1.5-4.34,6.61,6.61,0,0,1,.81-3.32,7.81,7.81,0,0,1,2.15-2.46A9.31,9.31,0,0,1,72.93.6,13,13,0,0,1,76.7.09a14.81,14.81,0,0,1,2,.12c.69.09,1.32.21,2,.33s1.17.29,1.71.47a6.7,6.7,0,0,1,1.25.54,2.59,2.59,0,0,1,.9.75,1.62,1.62,0,0,1,.27,1V4.7c0,.62-.24,1-.69,1A3.12,3.12,0,0,1,83,5.29a13.78,13.78,0,0,0-5.74-1.16,7.68,7.68,0,0,0-4,.84,2.87,2.87,0,0,0-1.41,2.66,2.8,2.8,0,0,0,.9,2.12A8.9,8.9,0,0,0,76,11.4l4.25,1.35a9.08,9.08,0,0,1,4.64,2.87,6.78,6.78,0,0,1,1.38,4.19,7.64,7.64,0,0,1-.78,3.47,8.07,8.07,0,0,1-2.19,2.64A9.35,9.35,0,0,1,80,27.59a14.2,14.2,0,0,1-4.28.63Z"/><g id="g1863"><path id="path1859" class="cls-2" d="M81.37,42.77C71.52,50,57.21,53.91,44.91,53.91A65.94,65.94,0,0,1,.4,36.93c-.93-.83-.09-2,1-1.31A89.78,89.78,0,0,0,46,47.44a88.85,88.85,0,0,0,34-6.94C81.58,39.75,83,41.57,81.37,42.77Z"/><path id="path1861" class="cls-2" d="M85.47,38.1c-1.26-1.62-8.32-.78-11.53-.39-1,.12-1.1-.72-.24-1.34,5.63-4,14.88-2.82,16-1.5s-.3,10.59-5.57,15c-.81.69-1.58.33-1.23-.56C84.06,46.36,86.73,39.69,85.47,38.1Z"/></g></g></svg>