<svg id="Layer_1" data-name="Layer 1" xmlns="http://www.w3.org/2000/svg" viewBox="0 0 91 64"><defs><style>.cls-1{fill:#3c3c3b;}</style></defs><path class="cls-1" d="M14.38,42A1.36,1.36,0,0,0,13,43.34v6.9A7.64,7.64,0,0,0,2.24,51.41,7.72,7.72,0,0,0,.56,56.2a7.63,7.63,0,1,0,15.26.27v-13a1.37,1.37,0,0,0-.41-1,1.46,1.46,0,0,0-1-.41m-1.79,16a4.82,4.82,0,0,1-2.54,2.56,4.78,4.78,0,0,1-3.74-8.79,4.78,4.78,0,0,1,6.28,2.56,4.68,4.68,0,0,1,0,3.67"/><path class="cls-1" d="M30.32,50.81a7.71,7.71,0,1,0,2.25,5.66V56.2A7.75,7.75,0,0,0,32,53.28a7.47,7.47,0,0,0-1.68-2.47m-1,7.22a4.72,4.72,0,0,1-1,1.5,4.78,4.78,0,1,1-5.25-7.76,4.75,4.75,0,0,1,5.25,1,5,5,0,0,1,1,1.51,4.8,4.8,0,0,1,0,3.72"/><path class="cls-1" d="M61.87,50a1.3,1.3,0,0,0-.12-.55,1.9,1.9,0,0,0-.31-.45,1.44,1.44,0,0,0-.45-.31,1.3,1.3,0,0,0-.55-.12,1.51,1.51,0,0,0-.77.21l-8.15,5.3V43.46a1.41,1.41,0,0,0-.4-1,1.48,1.48,0,0,0-1-.43,1.44,1.44,0,0,0-1.44,1.41v19a1.41,1.41,0,0,0,.41,1,1.39,1.39,0,0,0,2,0,1.3,1.3,0,0,0,.41-1V57.47l1.65-1.07,6.3,7.06a1.29,1.29,0,0,0,1,.36A1,1,0,0,0,61,63.7a1.25,1.25,0,0,0,.46-.31,1.9,1.9,0,0,0,.31-.45,1.47,1.47,0,0,0,.12-.55,1.51,1.51,0,0,0-.38-1l-5.85-6.59,5.7-3.71A1.2,1.2,0,0,0,61.87,50"/><path class="cls-1" d="M38.23,52.8a4.74,4.74,0,0,1,1.53-1,5,5,0,0,1,1.87-.38,4.63,4.63,0,0,1,1.65.29,5,5,0,0,1,1.46.88,1.46,1.46,0,0,0,.94.31,1.3,1.3,0,0,0,1-.4,1.5,1.5,0,0,0,.4-1,1.34,1.34,0,0,0-.5-1.08,7.18,7.18,0,0,0-5-1.85,7.65,7.65,0,1,0,5,13.44A1.4,1.4,0,0,0,47,60.9a1.35,1.35,0,0,0-1.31-1.41h-.1a1.51,1.51,0,0,0-.91.28,4.68,4.68,0,0,1-1.44.89,4.94,4.94,0,0,1-1.65.29,4.48,4.48,0,0,1-1.87-.39,4.64,4.64,0,0,1-1.53-1,4.79,4.79,0,0,1,0-6.75s0,0,0,0"/><path class="cls-1" d="M90.17,49.52a2.72,2.72,0,0,0-1-.58,5.32,5.32,0,0,0-1.27-.28,11.17,11.17,0,0,0-1.29-.08,7.24,7.24,0,0,0-2.56.46,7.76,7.76,0,0,0-2.23,1.25V50a1.44,1.44,0,0,0-1.49-1.37A1.42,1.42,0,0,0,79,50V62.43a1.43,1.43,0,0,0,2.85,0v-6.2a4.63,4.63,0,0,1,.38-1.87,4.36,4.36,0,0,1,1-1.51,4.72,4.72,0,0,1,3.38-1.41,5.62,5.62,0,0,1,1.87.33,1.24,1.24,0,0,0,.6.15,1.16,1.16,0,0,0,.55-.12,1.38,1.38,0,0,0,.45-.32,1.66,1.66,0,0,0,.32-.45,1.47,1.47,0,0,0,.12-.55,1.23,1.23,0,0,0-.39-1"/><path class="cls-1" d="M77,53.28a7.81,7.81,0,0,0-7.07-4.7,7.66,7.66,0,0,0-7.65,7.62h0A7.64,7.64,0,0,0,74.86,62l0,0a1,1,0,0,0,.31-.35,1.45,1.45,0,0,0-.36-2,1.41,1.41,0,0,0-1.75.17,1.66,1.66,0,0,0-.19.19l0,0a4.58,4.58,0,0,1-1.37.79,4.39,4.39,0,0,1-1.65.26,4.77,4.77,0,0,1-1.54-.24A4.87,4.87,0,0,1,67,60.09,4.4,4.4,0,0,1,66,59a4.31,4.31,0,0,1-.67-1.36H76.06a1.46,1.46,0,0,0,1-.41,1.25,1.25,0,0,0,.4-1,7.66,7.66,0,0,0-.52-3M65.28,54.81A4,4,0,0,1,66,53.45a4.4,4.4,0,0,1,1-1.06,5.86,5.86,0,0,1,1.34-.69,4.87,4.87,0,0,1,3,0,4.83,4.83,0,0,1,3.09,3.11Z"/><path class="cls-1" d="M68.24,14.88A6.82,6.82,0,0,0,64,13.78a13.37,13.37,0,0,0-2.18.19,8.24,8.24,0,0,0-3.69-5.54L57.4,8l-.47.7a10.14,10.14,0,0,0-1.32,3.06,7.28,7.28,0,0,0,.86,5.73,10.06,10.06,0,0,1-3.76.91h-34A1.61,1.61,0,0,0,17.08,20a24.16,24.16,0,0,0,1.48,8.74,13.1,13.1,0,0,0,5.18,6.73c2.54,1.56,6.69,2.45,11.36,2.45a34.27,34.27,0,0,0,6.3-.58,25.81,25.81,0,0,0,8.24-3,22.61,22.61,0,0,0,5.61-4.6,30.56,30.56,0,0,0,5.49-9.47h.47A7.89,7.89,0,0,0,67,18.11a6.38,6.38,0,0,0,1.53-2.25l.22-.62Z"/><path class="cls-1" d="M28.12,17.42h4.56a.4.4,0,0,0,.4-.41h0V12.94a.4.4,0,0,0-.4-.41H28.12a.4.4,0,0,0-.4.41V17a.42.42,0,0,0,.4.41"/><path class="cls-1" d="M34.52,17.42h4.55a.41.41,0,0,0,.41-.41h0V12.94a.41.41,0,0,0-.41-.41H34.52a.4.4,0,0,0-.4.41h0V17a.39.39,0,0,0,.4.41h0"/><path class="cls-1" d="M40.82,17.42h4.56a.4.4,0,0,0,.4-.41V12.94a.4.4,0,0,0-.4-.41H40.82a.4.4,0,0,0-.4.41h0V17a.4.4,0,0,0,.4.41h0"/><path class="cls-1" d="M28.12,11.6h4.56a.42.42,0,0,0,.4-.41V7.12a.4.4,0,0,0-.4-.41H28.12a.4.4,0,0,0-.4.41v4.07a.44.44,0,0,0,.4.41"/><path class="cls-1" d="M34.52,11.6h4.55a.43.43,0,0,0,.41-.41V7.12a.41.41,0,0,0-.41-.41H34.52a.4.4,0,0,0-.4.41h0v4.07a.4.4,0,0,0,.4.41"/><path class="cls-1" d="M40.82,11.6h4.56a.42.42,0,0,0,.4-.41V7.12a.42.42,0,0,0-.4-.41H40.82a.4.4,0,0,0-.4.41h0v4.07a.42.42,0,0,0,.4.41"/><path class="cls-1" d="M40.82,5.75h4.56a.4.4,0,0,0,.4-.41V1.27a.42.42,0,0,0-.4-.41H40.82a.4.4,0,0,0-.4.41h0V5.34a.42.42,0,0,0,.4.41"/><path class="cls-1" d="M47.17,17.42h4.56a.4.4,0,0,0,.4-.41V12.94a.4.4,0,0,0-.4-.41H47.17a.4.4,0,0,0-.4.41h0V17a.42.42,0,0,0,.4.41"/></svg>