<svg id="Layer_1" data-name="Layer 1" xmlns="http://www.w3.org/2000/svg" viewBox="0 0 90.29 62.73"><defs><style>.cls-1{fill:#3c3c3b;}</style></defs><path class="cls-1" d="M46.15,43.19V39.88H49V43.2ZM9.07,57.69V51.08H3.25v6.61h-3V42h3v6.45H9.07V42h3V57.69m10.86,0H20.54l-.21-.77a6.3,6.3,0,0,1-3.42,1c-2.1,0-3-1.44-3-3.41,0-2.34,1-3.23,3.33-3.23H20v-1.2c0-1.27-.35-1.72-2.19-1.72a16.2,16.2,0,0,0-3.18.34l-.35-2.19A14.5,14.5,0,0,1,18.22,46c3.61,0,4.67,1.27,4.67,4.14ZM20,53.36H17.9c-.94,0-1.2.26-1.2,1.13s.26,1.16,1.15,1.16a4.59,4.59,0,0,0,2.17-.6Zm8.43,4.56a13.91,13.91,0,0,1-3.95-.66l.4-2.19a13.13,13.13,0,0,0,3.41.49c1.27,0,1.46-.3,1.46-1.16,0-.7-.14-1.06-2-1.5-2.8-.69-3.13-1.39-3.13-3.61s1-3.32,4.28-3.32a15.26,15.26,0,0,1,3.44.4l-.28,2.3a20.9,20.9,0,0,0-3.16-.33c-1.24,0-1.46.3-1.46,1,0,.92.07,1,1.63,1.39,3.22.85,3.52,1.27,3.52,3.62s-.69,3.59-4.15,3.59Zm12.7-.23v-8c0-.61-.26-.91-.92-.91a7.88,7.88,0,0,0-3,1v8H34.36V41.54l2.88-.4v6A10.36,10.36,0,0,1,41.43,46c1.9,0,2.59,1.35,2.59,3.4V57.7Zm5,0V46.24H49V57.72ZM51,46.32c0-2.88,1.67-4.55,5.58-4.55a18.06,18.06,0,0,1,4.26.52l-.34,2.58a22.55,22.55,0,0,0-3.85-.4c-2,0-2.7.7-2.7,2.37v6c0,1.68.66,2.37,2.7,2.37a21.58,21.58,0,0,0,3.85-.4l.33,2.56a18.46,18.46,0,0,1-4.26.52c-3.91,0-5.58-1.67-5.58-4.54ZM66.77,57.93c-3.94,0-5-2.17-5-4.52v-2.9c0-2.36,1.06-4.52,5-4.52s5,2.16,5,4.52v2.9C71.76,55.76,70.7,57.93,66.77,57.93Zm0-9.48c-1.54,0-2.12.68-2.12,2V53.5c0,1.29.59,2,2.12,2s2.11-.69,2.11-2V50.42C68.88,49.13,68.29,48.45,66.77,48.45Zm12.61.17a23.62,23.62,0,0,0-3,1.67V57.7H73.47V46.22h2.42l.19,1.27a13.13,13.13,0,0,1,3-1.51Zm10.9,5.26c0,2.55-1.13,4-3.79,4a15.11,15.11,0,0,1-3.07-.33v4.74l-2.87.4V46.22h2.28l.3,1A6.08,6.08,0,0,1,86.76,46c2.3,0,3.53,1.37,3.53,4Zm-6.85,1.29a13.46,13.46,0,0,0,2.54.3c1,0,1.44-.5,1.44-1.53V49.87c0-.94-.35-1.46-1.41-1.46a4.08,4.08,0,0,0-2.57,1ZM37.77-.09,24.16,7.75V26.6l5.12,3V10.7l8.49-4.91M43.18-.1v15H37.76V9.31l-5.12,2.95V31.49l5.12,3v-15h5.42V25l5.12-2.95V2.84M43.18,34.45l13.61-7.84V7.75L51.68,4.8V23.66l-8.5,4.9"/></svg>